<?xml version="1.0" standalone="no"?>
<!DOCTYPE svg PUBLIC "-//W3C//DTD SVG 1.1//EN" "http://www.w3.org/Graphics/SVG/1.1/DTD/svg11.dtd" >
<svg xmlns="http://www.w3.org/2000/svg" xmlns:xlink="http://www.w3.org/1999/xlink" version="1.1" viewBox="0 0 512 512">
  <g transform="matrix(1 0 0 -1 0 512)">
   <path fill="currentColor"
d="M320 277h107l-86 86h-21v-86zM373 139q13 0 22.5 9.5t9.5 22.5t-9.5 22.5t-22.5 9.5t-22.5 -9.5t-9.5 -22.5t9.5 -22.5t22.5 -9.5zM277 277v86h-85v-86h85zM128 139q14 0 23 9.5t9 22.5t-9 22.5t-23 9.5t-23 -9.5t-9 -22.5t9 -22.5t23 -9.5zM64 277h85v86h-85v-86z
M363 405l128 -128v-106h-54q0 -26 -19 -45t-45 -19t-45 19t-19 45h-117q0 -26 -19 -45t-45 -19t-45 19t-19 45h-43v192q0 18 12.5 30t30.5 12h299z" />
  </g>

</svg>
