<?xml version="1.0" standalone="no"?>
<!DOCTYPE svg PUBLIC "-//W3C//DTD SVG 1.1//EN" "http://www.w3.org/Graphics/SVG/1.1/DTD/svg11.dtd" >
<svg xmlns="http://www.w3.org/2000/svg" xmlns:xlink="http://www.w3.org/1999/xlink" version="1.1" viewBox="0 0 512 512">
  <g transform="matrix(1 0 0 -1 0 512)">
   <path fill="currentColor"
d="M256 403l-49 -48l-30 30l79 79l121 -121q37 -37 47 -91q3 -16 3 -31q-1 -39 -16 -70l-155 154v98zM256 94v103l-102 102q-26 -34 -26 -77q0 -52 38 -90t90 -38zM441 67l7 -8l-27 -27l-58 58q-47 -38 -107 -38q-72 0 -121 50q-37 37 -49 112q-1 7 -1 11q3 63 38 105
l-59 59l27 27q299 -299 350 -349z" />
  </g>

</svg>
