<?xml version="1.0" standalone="no"?>
<!DOCTYPE svg PUBLIC "-//W3C//DTD SVG 1.1//EN" "http://www.w3.org/Graphics/SVG/1.1/DTD/svg11.dtd" >
<svg xmlns="http://www.w3.org/2000/svg" xmlns:xlink="http://www.w3.org/1999/xlink" version="1.1" viewBox="0 0 512 512">
  <g transform="matrix(1 0 0 -1 0 512)">
   <path fill="currentColor"
d="M339 149h69l-35 93zM395 299l96 -256h-43l-24 64h-101l-24 -64h-43l96 256h43zM275 191l-17 -44l-66 66l-107 -106l-30 30l109 107q-40 44 -64 97h43q21 -40 49 -71q46 51 68 114h-239v43h150v42h42v-42h150v-43h-63q-26 -80 -79 -139l-1 -1z" />
  </g>

</svg>
