<?xml version="1.0" standalone="no"?>
<!DOCTYPE svg PUBLIC "-//W3C//DTD SVG 1.1//EN" "http://www.w3.org/Graphics/SVG/1.1/DTD/svg11.dtd" >
<svg xmlns="http://www.w3.org/2000/svg" xmlns:xlink="http://www.w3.org/1999/xlink" version="1.1" viewBox="0 0 512 512">
  <g transform="matrix(1 0 0 -1 0 512)">
   <path fill="currentColor"
d="M320 128v43h-43v-43h43zM245 128v43h-42v-43h42zM171 128v43h-43v-43h43zM405 235q17 0 30 -13t13 -30v-85q0 -17 -13 -30t-30 -13h-298q-17 0 -30 13t-13 30v85q0 17 13 30t30 13h213v85h43v-85h42zM412 369l-17 -17q-21 21 -54 21q-32 0 -53 -21l-17 17q30 30 70 30
q41 0 71 -30zM431 386q-41 36 -90 36q-48 0 -89 -36l-17 17q45 45 106 45q62 0 107 -45z" />
  </g>

</svg>
