<?xml version="1.0" standalone="no"?>
<!DOCTYPE svg PUBLIC "-//W3C//DTD SVG 1.1//EN" "http://www.w3.org/Graphics/SVG/1.1/DTD/svg11.dtd" >
<svg xmlns="http://www.w3.org/2000/svg" xmlns:xlink="http://www.w3.org/1999/xlink" version="1.1" viewBox="0 0 512 512">
  <g transform="matrix(1 0 0 -1 0 512)">
   <path fill="currentColor"
d="M283 283l58 -27l-58 -27l-27 -58l-27 58l-58 27l58 27l27 58zM363 299l-20 44l-44 20l44 20l20 44l20 -44l44 -20l-44 -20zM406 299h42v-192q0 -17 -12.5 -30t-29.5 -13h-299q-17 0 -30 13t-13 30v298q0 17 13 30t30 13h192v-43h-192v-298h299v192z" />
  </g>

</svg>
