<?xml version="1.0" standalone="no"?>
<!DOCTYPE svg PUBLIC "-//W3C//DTD SVG 1.1//EN" "http://www.w3.org/Graphics/SVG/1.1/DTD/svg11.dtd" >
<svg xmlns="http://www.w3.org/2000/svg" xmlns:xlink="http://www.w3.org/1999/xlink" version="1.1" viewBox="0 0 512 512">
  <g transform="matrix(1 0 0 -1 0 512)">
   <path fill="currentColor"
d="M314.628 252.503q0 -42.7891 -17.8965 -76.2168q-17.8965 -33.4287 -51.0166 -52.252q-33.1201 -18.8232 -75.9092 -18.8232q-30.6514 0 -58.6279 11.9316q-27.9775 11.9307 -48.1377 32.0918q-20.1602 20.1602 -32.0908 48.1377q-11.9326 27.9766 -11.9326 58.6279
t11.9326 58.6279q11.9307 27.9775 32.0908 48.1377q20.1602 20.1611 48.1377 32.0918q27.9766 11.9316 58.6279 11.9316q58.834 0 101.006 -39.498l-40.9365 -39.291q-24.0693 23.2461 -60.0693 23.2461q-25.3018 0 -46.7998 -12.7549q-21.4971 -12.7539 -34.0459 -34.6631
q-12.5488 -21.9082 -12.5488 -47.8281t12.5488 -47.8281q12.5488 -21.9092 34.0459 -34.6631q21.498 -12.7549 46.7998 -12.7549q17.0742 0 31.3721 4.73242q14.2969 4.73047 23.5537 11.8281q9.25684 7.09668 16.1484 16.1475q6.8916 9.05176 10.0801 17.0762
q3.18945 8.02246 4.42285 15.2227h-85.5771v51.8389h142.354q2.46777 -12.96 2.46777 -25.0967zM492.983 277.6v-43.1992h-42.9951v-42.9951h-43.1992v42.9951h-42.9951v43.1992h42.9951v42.9951h43.1992v-42.9951h42.9951z" />
  </g>

</svg>
