<?xml version="1.0" standalone="no"?>
<!DOCTYPE svg PUBLIC "-//W3C//DTD SVG 1.1//EN" "http://www.w3.org/Graphics/SVG/1.1/DTD/svg11.dtd" >
<svg xmlns="http://www.w3.org/2000/svg" xmlns:xlink="http://www.w3.org/1999/xlink" version="1.1" viewBox="0 0 512 512">
  <g transform="matrix(1 0 0 -1 0 512)">
   <path fill="currentColor"
d="M256 256q26 0 45 -19t19 -45t-19 -45t-45 -19t-45 19t-19 45t19 45t45 19zM256 85q44 0 75.5 31.5t31.5 75.5t-31.5 75.5t-75.5 31.5t-75.5 -31.5t-31.5 -75.5t31.5 -75.5t75.5 -31.5zM256 427q-18 0 -30.5 -13t-12.5 -30t12.5 -30t30.5 -13q17 0 30 13t13 30t-13 30
t-30 13zM363 469q17 0 29.5 -12.5t12.5 -29.5v-342q0 -17 -12.5 -29.5t-29.5 -12.5h-214q-17 0 -29.5 12.5t-12.5 29.5v342q0 17 12.5 29.5t29.5 12.5h214z" />
  </g>

</svg>
