<?xml version="1.0" standalone="no"?>
<!DOCTYPE svg PUBLIC "-//W3C//DTD SVG 1.1//EN" "http://www.w3.org/Graphics/SVG/1.1/DTD/svg11.dtd" >
<svg xmlns="http://www.w3.org/2000/svg" xmlns:xlink="http://www.w3.org/1999/xlink" version="1.1" viewBox="0 0 512 512">
  <g transform="matrix(1 0 0 -1 0 512)">
   <path fill="currentColor"
d="M363 171q35 0 60 25t25 60t-25 60t-60 25t-60.5 -25t-25.5 -60t25.5 -60t60.5 -25zM363 384q53 0 90.5 -37.5t37.5 -90.5t-37.5 -90.5t-90.5 -37.5t-90.5 37.5t-37.5 90.5t37.5 90.5t90.5 37.5zM107 341q35 0 60 -25t25 -60t-25 -60t-60 -25t-60.5 25t-25.5 60t25.5 60
t60.5 25z" />
  </g>

</svg>
