<?xml version="1.0" standalone="no"?>
<!DOCTYPE svg PUBLIC "-//W3C//DTD SVG 1.1//EN" "http://www.w3.org/Graphics/SVG/1.1/DTD/svg11.dtd" >
<svg xmlns="http://www.w3.org/2000/svg" xmlns:xlink="http://www.w3.org/1999/xlink" version="1.1" viewBox="0 0 512 512">
  <g transform="matrix(1 0 0 -1 0 512)">
   <path fill="currentColor"
d="M363 363q44 0 75 -31.5t31 -75.5t-31 -75.5t-75 -31.5h-86v41h86q27 0 46.5 19.5t19.5 46.5t-19.5 46.5t-46.5 19.5h-86v41h86zM171 235v42h170v-42h-170zM83 256q0 -27 19.5 -46.5t46.5 -19.5h86v-41h-86q-44 0 -75 31.5t-31 75.5t31 75.5t75 31.5h86v-41h-86
q-27 0 -46.5 -19.5t-19.5 -46.5z" />
  </g>

</svg>
