<?xml version="1.0" standalone="no"?>
<!DOCTYPE svg PUBLIC "-//W3C//DTD SVG 1.1//EN" "http://www.w3.org/Graphics/SVG/1.1/DTD/svg11.dtd" >
<svg xmlns="http://www.w3.org/2000/svg" xmlns:xlink="http://www.w3.org/1999/xlink" version="1.1" viewBox="0 0 512 512">
  <g transform="matrix(1 0 0 -1 0 512)">
   <path fill="currentColor"
d="M384 299v106h-256v-106h256zM256 149q17 0 30 13t13 30t-13 30t-30 13t-30 -13t-13 -30t13 -30t30 -13zM85 181v224q0 51 44 68.5t127 17.5t127 -17.5t44 -68.5v-224q0 -31 -22 -52.5t-53 -21.5l32 -32v-11h-256v11l32 32q-31 0 -53 21.5t-22 52.5z" />
  </g>

</svg>
