<?xml version="1.0" standalone="no"?>
<!DOCTYPE svg PUBLIC "-//W3C//DTD SVG 1.1//EN" "http://www.w3.org/Graphics/SVG/1.1/DTD/svg11.dtd" >
<svg xmlns="http://www.w3.org/2000/svg" xmlns:xlink="http://www.w3.org/1999/xlink" version="1.1" viewBox="0 0 512 512">
  <g transform="matrix(1 0 0 -1 0 512)">
   <path fill="currentColor"
d="M427 320v43h-43v-43h43zM427 128v43h-43v-43h43zM341 320v43h-42v-43h42zM341 128v43h-42v-43h42zM256 320v43h-43v-43h43zM256 128v43h-43v-43h43zM299 405h170v-320h-170q0 -17 -13 -29.5t-30 -12.5h-171q-17 0 -29.5 12.5t-12.5 29.5v320q0 17 12.5 30t29.5 13h22v21
q0 9 6 15.5t15 6.5h85q9 0 15.5 -6.5t6.5 -15.5v-21h21q17 0 30 -13t13 -30z" />
  </g>

</svg>
