<?xml version="1.0" standalone="no"?>
<!DOCTYPE svg PUBLIC "-//W3C//DTD SVG 1.1//EN" "http://www.w3.org/Graphics/SVG/1.1/DTD/svg11.dtd" >
<svg xmlns="http://www.w3.org/2000/svg" xmlns:xlink="http://www.w3.org/1999/xlink" version="1.1" viewBox="0 0 512 512">
  <g transform="matrix(1 0 0 -1 0 512)">
   <path fill="currentColor"
d="M228 240h56l-28 82zM293 213h-75l-15 -42h-35l73 192h30l72 -192h-34zM405 405h43v43h-43v-43zM448 64v43h-43v-43h43zM363 107v42h42v214h-42v42h-214v-42h-42v-214h42v-42h214zM107 64v43h-43v-43h43zM64 448v-43h43v43h-43zM491 363h-43v-214h43v-128h-128v43h-214
v-43h-128v128h43v214h-43v128h128v-43h214v43h128v-128z" />
  </g>

</svg>
