<?xml version="1.0" standalone="no"?>
<!DOCTYPE svg PUBLIC "-//W3C//DTD SVG 1.1//EN" "http://www.w3.org/Graphics/SVG/1.1/DTD/svg11.dtd" >
<svg xmlns="http://www.w3.org/2000/svg" xmlns:xlink="http://www.w3.org/1999/xlink" version="1.1" viewBox="0 0 512 512">
  <g transform="matrix(1 0 0 -1 0 512)">
   <path fill="currentColor"
d="M299 296q0 40 -11 57q-4 6 -14 12q-7 4 -18 4t-18 -4q-10 -6 -14 -12q-11 -17 -11 -57v-57q0 -56 25 -71q7 -4 18 -4q21 0 32 17q12 18 12 58v57h-1zM168 289q0 116 88 116q65 0 82 -62q7 -26 7 -54v-44h-1q0 -59 -24 -90q-14 -16 -28 -21q-16 -6 -36 -6t-36 6
q-14 5 -28 21q-24 27 -24 90v44z" />
  </g>

</svg>
