<?xml version="1.0" standalone="no"?>
<!DOCTYPE svg PUBLIC "-//W3C//DTD SVG 1.1//EN" "http://www.w3.org/Graphics/SVG/1.1/DTD/svg11.dtd" >
<svg xmlns="http://www.w3.org/2000/svg" xmlns:xlink="http://www.w3.org/1999/xlink" version="1.1" viewBox="0 0 512 512">
  <g transform="matrix(1 0 0 -1 0 512)">
   <path fill="currentColor"
d="M21 299q97 0 166 -69t69 -166h-43q0 80 -56.5 136t-135.5 56v43zM21 213q62 0 106 -43.5t44 -105.5h-43q0 44 -31.5 75.5t-75.5 31.5v42zM21 128q26 0 45 -19t19 -45h-64v64zM448 448q17 0 30 -13t13 -30v-298q0 -17 -13 -30t-30 -13h-149v43h149v298h-384v-64h-43v64
q0 17 13 30t30 13h384z" />
  </g>

</svg>
