<?xml version="1.0" standalone="no"?>
<!DOCTYPE svg PUBLIC "-//W3C//DTD SVG 1.1//EN" "http://www.w3.org/Graphics/SVG/1.1/DTD/svg11.dtd" >
<svg xmlns="http://www.w3.org/2000/svg" xmlns:xlink="http://www.w3.org/1999/xlink" version="1.1" viewBox="0 0 512 512">
  <g transform="matrix(1 0 0 -1 0 512)">
   <path fill="currentColor"
d="M277 405q9 0 15.5 -6t6.5 -15v-256q0 -9 -6.5 -15t-15.5 -6h-64q-9 0 -15 6t-6 15v256q0 9 6 15t15 6h64zM427 405q9 0 15 -6t6 -15v-256q0 -9 -6 -15t-15 -6h-64q-9 0 -15.5 6t-6.5 15v256q0 9 6.5 15t15.5 6h64zM128 405q9 0 15 -6t6 -15v-256q0 -9 -6 -15t-15 -6h-64
q-9 0 -15 6t-6 15v256q0 9 6 15t15 6h64z" />
  </g>

</svg>
