<?xml version="1.0" standalone="no"?>
<!DOCTYPE svg PUBLIC "-//W3C//DTD SVG 1.1//EN" "http://www.w3.org/Graphics/SVG/1.1/DTD/svg11.dtd" >
<svg xmlns="http://www.w3.org/2000/svg" xmlns:xlink="http://www.w3.org/1999/xlink" version="1.1" viewBox="0 0 512 512">
  <g transform="matrix(1 0 0 -1 0 512)">
   <path fill="currentColor"
d="M331 192q13 0 22.5 -9t9.5 -23t-9.5 -23t-22.5 -9t-22.5 9t-9.5 23t9.5 23t22.5 9zM373 299q13 0 22.5 -9.5t9.5 -22.5t-9.5 -22.5t-22.5 -9.5t-22.5 9.5t-9.5 22.5t9.5 22.5t22.5 9.5zM256 64q80 0 136 56t56 136t-56 136t-136 56t-136 -56t-56 -136t56 -136t136 -56z
M256 491q97 0 166 -69t69 -166t-69 -166t-166 -69t-166 69t-69 166t69 166t166 69zM181 192q13 0 22.5 -9t9.5 -23t-9.5 -23t-22.5 -9t-22.5 9t-9.5 23t9.5 23t22.5 9zM320 373q0 -13 -9 -22.5t-23 -9.5h-64q-14 0 -23 9.5t-9 22.5t9 22.5t23 9.5h64q14 0 23 -9.5t9 -22.5z
M171 267q0 -13 -9.5 -22.5t-22.5 -9.5t-22.5 9.5t-9.5 22.5t9.5 22.5t22.5 9.5t22.5 -9.5t9.5 -22.5z" />
  </g>

</svg>
