<?xml version="1.0" standalone="no"?>
<!DOCTYPE svg PUBLIC "-//W3C//DTD SVG 1.1//EN" "http://www.w3.org/Graphics/SVG/1.1/DTD/svg11.dtd" >
<svg xmlns="http://www.w3.org/2000/svg" xmlns:xlink="http://www.w3.org/1999/xlink" version="1.1" viewBox="0 0 512 512">
  <g transform="matrix(1 0 0 -1 0 512)">
   <path fill="currentColor"
d="M210 48q4 7 43 75t60 103l78 -135q-59 -48 -135 -48q-21 0 -46 5zM52 192h207l-79 -135q-46 17 -79.5 52.5t-48.5 82.5zM99 400l108 -187h-160q-4 19 -4 43q0 83 56 144zM465 299q4 -19 4 -43q0 -83 -56 -144l-102 176l-6 11h160zM460 320h-207l79 135q46 -17 79.5 -52.5
t48.5 -82.5zM201 288l-2 -2l-78 135q59 48 135 48q21 0 46 -5z" />
  </g>

</svg>
