<?xml version="1.0" standalone="no"?>
<!DOCTYPE svg PUBLIC "-//W3C//DTD SVG 1.1//EN" "http://www.w3.org/Graphics/SVG/1.1/DTD/svg11.dtd" >
<svg xmlns="http://www.w3.org/2000/svg" xmlns:xlink="http://www.w3.org/1999/xlink" version="1.1" viewBox="0 0 512 512">
  <g transform="matrix(1 0 0 -1 0 512)">
   <path fill="currentColor"
d="M256 496.814q65.6855 0 121.157 -32.3711q55.4717 -32.3721 87.8428 -87.8438q32.3721 -55.4717 32.3721 -121.156q0 -78.8857 -46.0439 -141.9q-46.043 -63.0146 -118.956 -87.2148q-8.48633 -1.57031 -12.5723 2.2002q-4.08594 3.77148 -4.08594 9.42969
q0 0.941406 0.158203 24.042q0.15625 23.0996 0.15625 42.2715q0 30.4863 -16.3428 44.6279q17.9141 1.88672 32.2148 5.6582q14.2998 3.77051 29.543 12.2568q15.2422 8.48535 25.457 20.9004q10.2129 12.4131 16.6562 33q6.44336 20.585 6.44336 47.2998
q0 37.3994 -24.8281 64.7432q11.6279 28.5996 -2.51465 64.1133q-8.80078 2.82812 -25.457 -3.45703q-16.6572 -6.28613 -28.915 -13.8281l-11.9424 -7.54297q-29.2295 8.17188 -60.3428 8.17188q-31.1143 0 -60.3428 -8.17188q-5.02832 3.45703 -13.3574 8.48535
q-8.32812 5.0293 -26.2432 12.0996q-17.9131 7.07129 -26.7139 4.24316q-14.1426 -35.5137 -2.51465 -64.1133q-24.8281 -27.3438 -24.8281 -64.7432q0 -26.7148 6.44336 -47.1436q6.44238 -20.4277 16.5 -33q10.0566 -12.5713 25.2998 -21.0566
q15.2422 -8.48633 29.542 -12.2568q14.2998 -3.77148 32.2148 -5.6582q-12.2568 -11.3135 -15.4004 -32.3711q-6.59961 -3.14258 -14.1426 -4.71387t-17.9141 -1.57129t-20.5859 6.75684q-10.2139 6.75781 -17.4434 19.6426q-5.9707 10.0566 -15.2422 16.3438
q-9.27148 6.28516 -15.5576 7.54199l-6.28516 0.943359q-6.60059 0 -9.11523 -1.41406q-2.51367 -1.41504 -1.57031 -3.61426q0.942383 -2.2002 2.82812 -4.40039t4.08594 -3.77148l2.19922 -1.57227q6.91504 -3.1416 13.6719 -11.9414q6.75684 -8.7998 9.90039 -16.0293
l3.14258 -7.22852q4.08594 -11.9424 13.8291 -19.3291q9.74316 -7.38477 21.0566 -9.42773q11.3145 -2.04395 21.8428 -2.2002q10.5283 -0.157227 17.4434 1.09961l7.22852 1.25684q0 -11.9414 0.157227 -27.8135q0.15625 -15.8711 0.15625 -17.1279
q0 -5.6582 -4.08496 -9.42969q-4.08691 -3.77051 -12.5713 -2.2002q-72.915 24.2002 -118.957 87.2148q-46.043 63.0146 -46.043 141.9q0 65.6846 32.3711 121.156q32.3721 55.4717 87.8428 87.8438q55.4707 32.3711 121.157 32.3711zM106.085 150.157
q0.943359 2.2002 -2.19922 3.77051q-3.14258 0.943359 -4.08594 -0.62793q-0.943359 -2.2002 2.2002 -3.77148q2.82812 -1.88574 4.08496 0.628906zM115.828 139.472q-1.88477 -2.2002 -5.02832 0.942383q-2.82812 3.45703 -0.62793 5.0293
q1.88477 1.88477 5.02832 -0.943359q2.82812 -3.45703 0.62793 -5.02832zM125.257 125.328q-2.51367 -1.88574 -5.34277 2.2002t0 5.65723q2.8291 2.2002 5.34277 -1.88574q2.82812 -3.77148 0 -5.97168zM138.457 112.128q-2.51367 -2.82812 -6.28516 0.943359
q-4.08691 3.45703 -1.25781 5.97168q2.51465 2.82812 6.28613 -0.943359q3.77148 -3.45703 1.25684 -5.97168zM156.372 104.271q-1.25879 -3.77148 -5.97168 -1.88574q-5.34375 1.25684 -4.08691 4.71387q1.25781 3.45801 5.97168 2.2002q5.02832 -1.57129 4.08691 -5.02832
zM176.172 102.699q0 -3.45605 -5.02832 -3.45605q-5.34375 -0.628906 -5.34375 3.45605q0 3.45801 5.02832 3.45801q5.34375 0.628906 5.34375 -3.45801zM194.4 105.843q0.62793 -3.14355 -4.40039 -4.40039q-5.02832 -1.25684 -5.65723 2.51562
q-0.628906 3.77051 4.40039 4.71289q5.02832 0.628906 5.65723 -2.82812z" />
  </g>

</svg>
