<?xml version="1.0" standalone="no"?>
<!DOCTYPE svg PUBLIC "-//W3C//DTD SVG 1.1//EN" "http://www.w3.org/Graphics/SVG/1.1/DTD/svg11.dtd" >
<svg xmlns="http://www.w3.org/2000/svg" xmlns:xlink="http://www.w3.org/1999/xlink" version="1.1" viewBox="0 0 512 512">
  <g transform="matrix(1 0 0 -1 0 512)">
   <path fill="currentColor"
d="M384 117q14 0 23 9.5t9 22.5t-9 22.5t-23 9.5t-23 -9.5t-9 -22.5t9 -22.5t23 -9.5zM416 309h-53v-53h95zM128 117q14 0 23 9.5t9 22.5t-9 22.5t-23 9.5t-23 -9.5t-9 -22.5t9 -22.5t23 -9.5zM427 341l64 -85v-107h-43q0 -26 -19 -45t-45 -19t-45 19t-19 45h-128
q0 -26 -19 -45t-45 -19t-45 19t-19 45h-43v235q0 17 13 30t30 13h299v-86h64z" />
  </g>

</svg>
