<?xml version="1.0" standalone="no"?>
<!DOCTYPE svg PUBLIC "-//W3C//DTD SVG 1.1//EN" "http://www.w3.org/Graphics/SVG/1.1/DTD/svg11.dtd" >
<svg xmlns="http://www.w3.org/2000/svg" xmlns:xlink="http://www.w3.org/1999/xlink" version="1.1" viewBox="0 0 512 512">
  <g transform="matrix(1 0 0 -1 0 512)">
   <path fill="currentColor"
d="M86.7422 443.564q0 27.9471 36.9932 35.6221q36.9932 7.67501 129.716 7.73041q5.41115 0.00323316 15.9337 0.0214453q47.7503 0.0826446 69.3894 -0.645355q21.6391 -0.727999 47.8186 -4.52538q26.1795 -3.79738 35.8021 -13.0649q9.62261 -9.26754 9.62261 -25.1383
v-372.271q0 -28.8809 -32.5544 -35.752q-32.5544 -6.87113 -112.13 -6.94665q-18.4087 -0.0174688 -28.0518 -0.0747991q-6.24669 -0.0371383 -18.3746 -0.132901q-23.0341 -0.398425 -43.4113 -0.138503q-20.3773 0.259922 -37.5067 1.13378
q-17.1294 0.873855 -30.7153 3.63872q-13.5859 2.76486 -23.0373 7.37631q-9.45136 4.61145 -14.4726 12.3466q-5.02124 7.73511 -5.02124 18.5495v372.271zM102.512 430.891v-334.01h313.734v334.01h-313.734zM121.523 399.561h72.6582v-72.6602h-72.6582v72.6602z
M223.684 399.561h72.6602v-72.6602h-72.6602v72.6602zM325.844 399.561h72.6602v-72.6602h-72.6602v72.6602zM121.523 300.145h72.6582v-72.6602h-72.6582v72.6602zM223.684 300.145h72.6602v-72.6602h-72.6602v72.6602zM325.844 300.145h72.6602v-72.6602h-72.6602v72.6602
zM121.523 199.885h72.6582v-72.6602h-72.6582v72.6602zM223.684 199.885h72.6602v-72.6602h-72.6602v72.6602zM325.844 199.885h72.6602v-72.6602h-72.6602v72.6602z" />
  </g>

</svg>
