<?xml version="1.0" standalone="no"?>
<!DOCTYPE svg PUBLIC "-//W3C//DTD SVG 1.1//EN" "http://www.w3.org/Graphics/SVG/1.1/DTD/svg11.dtd" >
<svg xmlns="http://www.w3.org/2000/svg" xmlns:xlink="http://www.w3.org/1999/xlink" version="1.1" viewBox="0 0 512 512">
  <g transform="matrix(1 0 0 -1 0 512)">
   <path fill="currentColor"
d="M405 363v42h-213v-42h213zM320 192v43h-128v-43h128zM405 277v43h-213v-43h213zM427 469q17 0 29.5 -12.5t12.5 -29.5v-256q0 -17 -12.5 -30t-29.5 -13h-256q-17 0 -30 13t-13 30v256q0 17 13 29.5t30 12.5h256zM85 384v-299h299v-42h-299q-17 0 -29.5 12.5t-12.5 29.5
v299h42z" />
  </g>

</svg>
