<?xml version="1.0" standalone="no"?>
<!DOCTYPE svg PUBLIC "-//W3C//DTD SVG 1.1//EN" "http://www.w3.org/Graphics/SVG/1.1/DTD/svg11.dtd" >
<svg xmlns="http://www.w3.org/2000/svg" xmlns:xlink="http://www.w3.org/1999/xlink" version="1.1" viewBox="0 0 512 512">
  <g transform="matrix(1 0 0 -1 0 512)">
   <path fill="currentColor"
d="M405 149v22q0 19 -29.5 30.5t-55.5 11.5t-55.5 -11.5t-29.5 -30.5v-22h170zM320 320q-17 0 -30 -13t-13 -30t13 -29.5t30 -12.5t30 12.5t13 29.5t-13 30t-30 13zM427 384q17 0 29.5 -13t12.5 -30v-213q0 -17 -12.5 -30t-29.5 -13h-342q-17 0 -29.5 13t-12.5 30v256
q0 17 12.5 30t29.5 13h128l43 -43h171z" />
  </g>

</svg>
