<?xml version="1.0" standalone="no"?>
<!DOCTYPE svg PUBLIC "-//W3C//DTD SVG 1.1//EN" "http://www.w3.org/Graphics/SVG/1.1/DTD/svg11.dtd" >
<svg xmlns="http://www.w3.org/2000/svg" xmlns:xlink="http://www.w3.org/1999/xlink" version="1.1" viewBox="0 0 512 512">
  <g transform="matrix(1 0 0 -1 0 512)">
   <path fill="currentColor"
d="M235 117l85 86l-85 85l-22 -21l64 -64l-64 -64zM213 405v-42h86v42h-86zM299 448q17 0 29.5 -12.5t12.5 -30.5v-42h86q17 0 29.5 -13t12.5 -30v-235q0 -17 -12.5 -29.5t-29.5 -12.5h-342q-17 0 -29.5 12.5t-12.5 29.5v235q0 17 12.5 30t29.5 13h86v42q0 17 12.5 30
t29.5 13h86z" />
  </g>

</svg>
