<?xml version="1.0" standalone="no"?>
<!DOCTYPE svg PUBLIC "-//W3C//DTD SVG 1.1//EN" "http://www.w3.org/Graphics/SVG/1.1/DTD/svg11.dtd" >
<svg xmlns="http://www.w3.org/2000/svg" xmlns:xlink="http://www.w3.org/1999/xlink" version="1.1" viewBox="0 0 512 512">
  <g transform="matrix(1 0 0 -1 0 512)">
   <path fill="currentColor"
d="M384 173v147q0 38 -33 51t-95 13q-59 0 -93.5 -13t-34.5 -51v-147q0 -23 16.5 -39.5t39.5 -16.5l-24 -24v-8h36l32 32h60l32 -32h32v8l-24 24q23 0 39.5 16.5t16.5 39.5zM380 452q43 -16 66 -50t23 -79v-280h-426v280q0 45 23 79t66 50q43 17 124 17t124 -17zM150 320
h213v-107h-213v107zM160 171q0 9 6 15t15 6t15.5 -6t6.5 -15t-6.5 -15.5t-15.5 -6.5t-15 6.5t-6 15.5zM309 171q0 9 6.5 15t15.5 6t15 -6t6 -15t-6 -15.5t-15 -6.5t-15.5 6.5t-6.5 15.5z" />
  </g>

</svg>
