<?xml version="1.0" standalone="no"?>
<!DOCTYPE svg PUBLIC "-//W3C//DTD SVG 1.1//EN" "http://www.w3.org/Graphics/SVG/1.1/DTD/svg11.dtd" >
<svg xmlns="http://www.w3.org/2000/svg" xmlns:xlink="http://www.w3.org/1999/xlink" version="1.1" viewBox="0 0 512 512">
  <g transform="matrix(1 0 0 -1 0 512)">
   <path fill="currentColor"
d="M427 85v342l-342 -342h342zM107 405v-42h128v42h-128zM427 469q17 0 29.5 -12.5t12.5 -29.5v-342q0 -17 -12.5 -29.5t-29.5 -12.5h-342q-17 0 -29.5 12.5t-12.5 29.5v342q0 17 12.5 29.5t29.5 12.5h342zM320 149h-43v43h43v43h43v-43h42v-43h-42v-42h-43v42z" />
  </g>

</svg>
