<?xml version="1.0" standalone="no"?>
<!DOCTYPE svg PUBLIC "-//W3C//DTD SVG 1.1//EN" "http://www.w3.org/Graphics/SVG/1.1/DTD/svg11.dtd" >
<svg xmlns="http://www.w3.org/2000/svg" xmlns:xlink="http://www.w3.org/1999/xlink" version="1.1" viewBox="0 0 512 512">
  <g transform="matrix(1 0 0 -1 0 512)">
   <path fill="currentColor"
d="M258 116q48 43 71 65t50 52t37.5 53t10.5 45q0 32 -21.5 53t-53.5 21q-25 0 -46.5 -14t-29.5 -36h-40q-8 22 -29.5 36t-46.5 14q-32 0 -53.5 -21t-21.5 -53q0 -22 10.5 -45t37.5 -53t50 -52t71 -65l2 -2zM352 448q50 0 83.5 -34t33.5 -83q0 -29 -11 -56.5t-40.5 -61.5
t-53.5 -57t-77 -71l-31 -28l-31 27q-69 62 -99.5 93t-56.5 73t-26 81q0 49 33.5 83t83.5 34q58 0 96 -45q38 45 96 45z" />
  </g>

</svg>
