<?xml version="1.0" standalone="no"?>
<!DOCTYPE svg PUBLIC "-//W3C//DTD SVG 1.1//EN" "http://www.w3.org/Graphics/SVG/1.1/DTD/svg11.dtd" >
<svg xmlns="http://www.w3.org/2000/svg" xmlns:xlink="http://www.w3.org/1999/xlink" version="1.1" viewBox="0 0 512 512">
  <g transform="matrix(1 0 0 -1 0 512)">
   <path fill="currentColor"
d="M43 245q0 49 34 83.5t83 34.5h224q35 0 60 -25.5t25 -60.5t-25 -60t-60 -25h-181q-22 0 -38 15.5t-16 37.5t16 38t38 16h160v-43h-162q-9 0 -9 -10.5t9 -10.5h183q17 0 30 12.5t13 29.5t-13 30t-30 13h-224q-31 0 -53 -22t-22 -53t22 -52.5t53 -21.5h203v-43h-203
q-49 0 -83 34t-34 83z" />
  </g>

</svg>
