<?xml version="1.0" standalone="no"?>
<!DOCTYPE svg PUBLIC "-//W3C//DTD SVG 1.1//EN" "http://www.w3.org/Graphics/SVG/1.1/DTD/svg11.dtd" >
<svg xmlns="http://www.w3.org/2000/svg" xmlns:xlink="http://www.w3.org/1999/xlink" version="1.1" viewBox="0 0 512 512">
  <g transform="matrix(1 0 0 -1 0 512)">
   <path fill="currentColor"
d="M341 234v43h-64v64h-42v-64h-64v-43h64v-64h42v64h64zM403 153l45 -45v-23h-384v23l45 45v124q0 51 32 91.5t81 51.5v15q0 14 10 24t24 10t24 -10t10 -24v-15q49 -11 81 -51.5t32 -91.5v-124zM214 64h84q0 -17 -12.5 -30t-29.5 -13t-29.5 13t-12.5 30z" />
  </g>

</svg>
