<?xml version="1.0" standalone="no"?>
<!DOCTYPE svg PUBLIC "-//W3C//DTD SVG 1.1//EN" "http://www.w3.org/Graphics/SVG/1.1/DTD/svg11.dtd" >
<svg xmlns="http://www.w3.org/2000/svg" xmlns:xlink="http://www.w3.org/1999/xlink" version="1.1" viewBox="0 0 512 512">
  <g transform="matrix(1 0 0 -1 0 512)">
   <path fill="currentColor"
d="M260.733 497.824q23.2295 -0.243164 41.5879 -15.7031q21.2598 -19.5762 41.7002 -70.0137q1.76465 -3.57227 4.12598 -10.7334q2.36133 -7.16211 5.02246 -12.624q2.66113 -5.46094 6.73926 -9.11035q59.4717 -10.041 92.2666 -30.3154
q32.7959 -20.2744 24.6562 -48.9668q-6.41699 -67.9297 -27.9932 -126.635q-21.5762 -58.7051 -58.1865 -129.272q-16.4893 -21.665 -69.5371 -32.083q-53.0498 -10.418 -114.315 -1.54395t-94.126 37.8281q-63.1201 125.743 -78.8223 258.538
q-3.38379 27.5107 31.1328 46.4229q34.5156 18.9121 93.3428 27.71q1.47949 1.51367 2.59082 2.9707q5.09766 9.2002 17 35.4502q11.9023 26.251 20.585 39.3994q9.08496 16.7324 25.0234 27.5303q15.9375 10.7959 34.1797 11.1064q1.49414 0.0605469 3.02734 0.0449219z
M261.295 475.415q-13.8418 -0.129883 -25.7607 -7.33301q-5.33301 -2.90234 -10.2822 -8.40918q-4.95117 -5.50586 -6.89551 -8.41016q-1.94531 -2.90332 -7.0332 -12.5459q-5.08984 -9.64062 -5.49316 -10.3711q-16.4209 -34.9316 -18.0273 -43.4287
q0.580078 0.0556641 2.51074 0.233398q8.0459 18.2051 16.5146 32.7139q23.4775 36.6143 51.3574 38.5146q26.8857 0.0634766 49.417 -33.8369q10.1963 -17.6582 19.2842 -38.3926q0.327148 -0.0361328 1.21289 -0.12793q0.886719 -0.0917969 1.36523 -0.145508
q-0.292969 9.39551 -12.7568 36.6016q-2.06348 3.72754 -7.23535 14.5176q-5.17285 10.79 -9.62109 17.7559q-4.44922 6.96582 -10.3486 12.3828q-11.3633 10.4414 -28.208 10.2812zM259.439 436.124q-10.9238 -0.0166016 -19.5068 -10.4004
q-12.54 -17.248 -23.5322 -38.7061q17.6318 0.919922 34.9541 0.969727q24.459 0.0703125 48.9512 -1.54785q-1.2334 2.37109 -6.00293 12.1299q-4.76758 9.76074 -7.12402 13.8193q-2.35645 4.05859 -7.42578 10.3271q-5.07129 6.26855 -10.7344 10.0918
q-4.19727 3.32422 -9.5791 3.31641zM251.297 367.729q-2.47949 0.00976562 -5.15137 -0.00976563q-21.7812 -0.483398 -39.793 -1.88965q-8.47852 -19.1826 -18.5811 -47.0615q65.2227 4.86035 141.205 -3.38184q-9.39844 27.9082 -18.2119 48.6436
q-30.4316 3.59961 -59.4678 3.69922zM181.242 363.231q-65.4014 -8.59473 -112.86 -37.459q-0.137695 -0.124023 -2.2334 -1.6709q-2.09668 -1.54688 -3.80762 -3.01758q-1.70996 -1.46875 -3.91113 -3.97168q-2.19922 -2.50391 -2.54395 -4.54004
q-0.344727 -2.03809 0.289062 -4.71973q2.47949 -4.53809 9.02441 -6.0625q6.54492 -1.52344 16.041 -0.294922q9.49609 1.22656 18.3613 3.1084q8.86621 1.88086 20.0146 4.53809q11.1484 2.65625 16.9707 3.60742q13.2705 2.16895 27.4941 3.79004
q14.0615 38.7275 17.1611 46.6924zM336.587 360.365q7.8252 -20.5527 16.3662 -47.8584q19.6875 -2.58887 40.5127 -6.03418q14.123 -2.84473 33.9062 -0.557617q19.7852 2.28809 24.5146 8.98535q4.11035 7.22363 -0.804688 12.0361q-10.9609 10.5869 -42.5479 17.5488
q-36.8906 10.1484 -71.9473 15.8799z" />
  </g>

</svg>
