<?xml version="1.0" standalone="no"?>
<!DOCTYPE svg PUBLIC "-//W3C//DTD SVG 1.1//EN" "http://www.w3.org/Graphics/SVG/1.1/DTD/svg11.dtd" >
<svg xmlns="http://www.w3.org/2000/svg" xmlns:xlink="http://www.w3.org/1999/xlink" version="1.1" viewBox="0 0 512 512">
  <g transform="matrix(1 0 0 -1 0 512)">
   <path fill="currentColor"
d="M256 85q70 0 120.5 50.5t50.5 120.5t-50.5 120.5t-120.5 50.5t-120.5 -50.5t-50.5 -120.5t50.5 -120.5t120.5 -50.5zM256 469q88 0 150.5 -62.5t62.5 -150.5t-62.5 -150.5t-150.5 -62.5t-150.5 62.5t-62.5 150.5t62.5 150.5t150.5 62.5zM253 317q-40 0 -40 -58v-6
q0 -58 40 -58q15 0 25 8.5t10 21.5h38q0 -25 -22 -44q-21 -18 -51 -18q-40 0 -61 24t-21 66v6q0 41 20 64q24 27 62 27q33 0 52 -19q21 -21 21 -49h-38q0 7 -3 13q-5 10 -7 12q-10 10 -25 10z" />
  </g>

</svg>
