<?xml version="1.0" standalone="no"?>
<!DOCTYPE svg PUBLIC "-//W3C//DTD SVG 1.1//EN" "http://www.w3.org/Graphics/SVG/1.1/DTD/svg11.dtd" >
<svg xmlns="http://www.w3.org/2000/svg" xmlns:xlink="http://www.w3.org/1999/xlink" version="1.1" viewBox="0 0 512 512">
  <g transform="matrix(1 0 0 -1 0 512)">
   <path fill="currentColor"
d="M405 491q17 0 30 -13t13 -30v-384q0 -17 -13 -30t-30 -13h-213q-17 0 -30 13t-13 30v64h43v-43h213v342h-213v-43h-43v64q0 17 13 30t30 13h213zM171 213q17 0 29.5 13t12.5 30t-12.5 30t-29.5 13t-30 -13t-13 -30t13 -30t30 -13zM252 245l23 -19q4 -4 2 -6l-21 -37
q-2 -2 -6 -2l-28 11q-14 -9 -19 -11l-5 -27q-5 -5 -6 -5h-43q-2 0 -3.5 2t-0.5 3l-4 27q-5 2 -19 11l-30 -9q-2 -2 -7 3l-21 36q0 4 2 8l24 17v22l-24 17q-4 4 -2 6l21 37q2 2 7 2l27 -11q13 9 20 11l4 27q5 5 6 5h43q6 0 6 -5l5 -27q5 -2 19 -11l28 9q2 1 6 -3l21 -36
q0 -4 -2 -6l-23 -17v-22z" />
  </g>

</svg>
