<?xml version="1.0" standalone="no"?>
<!DOCTYPE svg PUBLIC "-//W3C//DTD SVG 1.1//EN" "http://www.w3.org/Graphics/SVG/1.1/DTD/svg11.dtd" >
<svg xmlns="http://www.w3.org/2000/svg" xmlns:xlink="http://www.w3.org/1999/xlink" version="1.1" viewBox="0 0 512 512">
  <g transform="matrix(1 0 0 -1 0 512)">
   <path fill="currentColor"
d="M224.313 495.853q3.49902 -3.86426 8.68262 -9.93652q5.18359 -6.07324 13.8477 -18.8193t8.62598 -18.3652q-0.0458984 -6.98438 -8.67871 -22.1797q-8.63379 -15.1953 -17.2441 -26.8984l-8.60938 -11.7021q-0.599609 4.66406 -13.2129 22.3242
q-12.6143 17.6602 -13.1875 23.415q-0.561523 5.63184 12.5 27.4287q13.0615 21.7979 17.2764 34.7334zM286.955 393.258q32.9434 -0.866211 42.9609 -33.4307q10.0166 -32.5645 -8.07324 -72.2471t-56.4307 -58.1113q-22.1416 -10.6436 -69.1631 6.92871
q-47.0205 17.5732 -60.2334 18.084q-6.61621 -11.166 -13.9023 -39.624t-1.61426 -63.8145q5.6709 -35.3564 35.3594 -44.5889q10.2676 -3.19336 25.0381 0.53125t33.4551 13.958q18.6836 10.2344 34.3633 20.1113q15.6807 9.87695 38.0557 24.8145
q22.376 14.9365 34.2402 22.2412q41.1797 25.3545 51.46 22.6064q11.957 -3.19629 25.9121 -18.3164q2.69922 -2.9248 0.77832 -2.84277q-22.0068 0.941406 -43.6758 -10.7061q-21.6699 -11.6484 -51.5098 -37.4551t-35.9082 -30.2461q-2.36328 -1.72852 -18.8018 -14.2412
q-16.4395 -12.5127 -22.4482 -16.4287q-6.00879 -3.91504 -21.7949 -12.2227q-15.7852 -8.30762 -26.3408 -9.67383q-10.5547 -1.36719 -25.9551 -0.196289q-15.3994 1.16992 -30.1338 8.16211q-21.1494 10.0352 -26.0781 39.3594q-4.92969 29.3242 3.56348 64.3613
t14.9092 55.0684q6.41699 20.0312 10.7646 30.0615q-5.83691 0.49707 -15.8984 -4.11035q-10.0615 -4.60645 -17.0303 -7.99023q-6.96875 -3.38477 -7.52051 -0.932617q-1.71777 7.62695 21.0605 28.666t36.375 23.6875q18.8633 36.042 57.3389 66.7744
q38.4756 30.7314 83.6055 31.7119q2.74707 0.0576172 3.27246 0.0507812zM265.563 367.194q-30.8721 0.139648 -56.7471 -14.5293t-36.998 -28.4873t-18.8037 -28.626q23.7988 3.05469 41.875 -2.90137q5.78711 -1.90723 16.2607 -5.48828
q10.4746 -3.58008 17.1377 -5.79297q6.66406 -2.21289 15.9756 -5.1377q9.31152 -2.92383 15.8262 -4.44922q6.51562 -1.52539 13.4365 -2.73633q6.91992 -1.21191 12.0576 -0.994141q5.13867 0.21875 8.64258 1.71289q20.5645 8.76758 23.0117 32.2236
q2.44629 23.457 -11.2217 43.707t-33.7793 21.3066q-3.36523 0.175781 -6.67383 0.192383zM404.424 174.381q2.01953 -0.0126953 3.76758 -0.391602q5.20117 -1.12598 12.748 -8.00488q7.54688 -6.87793 10.1846 -13.0459q0.433594 -1.0127 -1.98926 -1.21387
q-2.42285 -0.202148 -7.92188 -0.861328t-12.3018 -2.43457q-6.80176 -1.77539 -16.5225 -7.20215t-19.1924 -13.8965q-3.875 -3.46582 -37.373 -36.0635t-56.1191 -49.9795q-22.6221 -17.3828 -39.1211 -20.7852q-31.7061 -6.54102 -71.4082 19.0361
q-4.81055 3.67676 -4.72168 4.60059q36.5293 -4.36719 66.7207 10.2344q30.1904 14.6016 69.5762 50.8545q75.3213 69.3301 103.674 69.1533z" />
  </g>

</svg>
