<?xml version="1.0" standalone="no"?>
<!DOCTYPE svg PUBLIC "-//W3C//DTD SVG 1.1//EN" "http://www.w3.org/Graphics/SVG/1.1/DTD/svg11.dtd" >
<svg xmlns="http://www.w3.org/2000/svg" xmlns:xlink="http://www.w3.org/1999/xlink" version="1.1" viewBox="0 0 512 512">
  <g transform="matrix(1 0 0 -1 0 512)">
   <path fill="currentColor"
d="M363 490q17 0 29.5 -12.5t12.5 -29.5v-363q0 -17 -12.5 -29.5t-29.5 -12.5h-45q-3 43 -20 85h65v277h-214v-128q-25 11 -42 14v157q0 17 12.5 30t29.5 13zM43 256q97 0 165.5 -68.5t68.5 -166.5h-42q0 79 -56.5 135.5t-135.5 56.5v43zM43 85q26 0 45 -19t19 -45h-64v64z
M43 171q62 0 105.5 -44t43.5 -106h-43q0 44 -31 75.5t-75 31.5v43z" />
  </g>

</svg>
