<?xml version="1.0" standalone="no"?>
<!DOCTYPE svg PUBLIC "-//W3C//DTD SVG 1.1//EN" "http://www.w3.org/Graphics/SVG/1.1/DTD/svg11.dtd" >
<svg xmlns="http://www.w3.org/2000/svg" xmlns:xlink="http://www.w3.org/1999/xlink" version="1.1" viewBox="0 0 512 512">
  <g transform="matrix(1 0 0 -1 0 512)">
   <path fill="currentColor"
d="M160 213h192q-12 -29 -38 -46.5t-58 -17.5t-58 17.5t-38 46.5zM256 107q51 0 90.5 30t52.5 77q1 0 3 -0.5t3 -0.5q17 0 30 13t13 30t-13 30t-30 13q-1 0 -3 -0.5t-3 -0.5q-13 47 -52.5 77t-90.5 30t-90.5 -30t-52.5 -77q-1 0 -3 0.5t-3 0.5q-17 0 -30 -13t-13 -30t13 -30
t30 -13q1 0 3 0.5t3 0.5q13 -47 52.5 -77t90.5 -30zM489 242q-4 -24 -20 -42.5t-39 -25.5q-22 -47 -69.5 -78.5t-104.5 -31.5t-104 31.5t-69 78.5q-23 7 -39.5 25.5t-20.5 42.5q-2 8 -2 14t2 14q4 24 20.5 42.5t39.5 25.5q17 38 46 62q54 48 127 48q58 0 104.5 -31t68.5 -79
q23 -7 39.5 -25.5t20.5 -42.5q2 -8 2 -14t-2 -14zM176 288q0 11 8 19t19 8t18.5 -8t7.5 -19t-7.5 -19t-18.5 -8t-19 8t-8 19zM283 288q0 11 7.5 19t18.5 8t19 -8t8 -19t-8 -19t-19 -8t-18.5 8t-7.5 19z" />
  </g>

</svg>
