<?xml version="1.0" standalone="no"?>
<!DOCTYPE svg PUBLIC "-//W3C//DTD SVG 1.1//EN" "http://www.w3.org/Graphics/SVG/1.1/DTD/svg11.dtd" >
<svg xmlns="http://www.w3.org/2000/svg" xmlns:xlink="http://www.w3.org/1999/xlink" version="1.1" viewBox="0 0 512 512">
  <g transform="matrix(1 0 0 -1 0 512)">
   <path fill="currentColor"
d="M384 169q26 0 44 -18.5t18 -43.5q0 -26 -18.5 -44.5t-43.5 -18.5t-43.5 18.5t-18.5 44.5q0 10 1 14l-151 88q-19 -17 -44 -17q-26 0 -45 19t-19 45t19 45t45 19q25 0 44 -17l150 87q-2 10 -2 15q0 26 19 45t45 19t45 -19t19 -45t-19 -45t-45 -19q-24 0 -44 18l-150 -88
q2 -10 2 -15t-2 -15l152 -88q18 16 42 16z" />
  </g>

</svg>
