<?xml version="1.0" standalone="no"?>
<!DOCTYPE svg PUBLIC "-//W3C//DTD SVG 1.1//EN" "http://www.w3.org/Graphics/SVG/1.1/DTD/svg11.dtd" >
<svg xmlns="http://www.w3.org/2000/svg" xmlns:xlink="http://www.w3.org/1999/xlink" version="1.1" viewBox="0 0 512 512">
  <g transform="matrix(1 0 0 -1 0 512)">
   <path fill="currentColor"
d="M256 149l-27 59l-58 27l58 26l27 59l27 -59l58 -26l-58 -27zM256 128q44 0 75.5 31.5t31.5 75.5t-31.5 75t-75.5 31t-75.5 -31t-31.5 -75t31.5 -75.5t75.5 -31.5zM192 448h128l39 -43h68q17 0 29.5 -12.5t12.5 -29.5v-256q0 -17 -12.5 -30t-29.5 -13h-342q-17 0 -29.5 13
t-12.5 30v256q0 17 12.5 29.5t29.5 12.5h68z" />
  </g>

</svg>
