<?xml version="1.0" standalone="no"?>
<!DOCTYPE svg PUBLIC "-//W3C//DTD SVG 1.1//EN" "http://www.w3.org/Graphics/SVG/1.1/DTD/svg11.dtd" >
<svg xmlns="http://www.w3.org/2000/svg" xmlns:xlink="http://www.w3.org/1999/xlink" version="1.1" viewBox="0 0 512 512">
  <g transform="matrix(1 0 0 -1 0 512)">
   <path fill="currentColor"
d="M163.957 358.863q18.418 0 31.4531 -13.0352t13.0352 -31.4531v0q0 -18.418 -13.0352 -31.4531t-31.4531 -13.0352v0q-18.418 0 -31.4531 13.0352t-13.0352 31.4531v0q0 18.418 13.0352 31.4531t31.4531 13.0352zM295.119 358.396q18.418 0 31.4531 -13.0352
t13.0352 -31.4531q-0.000976563 -18.417 -13.0352 -31.4521q-13.0352 -13.0342 -31.4531 -13.0342v0q-18.417 0 -31.4521 13.0342q-13.0352 13.0352 -13.0361 31.4521q0 18.418 13.0352 31.4531t31.4531 13.0352zM432.584 358.309q0.398438 0.00292969 0.792969 -0.0214844
q25.4824 -1.56641 34.9473 -25.2051t7.23828 -50.1543q-5.0127 -59.709 -70.1006 -106.527q-65.0869 -46.8193 -167.87 -46.7871q-105.284 0.0332031 -191.758 68.9395q-11.1885 8.91504 -9.62988 27.6406q1.375 16.5225 17.1416 8.22656q95.5352 -50.2715 184.494 -50.4629
q65.8271 -0.141602 130.053 22.9609q64.2266 23.1035 73.0195 44.5371q2.31738 5.64746 -1.74219 11.082t-7.90234 4.28125q-23.4131 -6.16699 -34.1123 -0.708008q-10.6992 5.45801 -13.3779 12.6406q-2.67969 7.18359 -0.449219 13.1885q9.44043 25.4111 23.5195 45.8447
q14.0781 20.4326 25.7363 20.5244z" />
  </g>

</svg>
