<?xml version="1.0" standalone="no"?>
<!DOCTYPE svg PUBLIC "-//W3C//DTD SVG 1.1//EN" "http://www.w3.org/Graphics/SVG/1.1/DTD/svg11.dtd" >
<svg xmlns="http://www.w3.org/2000/svg" xmlns:xlink="http://www.w3.org/1999/xlink" version="1.1" viewBox="0 0 512 512">
  <g transform="matrix(1 0 0 -1 0 512)">
   <path fill="currentColor"
d="M154.614 493.873h202.771q56.5078 0 96.2539 -39.7461t39.7461 -96.2539v-202.771q0 -56.5078 -39.7461 -96.2539t-96.2539 -39.7461h-202.771q-56.5078 0 -96.2539 39.7461t-39.7461 96.2539v202.771q0 56.5078 39.7461 96.2539t96.2539 39.7461zM154.144 449.344
q-37.8105 0 -64.4053 -26.5947q-26.5947 -26.5947 -26.5947 -64.4053v-203.713q0 -37.8105 26.5947 -64.4053q26.5947 -26.5947 64.4053 -26.5947h203.713q37.8105 0 64.4053 26.5947t26.5947 64.4053v203.713q0 37.8105 -26.5947 64.4053
q-26.5947 26.5947 -64.4053 26.5947h-203.713zM381.562 411.857q12.124 0 20.7041 -8.58105q8.58105 -8.58008 8.58105 -20.7041q0 -12.125 -8.58105 -20.7061q-8.58008 -8.58105 -20.7041 -8.58105q-12.125 0 -20.7061 8.58105q-8.58105 8.58105 -8.58105 20.7051
q0 12.125 8.58105 20.7051q8.58105 8.58105 20.7061 8.58105zM255.999 378.986q50.7148 0 86.6074 -35.8926q35.8926 -35.8926 35.8926 -86.6074t-35.8926 -86.6074q-35.8926 -35.8926 -86.6074 -35.8926t-86.6074 35.8926q-35.8926 35.8926 -35.8926 86.6074
t35.8926 86.6074q35.8926 35.8926 86.6074 35.8926zM255.999 335.771q-32.8232 0 -56.0547 -23.2305q-23.2305 -23.2314 -23.2305 -56.0547t23.2305 -56.0547q23.2314 -23.2305 56.0547 -23.2305q32.8232 0 56.0547 23.2305q23.2305 23.2314 23.2305 56.0547
t-23.2305 56.0547q-23.2314 23.2305 -56.0547 23.2305z" />
  </g>

</svg>
