<?xml version="1.0" standalone="no"?>
<!DOCTYPE svg PUBLIC "-//W3C//DTD SVG 1.1//EN" "http://www.w3.org/Graphics/SVG/1.1/DTD/svg11.dtd" >
<svg xmlns="http://www.w3.org/2000/svg" xmlns:xlink="http://www.w3.org/1999/xlink" version="1.1" viewBox="0 0 512 512">
  <g transform="matrix(1 0 0 -1 0 512)">
   <path fill="currentColor"
d="M427 341v86h-86v-86h86zM427 213v86h-86v-86h86zM427 85v86h-86v-86h86zM299 341v86h-86v-86h86zM299 213v86h-86v-86h86zM299 85v86h-86v-86h86zM171 341v86h-86v-86h86zM171 213v86h-86v-86h86zM171 85v86h-86v-86h86zM427 469q17 0 29.5 -12.5t12.5 -29.5v-342
q0 -17 -12.5 -29.5t-29.5 -12.5h-342q-17 0 -29.5 12.5t-12.5 29.5v342q0 17 12.5 29.5t29.5 12.5h342z" />
  </g>

</svg>
