<?xml version="1.0" standalone="no"?>
<!DOCTYPE svg PUBLIC "-//W3C//DTD SVG 1.1//EN" "http://www.w3.org/Graphics/SVG/1.1/DTD/svg11.dtd" >
<svg xmlns="http://www.w3.org/2000/svg" xmlns:xlink="http://www.w3.org/1999/xlink" version="1.1" viewBox="0 0 512 512">
  <g transform="matrix(1 0 0 -1 0 512)">
   <path fill="currentColor"
d="M363 149v214h-214v-214h214zM448 277h-43v-42h43v-43h-43v-43q0 -17 -12.5 -29.5t-29.5 -12.5h-43v-43h-43v43h-42v-43h-43v43h-43q-17 0 -29.5 12.5t-12.5 29.5v43h-43v43h43v42h-43v43h43v43q0 17 12.5 29.5t29.5 12.5h43v43h43v-43h42v43h43v-43h43q17 0 29.5 -12.5
t12.5 -29.5v-43h43v-43zM277 235v42h-42v-42h42zM320 320v-128h-128v128h128z" />
  </g>

</svg>
