<?xml version="1.0" standalone="no"?>
<!DOCTYPE svg PUBLIC "-//W3C//DTD SVG 1.1//EN" "http://www.w3.org/Graphics/SVG/1.1/DTD/svg11.dtd" >
<svg xmlns="http://www.w3.org/2000/svg" xmlns:xlink="http://www.w3.org/1999/xlink" version="1.1" viewBox="0 0 512 512">
  <g transform="matrix(1 0 0 -1 0 512)">
   <path fill="currentColor"
d="M448 171v32q0 13 -9 22.5t-23 9.5t-23 -9.5t-9 -22.5v-32h64zM469 171q9 0 15.5 -6.5t6.5 -15.5v-85q0 -9 -6.5 -15t-15.5 -6h-106q-9 0 -15.5 6t-6.5 15v85q0 9 6.5 15.5t15.5 6.5v32q0 22 15.5 37.5t37.5 15.5t37.5 -15.5t15.5 -37.5v-32zM416 299q-40 0 -68 -28
t-28 -68v-6q-21 -19 -21 -48v-64h-278l406 406v-193q-2 0 -5.5 0.5t-5.5 0.5z" />
  </g>

</svg>
