<?xml version="1.0" standalone="no"?>
<!DOCTYPE svg PUBLIC "-//W3C//DTD SVG 1.1//EN" "http://www.w3.org/Graphics/SVG/1.1/DTD/svg11.dtd" >
<svg xmlns="http://www.w3.org/2000/svg" xmlns:xlink="http://www.w3.org/1999/xlink" version="1.1" viewBox="0 0 512 512">
  <g transform="matrix(1 0 0 -1 0 512)">
   <path fill="currentColor"
d="M352 384h32v-245q0 -49 -34 -83.5t-83 -34.5t-83.5 34.5t-34.5 83.5v266q0 35 25.5 60.5t60.5 25.5t60 -25.5t25 -60.5v-224q0 -22 -15.5 -37.5t-37.5 -15.5t-38 15.5t-16 37.5v203h32v-203q0 -9 6.5 -15t15.5 -6t15 6t6 15v224q0 22 -15.5 38t-37.5 16t-38 -16t-16 -38
v-266q0 -35 25.5 -60.5t60.5 -25.5t60 25.5t25 60.5v245z" />
  </g>

</svg>
