<?xml version="1.0" standalone="no"?>
<!DOCTYPE svg PUBLIC "-//W3C//DTD SVG 1.1//EN" "http://www.w3.org/Graphics/SVG/1.1/DTD/svg11.dtd" >
<svg xmlns="http://www.w3.org/2000/svg" xmlns:xlink="http://www.w3.org/1999/xlink" version="1.1" viewBox="0 0 512 512">
  <g transform="matrix(1 0 0 -1 0 512)">
   <path fill="currentColor"
d="M363 107v298h-214v-298h214zM363 491q17 0 29.5 -13t12.5 -30v-384q0 -17 -12.5 -30t-29.5 -13h-214q-17 0 -29.5 13t-12.5 30v384q0 17 12.5 30t29.5 13h214zM230 299v-22h52v22q0 10 -7.5 17.5t-18.5 7.5t-18.5 -7.5t-7.5 -17.5zM213 171q-9 0 -15 6t-6 15v64q0 9 6 15
t15 6v22q0 17 12.5 29.5t30.5 12.5t30.5 -12t12.5 -30v-22q9 0 15 -6t6 -15v-64q0 -9 -6 -15t-15 -6h-86z" />
  </g>

</svg>
