<?xml version="1.0" standalone="no"?>
<!DOCTYPE svg PUBLIC "-//W3C//DTD SVG 1.1//EN" "http://www.w3.org/Graphics/SVG/1.1/DTD/svg11.dtd" >
<svg xmlns="http://www.w3.org/2000/svg" xmlns:xlink="http://www.w3.org/1999/xlink" version="1.1" viewBox="0 0 512 512">
  <g transform="matrix(1 0 0 -1 0 512)">
   <path fill="currentColor"
d="M256 320v-128q26 0 45 19t19 45t-19 45t-45 19zM171 171v53l-32 32l32 32v53h53l32 32l32 -32h53v-53l32 -32l-32 -32v-53h-53l-32 -32l-32 32h-53zM448 106v300h-384v-300h384zM448 448q17 0 30 -13t13 -30v-298q0 -17 -13 -30t-30 -13h-384q-17 0 -30 13t-13 30v298
q0 17 13 30t30 13h384z" />
  </g>

</svg>
