<?xml version="1.0" standalone="no"?>
<!DOCTYPE svg PUBLIC "-//W3C//DTD SVG 1.1//EN" "http://www.w3.org/Graphics/SVG/1.1/DTD/svg11.dtd" >
<svg xmlns="http://www.w3.org/2000/svg" xmlns:xlink="http://www.w3.org/1999/xlink" version="1.1" viewBox="0 0 512 512">
  <g transform="matrix(1 0 0 -1 0 512)">
   <path fill="currentColor"
d="M256.553 484.213q6.64286 -0.170804 13.3418 -4.08203l98.7422 -58.5332q15.6065 -9.21275 19.6675 -20.3616q4.06099 -11.1489 4.06099 -36.3161v-33.4141l-134.957 77.207q-6.06226 4.49285 -8.98035 3.39514q-2.91809 -1.09771 -2.91809 -11.4928v-85.0586
q-29.8889 -3.65701 -51.0605 -27.5558t-21.1973 -54.0106q0.0424566 -17.8017 7.44336 -33.9941l-60.6133 -34.6094v217.846q0.0550527 25.3897 20.0664 36.9648l102.365 60.2324q7.04341 3.96308 14.0391 3.7832zM264.135 385.715l188.66 -108.922
q21.9598 -12.7423 21.9785 -35.8594l0.980469 -118.768q-0.173714 -15.6996 -13.9492 -23.5645l-100.062 -56.2461q-18.6072 -8.41147 -28.8795 -6.60291q-10.2723 1.80857 -32.0677 14.392l-28.9395 16.709l134.342 78.2715q7.08516 3.98984 7.43091 6.07996
q0.345744 2.09011 -8.49341 8.27356l-73.8965 42.6641q6.46341 15.2694 6.50586 31.8477q-0.0322265 30.7375 -21.6984 54.687q-21.6661 23.9495 -52.247 27.0513zM104.654 303.834l0.615234 -155.479q-0.0870836 -8.1309 1.54944 -9.47473
q1.63652 -1.34383 11.4115 3.21887l72.2363 41.7051q10.2027 -13.2466 29.2568 -22.6398q19.0541 -9.39317 35.7745 -9.4188q17.7883 0.0249023 37.5538 10.3864q19.7655 10.3615 29.9052 24.9769l61.7012 -36.0195l-188.66 -108.922q-22.0177 -12.6472 -42.0449 -1.10547
l-103.346 58.5352q-13.5106 8.00128 -13.4336 23.8613l1.32227 114.781q0.17571 18.1216 7.80029 27.2124q7.62458 9.09075 29.4204 21.6744zM256.096 300.305q27.4541 0 46.8843 -19.4302t19.4302 -46.8843q-0.000732421 -27.4534 -19.4309 -46.8829t-46.8836 -19.4296v0
q-27.4534 0 -46.8836 19.4296q-19.4302 19.4296 -19.4309 46.8829q0 27.4541 19.4302 46.8843t46.8843 19.4302z" />
  </g>

</svg>
