<?xml version="1.0" standalone="no"?>
<!DOCTYPE svg PUBLIC "-//W3C//DTD SVG 1.1//EN" "http://www.w3.org/Graphics/SVG/1.1/DTD/svg11.dtd" >
<svg xmlns="http://www.w3.org/2000/svg" xmlns:xlink="http://www.w3.org/1999/xlink" version="1.1" viewBox="0 0 512 512">
  <g transform="matrix(1 0 0 -1 0 512)">
   <path fill="currentColor"
d="M277 149q-9 0 -15 6.5t-6 15.5t6 15t15 6t15.5 -6t6.5 -15t-6.5 -15.5t-15.5 -6.5zM277 235q-9 0 -15 6t-6 15t6 15t15 6t15.5 -6t6.5 -15t-6.5 -15t-15.5 -6zM277 320q-9 0 -15 6t-6 15t6 15.5t15 6.5t15.5 -6.5t6.5 -15.5t-6.5 -15t-15.5 -6zM363 245q-11 0 -11 11
t11 11q10 0 10 -11t-10 -11zM363 331q-11 0 -11 10q0 11 11 11q10 0 10 -11q0 -10 -10 -10zM64 448h384v-43h-384v43zM363 160q-11 0 -11 11q0 10 11 10q10 0 10 -10q0 -11 -10 -11zM192 149q-9 0 -15 6.5t-6 15.5t6 15t15 6t15 -6t6 -15t-6 -15.5t-15 -6.5zM107 224
q-13 0 -22.5 9t-9.5 23t9.5 23t22.5 9t22.5 -9t9.5 -23t-9.5 -23t-22.5 -9zM107 309q-13 0 -22.5 9.5t-9.5 22.5t9.5 22.5t22.5 9.5t22.5 -9.5t9.5 -22.5t-9.5 -22.5t-22.5 -9.5zM64 64v43h384v-43h-384zM192 320q-9 0 -15 6t-6 15t6 15.5t15 6.5t15 -6.5t6 -15.5t-6 -15
t-15 -6zM192 235q-9 0 -15 6t-6 15t6 15t15 6t15 -6t6 -15t-6 -15t-15 -6zM107 139q-13 0 -22.5 9.5t-9.5 22.5t9.5 22.5t22.5 9.5t22.5 -9.5t9.5 -22.5t-9.5 -22.5t-22.5 -9.5z" />
  </g>

</svg>
