<?xml version="1.0" standalone="no"?>
<!DOCTYPE svg PUBLIC "-//W3C//DTD SVG 1.1//EN" "http://www.w3.org/Graphics/SVG/1.1/DTD/svg11.dtd" >
<svg xmlns="http://www.w3.org/2000/svg" xmlns:xlink="http://www.w3.org/1999/xlink" version="1.1" viewBox="0 0 512 512">
  <g transform="matrix(1 0 0 -1 0 512)">
   <path fill="currentColor"
d="M405 85v342h-42v-64h-214v64h-42v-342h298zM256 469q-9 0 -15 -6t-6 -15t6 -15t15 -6t15 6t6 15t-6 15t-15 6zM405 469q17 0 30 -12.5t13 -29.5v-342q0 -17 -13 -29.5t-30 -12.5h-298q-17 0 -30 12.5t-13 29.5v342q0 17 13 29.5t30 12.5h89q7 19 23 31t37 12t37 -12
t23 -31h89z" />
  </g>

</svg>
