<?xml version="1.0" standalone="no"?>
<!DOCTYPE svg PUBLIC "-//W3C//DTD SVG 1.1//EN" "http://www.w3.org/Graphics/SVG/1.1/DTD/svg11.dtd" >
<svg xmlns="http://www.w3.org/2000/svg" xmlns:xlink="http://www.w3.org/1999/xlink" version="1.1" viewBox="0 0 512 512">
  <g transform="matrix(1 0 0 -1 0 512)">
   <path fill="currentColor"
d="M224 192l-48 64l-37 -48l-27 32l-37 -48h149zM256 320v-128q0 -17 -13 -30t-30 -13h-128q-17 0 -29.5 13t-12.5 30v128q0 17 12.5 30t29.5 13h128q17 0 30 -13t13 -30zM299 149v43h170v-43h-170zM469 363v-43h-170v43h170zM469 235h-170v42h170v-42z" />
  </g>

</svg>
