<?xml version="1.0" standalone="no"?>
<!DOCTYPE svg PUBLIC "-//W3C//DTD SVG 1.1//EN" "http://www.w3.org/Graphics/SVG/1.1/DTD/svg11.dtd" >
<svg xmlns="http://www.w3.org/2000/svg" xmlns:xlink="http://www.w3.org/1999/xlink" version="1.1" viewBox="0 0 512 512">
  <g transform="matrix(1 0 0 -1 0 512)">
   <path fill="currentColor"
d="M299 395q0 22 15.5 37.5t37.5 15.5t37.5 -15.5t15.5 -37.5t-15.5 -38t-37.5 -16t-37.5 16t-15.5 38zM185 256q-12 0 -25 8q-4 3 -16 8l69 69l-21 22q-32 32 -85 32v53q41 0 67 -9.5t50 -33.5l137 -136q-6 -4 -9 -5q-13 -8 -25 -8q-11 0 -24 8q-22 13 -47 13t-47 -13
q-13 -8 -24 -8zM469 160q-23 0 -46 14q-11 7 -25 7q-13 0 -24 -7q-23 -14 -47 -14q-23 0 -46 14q-11 7 -25 7q-13 0 -24 -7q-23 -14 -47 -14q-23 0 -46 14q-11 7 -25 7q-13 0 -24 -7q-23 -14 -47 -14v43q13 0 24 7q23 14 47 14q23 0 46 -14q11 -7 25 -7q13 0 24 7
q23 14 47 14q23 0 46 -14q11 -7 25 -7q13 0 24 7q23 14 47 14q23 0 46 -14q11 -7 25 -7v-43zM469 64q-23 0 -46 14q-11 7 -25 7q-13 0 -24 -7q-23 -14 -47 -14q-23 0 -46 14q-11 7 -25 7q-13 0 -24 -7q-23 -14 -47 -14t-47 14q-11 7 -24 7q-14 0 -25 -7q-23 -14 -46 -14v43
q13 0 24 7q23 14 47 14q23 0 46 -14q11 -7 25 -7q13 0 24 7q23 14 47 14t47 -14q11 -7 24 -7q14 0 25 7q23 14 46 14q24 0 47 -14q11 -7 24 -7v-43z" />
  </g>

</svg>
