<?xml version="1.0" standalone="no"?>
<!DOCTYPE svg PUBLIC "-//W3C//DTD SVG 1.1//EN" "http://www.w3.org/Graphics/SVG/1.1/DTD/svg11.dtd" >
<svg xmlns="http://www.w3.org/2000/svg" xmlns:xlink="http://www.w3.org/1999/xlink" version="1.1" viewBox="0 0 512 512">
  <g transform="matrix(1 0 0 -1 0 512)">
   <path fill="currentColor"
d="M166.714 412.395q76.2207 -0.133789 116.904 -57.5439q-35.4766 -23.6562 -49.6699 -65.3818q-13.2305 50.418 -67.0498 50.4512q-31.1807 0 -53.2285 -22.0479q-22.0488 -22.0479 -22.0488 -53.2285q0 -31.2822 21.9326 -53.6436q21.9346 -22.3604 53.0156 -22.3604
q19.1484 0.0146484 34.9336 8.32227q11.4424 -12.2178 -10.7148 -39.21q41.501 29.2354 51.6846 106.381q6.07422 45.9902 47.4551 75.5039q36.9404 26.3457 78.5215 26.4346q53.0752 0 90.6064 -37.5312q37.5303 -37.5322 37.5303 -90.6084t-37.5303 -90.6064
q-37.5312 -37.5303 -90.6064 -37.5303q-53.3477 0.0839844 -84.6904 31.8301q31.8516 29.1738 42.9941 71.7959q10.0732 -27.0449 41.6963 -27.043q21.1992 0 36.1885 14.9912q14.9912 14.9912 14.9893 36.1895q0 21.1992 -14.9893 36.1904
q-14.9893 14.9893 -36.1885 14.9893q-6.72363 0 -13.249 -1.73828q-5.29492 13.0801 10.6328 37.791q-40.6152 -27.8809 -46.6309 -74.1582q-8.21582 -63.1631 -44.6855 -97.0928q-46.998 -43.7266 -107.803 -43.7451q-62.6709 0 -106.985 44.3145t-44.3145 106.985
q0 62.6709 44.3145 106.985t106.985 44.3145z" />
  </g>

</svg>
