<?xml version="1.0" standalone="no"?>
<!DOCTYPE svg PUBLIC "-//W3C//DTD SVG 1.1//EN" "http://www.w3.org/Graphics/SVG/1.1/DTD/svg11.dtd" >
<svg xmlns="http://www.w3.org/2000/svg" xmlns:xlink="http://www.w3.org/1999/xlink" version="1.1" viewBox="0 0 512 512">
  <g transform="matrix(1 0 0 -1 0 512)">
   <path fill="currentColor"
d="M363 235v-43h-128v85q0 18 12.5 30.5t29.5 12.5h43v43h-85v42h85q18 0 30.5 -12t12.5 -30v-43q0 -18 -13 -30.5t-30 -12.5h-43v-42h86zM448 149v299h-299v-299h299zM448 491q17 0 30 -13t13 -30v-299q0 -17 -13 -29.5t-30 -12.5h-299q-17 0 -29.5 12.5t-12.5 29.5v299
q0 17 12.5 30t29.5 13h299zM64 405v-341h341v-43h-341q-17 0 -30 13t-13 30v341h43z" />
  </g>

</svg>
