<?xml version="1.0" standalone="no"?>
<!DOCTYPE svg PUBLIC "-//W3C//DTD SVG 1.1//EN" "http://www.w3.org/Graphics/SVG/1.1/DTD/svg11.dtd" >
<svg xmlns="http://www.w3.org/2000/svg" xmlns:xlink="http://www.w3.org/1999/xlink" version="1.1" viewBox="0 0 512 512">
  <g transform="matrix(1 0 0 -1 0 512)">
   <path fill="currentColor"
d="M405 277v128h-298v-128h42v-42h43v-43h43v43h42v-43h43v43h43v42h42zM363 128v43h-43v-43h43zM277 128v43h-42v-43h42zM192 128v43h-43v-43h43zM405 448q17 0 30 -13t13 -30v-298q0 -17 -13 -30t-30 -13h-298q-17 0 -30 13t-13 30v298q0 17 13 30t30 13h298zM149 320h43
v-43h-43v43zM320 320h43v-43h-43v43zM235 320h42v-43h43v-42h-43v42h-42v-42h-43v42h43v43zM363 235v-43h42v43h-42zM149 235h-42v-43h42v43z" />
  </g>

</svg>
