<?xml version="1.0" standalone="no"?>
<!DOCTYPE svg PUBLIC "-//W3C//DTD SVG 1.1//EN" "http://www.w3.org/Graphics/SVG/1.1/DTD/svg11.dtd" >
<svg xmlns="http://www.w3.org/2000/svg" xmlns:xlink="http://www.w3.org/1999/xlink" version="1.1" viewBox="0 0 512 512">
  <g transform="matrix(1 0 0 -1 0 512)">
   <path fill="currentColor"
d="M368 186q16 16 16 38t-15.5 37.5t-37.5 15.5q-23 0 -38 -15l-16 -16l-15 16q-15 15 -38 15q-22 0 -37.5 -15.5t-15.5 -37.5q0 -23 15 -38l91 -91zM117 363q13 0 22.5 9.5t9.5 22.5t-9.5 22.5t-22.5 9.5t-22.5 -9.5t-9.5 -22.5t9.5 -22.5t22.5 -9.5zM457 265
q12 -12 12 -30t-12 -30l-150 -150q-12 -12 -30 -12t-30 12l-192 192q-12 12 -12 30v150q0 17 12.5 29.5t29.5 12.5h150q18 0 30 -12z" />
  </g>

</svg>
