<?xml version="1.0" standalone="no"?>
<!DOCTYPE svg PUBLIC "-//W3C//DTD SVG 1.1//EN" "http://www.w3.org/Graphics/SVG/1.1/DTD/svg11.dtd" >
<svg xmlns="http://www.w3.org/2000/svg" xmlns:xlink="http://www.w3.org/1999/xlink" version="1.1" viewBox="0 0 512 512">
  <g transform="matrix(1 0 0 -1 0 512)">
   <path fill="currentColor"
d="M256 320q-52 0 -98 -15v-66q0 -15 -12 -20q-32 -15 -57 -39q-6 -6 -15 -6t-15 6l-53 53q-6 6 -6 15t6 15q105 100 250 100t250 -100q6 -6 6 -15t-6 -15l-53 -53q-6 -6 -15 -6t-15 6q-25 24 -57 39q-12 5 -12 19v66q-50 16 -98 16z" />
  </g>

</svg>
