<?xml version="1.0" standalone="no"?>
<!DOCTYPE svg PUBLIC "-//W3C//DTD SVG 1.1//EN" "http://www.w3.org/Graphics/SVG/1.1/DTD/svg11.dtd" >
<svg xmlns="http://www.w3.org/2000/svg" xmlns:xlink="http://www.w3.org/1999/xlink" version="1.1" viewBox="0 0 512 512">
  <g transform="matrix(1 0 0 -1 0 512)">
   <path fill="currentColor"
d="M254.179 492.625q27.3984 -35.9619 35.1016 -69.8027q-7.3125 -4.10059 -14.4492 -9.16504q-7.13672 -5.06348 -16.2607 -13.2158q-9.12305 -8.15137 -13.4043 -12.0928q-4.28125 -3.94043 -16.1416 -15.6074q-11.8613 -11.667 -14.2129 -13.9502
q-8.52051 31.4453 -31.8086 56.6543q33.9014 43.5703 71.1758 77.1797zM408.544 462.711q-4.77832 -59.2354 -24.0488 -109.502q-27.5039 0.885742 -98.9824 -20.0117q13.4805 44.3096 9.42773 87.5664q60.9902 30.2881 113.604 41.9473zM123.591 434.523
q29.1484 -4.68945 53.5918 -20.0723q-18.8867 -27.4023 -32.9707 -74.1875q-20.4102 16.7783 -45.9746 19.1465q12.54 48.4619 25.3535 75.1133zM287.636 412.533q2.43262 -32.6836 -11.8652 -83.1504q-26.5859 -11.4688 -55.3398 -32.8242q2.08008 24.6982 -4.51172 51.625
q39.2539 42.7676 71.7168 64.3496zM181.239 405.988q17.0342 -17.6572 27.2793 -55.918q-18.0488 -21.6514 -32.3926 -48.6309q-6.46094 14.2578 -25.3516 32.8965q12.8828 42.1016 30.4648 71.6523zM92.7764 355.189q-5.17676 -25.209 1.3125 -61.0117
q-27.6768 0.232422 -42.8809 -9.25977q-6.08008 29.9775 -4.12891 58.3281q31.167 11.7275 45.6973 11.9434zM100.192 351.086q19.2695 -2.52051 41.8418 -19.6328q-5.33008 -23.1924 -5.5293 -49.4883q-16.2549 8.58008 -34.0254 10.7012
q-5.55859 31.6602 -2.28711 58.4199zM387.138 349.176q47.0059 -2.60742 108.271 -26.6387q-2.86133 -3.30078 -11.834 -13.7852q-8.97168 -10.4844 -12.8467 -14.8818t-12.6055 -13.8145q-8.73145 -9.41699 -15.4492 -15.8066q-6.71875 -6.39062 -16.748 -15.2881
t-20.8428 -17.4785q-24.6602 19.6338 -80.3691 33.7832q43.4502 44.4082 62.4238 83.9102zM376.177 345.316q-14.5088 -27.7051 -61.3926 -78.4609q-32.249 3.94824 -61.3379 -0.273438q16.1064 23.5469 28.7207 56.9414q58.3643 20.6904 94.0098 21.793zM210.319 341.059
q5.1416 -29.2441 1.91406 -54.4297q-10.3457 -8.83594 -28.0469 -32.7422q0.799805 15.9844 -6.21094 36.0391q13.8027 25.5566 32.3438 51.1328zM148.468 326.674q18.3232 -18.5518 24.8477 -37.7754q-4.17383 -10.6084 -8.91211 -36.4336
q-12.4727 16.7988 -20.918 22.2949q-0.0351562 25.3506 4.73633 51.7441l0.15625 -0.128906zM273.394 320.42q-12.8193 -32.4424 -31.9219 -58.8262q-18.7705 -4.27832 -38.6934 -15.6953q8.56445 17.1748 13.0957 38.4785q29.041 21.9404 57.2402 35.9434zM96.2705 285.924
q2.35938 -14.5469 14.0039 -37.0996q-17.29 -1.40137 -32.4277 -8.53516q-13.1504 18.2861 -21.1895 38.4922q11.207 6.31445 39.6133 7.14258zM103.69 285.334q17.3906 -2.52441 35.6328 -12.9004q2.3584 -16.4775 9.26172 -32.7129q-18.2852 7.06934 -29.5098 7.31836
q-10.8584 20.8574 -15.3848 38.2949zM48.3643 278.002q5.91797 -19.249 22.1445 -41.2969q-18.9678 -9.20605 -32.2832 -26.3008q-14.1504 19.1709 -21.6348 37.9219q20.5186 23.4805 31.7734 29.6758zM284.991 261.369q10.6514 -0.0439453 23.6113 -0.974609
q-15.2051 -13.4482 -56.791 -38.6797q-13.1777 5.21875 -40.3945 6.09375q18.5596 12.5674 32.5664 30.1953q20.6162 3.44922 41.0078 3.36523zM316.88 258.451q45.8584 -7.64453 78.5547 -29.7324q-22.792 -15.6162 -88.2266 -38.4453q-25.5762 21.1357 -44.5645 29.582
q35.0977 20.5977 54.2363 38.5957zM118.269 242.289q5.1875 -7.01367 20.416 -20.1641q-12.9648 -1.16504 -27.2871 -9.26367q-15.3506 8.35156 -29.1543 21.5605q14.9424 6.59375 36.0254 7.86719zM76.2861 230.428q11.7539 -12.1338 25.1699 -20.0176
q-13.6514 -10.1865 -24.2891 -22.9043q-18.4951 7.58105 -31.4668 19.2656q11.7207 14.293 30.5859 23.6562zM405.048 225.691q30.9424 -28.5518 47.9824 -72.0938q-51.6104 -20.7344 -104.301 -31.7129q-1.2207 6.03906 -3.39746 11.834q-2.17676 5.7959 -7.01855 13.7363
q-4.8418 7.94141 -6.69238 10.9199t-9.49707 13.6699q-7.64648 10.6904 -8.35547 11.6992q54.7637 17.4814 91.2793 41.9473zM250.288 217.445q22.8281 -9.45703 48.7109 -29.4512q-31.0703 -6.55957 -61.7285 -5.76953q-10.2148 15.0176 -26.8223 24.084
q25.0957 4.0791 39.8398 11.1367zM110.79 208.559q9.3418 -3.86523 28.5254 -5.29492q-9.66406 -5.89258 -21.1016 -20.9785q-18.1299 -1.89258 -34.1992 2.37109q10.6084 12.2305 26.7754 23.9023zM38.4189 202.771q11.0039 -12.6934 32.9375 -21.6328
q-11.8643 -17.3242 -17.0195 -37.8945q-18.7656 9.42969 -31.6094 21.4766q7.75488 25.8008 15.6914 38.0508zM198.446 189.004q17.1934 -8.73047 36.3418 -10.2539q10.7334 -17.0967 17.8184 -44.5879q-29.8633 10.5176 -44.7715 21.7715
q-2.11914 18.8057 -9.38867 33.0703zM146.874 187.225q-6.57129 -13.96 -8.78516 -29.0684q-15.6934 -8.96484 -32.2402 -14.8477q3.12207 13.0303 12.9863 34.4785q14.7939 2.74023 28.0391 9.4375zM304.679 182q25.5205 -29.4053 35.0859 -57.2539
q-35.5723 -3.36426 -79.5371 7.35547q-4.97266 26.3867 -14.8984 43.0137q27.4854 -0.296875 59.3496 6.88477zM180.87 179.645q9.77637 -15.5742 22.9609 -25.7324q-0.455078 -16.4629 -7.59375 -41.4043q-17.3516 21.1484 -23.748 34.2949q7.4541 14.0322 8.38086 32.8418
zM162.171 178.807q0.755859 -18.2451 5.98633 -30.9004q-6.64746 -12.7842 -23.1152 -29.0273q-4.20801 21.4658 -3.51953 36.5371q13.0117 10.5732 20.6484 23.3906zM79.3506 178.635q14.6748 -4.85254 30.2109 -4.15234q-8.62793 -18.9951 -11.373 -32.9844
q-17.167 -2.05664 -35.457 1.88281q4.83398 17.7256 16.6191 35.2539zM134.36 148.02q-0.227539 -13.5439 4.64062 -34.8867q-15.2461 -13.0488 -34.5918 -19.5293q-3.90918 20.7549 0.347656 41.9277q15.6719 4.99023 29.6035 12.4883zM210.456 145.402
q12.1924 -8.38867 43.9688 -19.3438q2.54004 -12.8477 1.89844 -25.7285q-0.616211 -17.3545 -5.0918 -29.8555q-24.3887 10.916 -49.5723 35.5762q8.27539 28.9844 8.79688 39.3516zM57.4307 136.734q14.5498 -5.99512 38.5156 -3.44336q-4.2373 -21.3047 1.16016 -44.6582
q-27.667 1.64062 -38.3301 5.32812q-3.13086 18.8877 -1.3457 42.7734zM170.021 136.49q5.56641 -10.4785 23.8105 -32.1484q-9.49219 -23.291 -26.0684 -38.6914q-15.8848 23.2598 -21.0586 45.0156q17.7686 16.3193 23.3164 25.8242zM263.366 122.807
q40.8838 -10.542 81.4395 -5.60938q2.91895 -38.8779 -7.98047 -68.4902q-38.6963 2.72852 -79.0723 16.082q5.80176 13.8262 6.56445 35.2559q0.452148 12.7061 -0.951172 22.7617zM140.038 103.354q5.36035 -20.2031 23.3633 -45.5547q-23.8086 -12.3418 -40.002 -16.1875
q-12.1309 15.918 -21.1523 42.9199q21.2324 5.23242 37.791 18.8223zM199.479 96.7148q22.9141 -23.1172 52.0059 -35.1074q-14.9844 -23.9326 -34.6992 -41.6641q-28.5566 20.3564 -46.6875 37.2617q18.4395 13.5098 29.3809 39.5098z" />
  </g>

</svg>
