<?xml version="1.0" standalone="no"?>
<!DOCTYPE svg PUBLIC "-//W3C//DTD SVG 1.1//EN" "http://www.w3.org/Graphics/SVG/1.1/DTD/svg11.dtd" >
<svg xmlns="http://www.w3.org/2000/svg" xmlns:xlink="http://www.w3.org/1999/xlink" version="1.1" viewBox="0 0 512 512">
  <g transform="matrix(1 0 0 -1 0 512)">
   <path fill="currentColor"
d="M107 235h298l-32 96h-234zM373 128q13 0 22.5 9t9.5 23t-9.5 23t-22.5 9t-22.5 -9t-9.5 -23t9.5 -23t22.5 -9zM139 128q13 0 22.5 9t9.5 23t-9.5 23t-22.5 9t-22.5 -9t-9.5 -23t9.5 -23t22.5 -9zM404 341l44 -128v-170q0 -9 -6 -15.5t-15 -6.5h-22q-9 0 -15 6.5t-6 15.5
v21h-256v-21q0 -9 -6 -15.5t-15 -6.5h-22q-9 0 -15 6.5t-6 15.5v170l44 128q7 22 31 22h234q24 0 31 -22zM149 405q-13 0 -22.5 9.5t-9.5 22.5q0 9 8 23.5t16 24.5l8 10q32 -37 32 -58q0 -13 -9.5 -22.5t-22.5 -9.5zM256 405q-14 0 -23 9.5t-9 22.5q0 9 8 23.5t16 24.5l8 10
q32 -37 32 -58q0 -13 -9 -22.5t-23 -9.5zM363 405q-13 0 -22.5 9.5t-9.5 22.5q0 9 8 23.5t16 24.5l8 10q32 -37 32 -58q0 -13 -9.5 -22.5t-22.5 -9.5z" />
  </g>

</svg>
