<?xml version="1.0" standalone="no"?>
<!DOCTYPE svg PUBLIC "-//W3C//DTD SVG 1.1//EN" "http://www.w3.org/Graphics/SVG/1.1/DTD/svg11.dtd" >
<svg xmlns="http://www.w3.org/2000/svg" xmlns:xlink="http://www.w3.org/1999/xlink" version="1.1" viewBox="0 0 512 512">
  <g transform="matrix(1 0 0 -1 0 512)">
   <path fill="currentColor"
d="M427 213v128h-64v-42h-43v42h-128v-42h-43v42h-64v-128h342zM427 107v42h-342v-42h342zM192 427v-43h128v43h-128zM427 384q18 0 30 -12.5t12 -30.5v-234q0 -18 -12 -30.5t-30 -12.5h-342q-18 0 -30 12.5t-12 30.5v234q0 18 12 30.5t30 12.5h64v43q0 18 12.5 30t30.5 12
h128q18 0 30.5 -12t12.5 -30v-43h64z" />
  </g>

</svg>
