<?xml version="1.0" standalone="no"?>
<!DOCTYPE svg PUBLIC "-//W3C//DTD SVG 1.1//EN" "http://www.w3.org/Graphics/SVG/1.1/DTD/svg11.dtd" >
<svg xmlns="http://www.w3.org/2000/svg" xmlns:xlink="http://www.w3.org/1999/xlink" version="1.1" viewBox="0 0 512 512">
  <g transform="matrix(1 0 0 -1 0 512)">
   <path fill="currentColor"
d="M124.313 337.771v-311.457h-103.714v311.457h103.714zM130.914 433.943q0.314453 -22.9434 -15.8711 -38.3438q-16.1865 -15.3994 -42.5859 -15.3994h-0.628906q-25.7715 0 -41.4854 15.3994q-15.7139 15.4004 -15.7139 38.3438q0 23.2568 16.1846 38.5
q16.1865 15.2422 42.2715 15.2422q26.0869 0 41.8008 -15.2422q15.7139 -15.2432 16.0283 -38.5zM497.372 204.828v-178.514h-103.4v166.571q0 33 -12.7285 51.6992q-12.7295 18.7002 -39.7578 18.7002q-19.7998 0 -33.1572 -10.8418q-13.3564 -10.8438 -19.9561 -26.8721
q-3.45801 -9.42773 -3.45801 -25.4561v-173.801h-103.4q0.629883 125.4 0.629883 203.343q0 77.9424 -0.31543 93.0283l-0.314453 15.0859h103.4v-45.2568h-0.628906q6.28613 10.0566 12.8867 17.6006q6.59961 7.54199 17.7568 16.3418q11.1562 8.7998 27.3428 13.6719
q16.1855 4.87109 35.9854 4.87109q53.7432 0 86.4287 -35.6719q32.6865 -35.6709 32.6865 -104.5z" />
  </g>

</svg>
