<?xml version="1.0" standalone="no"?>
<!DOCTYPE svg PUBLIC "-//W3C//DTD SVG 1.1//EN" "http://www.w3.org/Graphics/SVG/1.1/DTD/svg11.dtd" >
<svg xmlns="http://www.w3.org/2000/svg" xmlns:xlink="http://www.w3.org/1999/xlink" version="1.1" viewBox="0 0 512 512">
  <g transform="matrix(1 0 0 -1 0 512)">
   <path fill="currentColor"
d="M309 224v64h43v-64h-43zM277 320v-128h86q9 0 15 6t6 15v86q0 9 -6 15t-15 6h-86zM235 192v128h-32v-53h-43v53h-32v-128h32v43h43v-43h32zM405 448q17 0 30 -13t13 -30v-298q0 -17 -13 -30t-30 -13h-298q-18 0 -30.5 13t-12.5 30v298q0 17 12.5 30t30.5 13h298z" />
  </g>

</svg>
