<?xml version="1.0" standalone="no"?>
<!DOCTYPE svg PUBLIC "-//W3C//DTD SVG 1.1//EN" "http://www.w3.org/Graphics/SVG/1.1/DTD/svg11.dtd" >
<svg xmlns="http://www.w3.org/2000/svg" xmlns:xlink="http://www.w3.org/1999/xlink" version="1.1" viewBox="0 0 512 512">
  <g transform="matrix(1 0 0 -1 0 512)">
   <path fill="currentColor"
d="M286 188q0 -7 11 -7q4 0 6 2l4 5q2 4 2 6v43q0 1 -1 3t-1 3q0 2 -4 4.5t-6 2.5q-4 0 -7 -3l-4 -4q-2 -4 -2 -6v-43q2 -4 2 -6zM326 209q0 -13 -2 -17l-6 -13q-7 -6 -11 -6q-2 0 -6.5 -1t-6.5 -1q-7 0 -23 8q-2 1 -6 13q-3 9 -3 17v15q0 11 3 17l6 13q7 6 11 6q2 0 6 1
t6 1q9 0 13 -2q2 -1 5.5 -3t5.5 -3t6 -13q2 -6 2 -17v-15zM213 224q15 0 15 13v4q-2 2 -2 4t-4 2h-11q-2 -2 -4 -2t-2 -4v-4h-22q0 8 5.5 15.5t12.5 7.5q1 0 5 1t5 1q12 0 24 -6q8 -4 8 -19v-7q-2 -4 -2 -6q0 -4 -4 -4q-2 0 -7 -5q9 -5 11 -8q4 -8 4 -13q0 -9 -2 -11
q-1 -1 -3 -4t-3 -4q-4 -4 -11 -4q-2 0 -6.5 -1t-6.5 -1q-8 0 -10 2q-1 1 -5 2t-6 2q-9 5 -9 21h18v-4q2 -2 2 -4t4 -2h11q2 2 4 2t2 4v11q-2 2 -2 4t-4 2h-13v15h8zM256 405q71 0 121 -50t50 -120q0 -71 -50.5 -121t-120.5 -50t-120.5 50t-50.5 121h43q0 -53 38 -90.5
t90 -37.5t90 37.5t38 90.5t-38 90.5t-90 37.5v-86l-107 107l107 107v-86z" />
  </g>

</svg>
