<?xml version="1.0" standalone="no"?>
<!DOCTYPE svg PUBLIC "-//W3C//DTD SVG 1.1//EN" "http://www.w3.org/Graphics/SVG/1.1/DTD/svg11.dtd" >
<svg xmlns="http://www.w3.org/2000/svg" xmlns:xlink="http://www.w3.org/1999/xlink" version="1.1" viewBox="0 0 512 512">
  <g transform="matrix(1 0 0 -1 0 512)">
   <path fill="currentColor"
d="M469 149v150h-85v-150h85zM491 341q9 0 15 -6t6 -15v-213q0 -9 -6 -15.5t-15 -6.5h-128q-9 0 -15.5 6.5t-6.5 15.5v213q0 9 6.5 15t15.5 6h128zM85 384v-235h214v-64h-299v64h43v235q0 17 12.5 30t29.5 13h384v-43h-384z" />
  </g>

</svg>
