<?xml version="1.0" standalone="no"?>
<!DOCTYPE svg PUBLIC "-//W3C//DTD SVG 1.1//EN" "http://www.w3.org/Graphics/SVG/1.1/DTD/svg11.dtd" >
<svg xmlns="http://www.w3.org/2000/svg" xmlns:xlink="http://www.w3.org/1999/xlink" version="1.1" viewBox="0 0 512 512">
  <g transform="matrix(1 0 0 -1 0 512)">
   <path fill="currentColor"
d="M464.231 434.508q24.3389 0.325195 17.6104 -29.5244l-71.7539 -318.238q-2.20508 -9.77441 -15.2354 -12.3184q-13.0303 -2.54297 -24.1963 5.21875l-100.777 71.6895l-59.1758 -54.4434q-18.0898 -16.6426 -28.8467 14.6895l-36.7529 110.015l-102.732 32.9863
q-13.0303 4.18457 -13.6426 14.7168q-0.610352 10.5303 12.248 15.2305l405.933 146.471q9.42578 3.40234 17.3223 3.50781zM399.838 373.745q-3.58301 0.0195312 -8.16602 -2.75293l-232.654 -140.797l38.7285 -114.95l9.0166 80.9893l193.034 168.249
q10.5576 9.20215 0.0410156 9.26172z" />
  </g>

</svg>
