<?xml version="1.0" standalone="no"?>
<!DOCTYPE svg PUBLIC "-//W3C//DTD SVG 1.1//EN" "http://www.w3.org/Graphics/SVG/1.1/DTD/svg11.dtd" >
<svg xmlns="http://www.w3.org/2000/svg" xmlns:xlink="http://www.w3.org/1999/xlink" version="1.1" viewBox="0 0 512 512">
  <g transform="matrix(1 0 0 -1 0 512)">
   <path fill="currentColor"
d="M192 235q0 26 19 45t45 19t45 -19t19 -45t-19 -45t-45 -19t-45 19t-19 45zM427 94l-82 82q18 28 18 59q0 44 -31.5 75t-75.5 31t-75.5 -31t-31.5 -75t31.5 -75.5t75.5 -31.5q31 0 59 18l94 -95q-11 -8 -25 -8h-256q-17 0 -30 12.5t-13 29.5l1 342q0 17 12.5 29.5
t29.5 12.5h171l128 -128v-247z" />
  </g>

</svg>
