<?xml version="1.0" standalone="no"?>
<!DOCTYPE svg PUBLIC "-//W3C//DTD SVG 1.1//EN" "http://www.w3.org/Graphics/SVG/1.1/DTD/svg11.dtd" >
<svg xmlns="http://www.w3.org/2000/svg" xmlns:xlink="http://www.w3.org/1999/xlink" version="1.1" viewBox="0 0 512 512">
  <g transform="matrix(1 0 0 -1 0 512)">
   <path fill="currentColor"
d="M43 277h170v-42h-170v42zM351 405q86 0 86 -75q0 -14 -4 -25q-7 -19 -11 -25q-17 -27 -40 -50l-61 -66h127v-36h-184v32l89 97q18 18 31 40q7 12 7 28q0 13 -2 18q-10 26 -38 26q-46 0 -46 -49h-46q0 36 24 60q25 25 68 25z" />
  </g>

</svg>
