<?xml version="1.0" standalone="no"?>
<!DOCTYPE svg PUBLIC "-//W3C//DTD SVG 1.1//EN" "http://www.w3.org/Graphics/SVG/1.1/DTD/svg11.dtd" >
<svg xmlns="http://www.w3.org/2000/svg" xmlns:xlink="http://www.w3.org/1999/xlink" version="1.1" viewBox="0 0 512 512">
  <g transform="matrix(1 0 0 -1 0 512)">
   <path fill="currentColor"
d="M140 85h232q-24 83 -24 171t24 171h-232q24 -82 24 -171q0 -88 -24 -171zM425 61q2 -4 2 -6q0 -12 -14 -12h-314q-14 0 -14 12q0 2 2 6q35 96 35 195t-35 195q-2 4 -2 6q0 12 14 12h314q14 0 14 -12q0 -2 -2 -6q-35 -96 -35 -195t35 -195z" />
  </g>

</svg>
