<?xml version="1.0" standalone="no"?>
<!DOCTYPE svg PUBLIC "-//W3C//DTD SVG 1.1//EN" "http://www.w3.org/Graphics/SVG/1.1/DTD/svg11.dtd" >
<svg xmlns="http://www.w3.org/2000/svg" xmlns:xlink="http://www.w3.org/1999/xlink" version="1.1" viewBox="0 0 512 512">
  <g transform="matrix(1 0 0 -1 0 512)">
   <path fill="currentColor"
d="M358 124l30 30l-62 62q15 25 15 51q0 40 -28 68t-68 28t-68 -28t-28 -68t28 -68t68 -28q26 0 51 15zM427 427q17 0 29.5 -13t12.5 -30v-256q0 -17 -12.5 -30t-29.5 -13h-342q-17 0 -29.5 13t-12.5 30v256q0 17 12.5 30t29.5 13h342zM245 320q22 0 38 -15.5t16 -37.5
t-16 -38t-38 -16t-37.5 16t-15.5 38t15.5 37.5t37.5 15.5z" />
  </g>

</svg>
