<?xml version="1.0" standalone="no"?>
<!DOCTYPE svg PUBLIC "-//W3C//DTD SVG 1.1//EN" "http://www.w3.org/Graphics/SVG/1.1/DTD/svg11.dtd" >
<svg xmlns="http://www.w3.org/2000/svg" xmlns:xlink="http://www.w3.org/1999/xlink" version="1.1" viewBox="0 0 512 512">
  <g transform="matrix(1 0 0 -1 0 512)">
   <path fill="currentColor"
d="M437 213v107h-26v-96h-24v75h-27v-75h-24v96h-27v-107q0 -9 6.5 -15t15.5 -6h85q9 0 15 6t6 15zM288 293v27h-85v-128h85v27h-53v23h53v27h-53v24h53zM181 192v128h-26v-75l-54 75h-26v-128h26v75l55 -75h25zM427 427q18 0 30 -12.5t12 -30.5v-256q0 -18 -12 -30.5
t-30 -12.5h-342q-18 0 -30 12.5t-12 30.5v256q0 18 12 30.5t30 12.5h342z" />
  </g>

</svg>
