<?xml version="1.0" standalone="no"?>
<!DOCTYPE svg PUBLIC "-//W3C//DTD SVG 1.1//EN" "http://www.w3.org/Graphics/SVG/1.1/DTD/svg11.dtd" >
<svg xmlns="http://www.w3.org/2000/svg" xmlns:xlink="http://www.w3.org/1999/xlink" version="1.1" viewBox="0 0 512 512">
  <g transform="matrix(1 0 0 -1 0 512)">
   <path fill="currentColor"
d="M363 320v43h-214v-43h214zM363 235v42h-214v-42h214zM299 149v43h-150v-43h150zM256 448q-9 0 -15 -6t-6 -15t6 -15.5t15 -6.5t15 6.5t6 15.5t-6 15t-15 6zM405 448q17 0 30 -13t13 -30v-298q0 -17 -13 -30t-30 -13h-298q-17 0 -30 13t-13 30v298q0 17 13 30t30 13h89
q7 19 23 31t37 12t37 -12t23 -31h89z" />
  </g>

</svg>
