<?xml version="1.0" standalone="no"?>
<!DOCTYPE svg PUBLIC "-//W3C//DTD SVG 1.1//EN" "http://www.w3.org/Graphics/SVG/1.1/DTD/svg11.dtd" >
<svg xmlns="http://www.w3.org/2000/svg" xmlns:xlink="http://www.w3.org/1999/xlink" version="1.1" viewBox="0 0 512 512">
  <g transform="matrix(1 0 0 -1 0 512)">
   <path fill="currentColor"
d="M222 324q0 43 29.5 73t72.5 30t73 -30t30 -73t-30 -72.5t-73 -29.5t-72.5 29.5t-29.5 72.5zM273 128q0 18 12.5 30.5t30.5 12.5t30 -12.5t12 -30.5t-12 -30.5t-30 -12.5t-30.5 12.5t-12.5 30.5zM85 205q0 28 20 48t49 20q28 0 48 -19.5t20 -48.5t-20 -48.5t-48 -19.5
q-29 0 -49 20t-20 48z" />
  </g>

</svg>
