<?xml version="1.0" standalone="no"?>
<!DOCTYPE svg PUBLIC "-//W3C//DTD SVG 1.1//EN" "http://www.w3.org/Graphics/SVG/1.1/DTD/svg11.dtd" >
<svg xmlns="http://www.w3.org/2000/svg" xmlns:xlink="http://www.w3.org/1999/xlink" version="1.1" viewBox="0 0 512 512">
  <g transform="matrix(1 0 0 -1 0 512)">
   <path fill="currentColor"
d="M320 320v43h-85q-17 0 -30 -12.5t-13 -30.5v-128q0 -18 13 -30.5t30 -12.5h42q17 0 30 12.5t13 30.5v43q0 18 -12.5 30t-30.5 12h-42v43h85zM405 448q17 0 30 -13t13 -30v-298q0 -17 -13 -30t-30 -13h-298q-17 0 -30 13t-13 30v298q0 17 13 30t30 13h298zM235 192v43h42
v-43h-42z" />
  </g>

</svg>
