<?xml version="1.0" standalone="no"?>
<!DOCTYPE svg PUBLIC "-//W3C//DTD SVG 1.1//EN" "http://www.w3.org/Graphics/SVG/1.1/DTD/svg11.dtd" >
<svg xmlns="http://www.w3.org/2000/svg" xmlns:xlink="http://www.w3.org/1999/xlink" version="1.1" viewBox="0 0 512 512">
  <g transform="matrix(1 0 0 -1 0 512)">
   <path fill="currentColor"
d="M64 107h213l-68 91l-53 -69l-39 46zM21 277h299v-213h-256q-17 0 -30 13t-13 30v170zM107 448h42v-43h-42v43zM192 448h43v-43h-43v43zM64 448v-43h-43q0 16 13.5 29.5t29.5 13.5zM363 107h42v-43h-42v43zM363 448h42v-43h-42v43zM21 363h43v-43h-43v43zM448 448
q16 0 29.5 -13.5t13.5 -29.5h-43v43zM448 363h43v-43h-43v43zM277 448h43v-43h-43v43zM491 107q0 -16 -13.5 -29.5t-29.5 -13.5v43h43zM448 277h43v-42h-43v42zM448 192h43v-43h-43v43z" />
  </g>

</svg>
