<?xml version="1.0" standalone="no"?>
<!DOCTYPE svg PUBLIC "-//W3C//DTD SVG 1.1//EN" "http://www.w3.org/Graphics/SVG/1.1/DTD/svg11.dtd" >
<svg xmlns="http://www.w3.org/2000/svg" xmlns:xlink="http://www.w3.org/1999/xlink" version="1.1" viewBox="0 0 512 512">
  <g transform="matrix(1 0 0 -1 0 512)">
   <path fill="currentColor"
d="M0 85h512v-85h-512v85zM405 267q43 -47 43 -75q0 -17 -13 -30t-30 -13t-29.5 13t-12.5 30q0 12 10.5 31t20.5 31zM111 299h205l-103 102zM353 321q10 -10 10 -23t-10 -22l-117 -117q-10 -10 -23 -10q-12 0 -22 10l-118 117q-10 9 -10 22t10 23l110 110l-51 51l31 30z" />
  </g>

</svg>
