<?xml version="1.0" standalone="no"?>
<!DOCTYPE svg PUBLIC "-//W3C//DTD SVG 1.1//EN" "http://www.w3.org/Graphics/SVG/1.1/DTD/svg11.dtd" >
<svg xmlns="http://www.w3.org/2000/svg" xmlns:xlink="http://www.w3.org/1999/xlink" version="1.1" viewBox="0 0 512 512">
  <g transform="matrix(1 0 0 -1 0 512)">
   <path fill="currentColor"
d="M332 154l-23 87l70 58l-90 5l-33 84l-33 -84l-91 -5l71 -58l-23 -87l76 49zM427 256q0 -17 12.5 -30t29.5 -13v-85q0 -17 -12.5 -30t-29.5 -13h-342q-17 0 -29.5 13t-12.5 30v85q18 0 30 12.5t12 30.5q0 17 -12.5 30t-29.5 13v85q0 17 12.5 30t29.5 13h342q17 0 29.5 -13
t12.5 -30v-85q-17 0 -29.5 -13t-12.5 -30z" />
  </g>

</svg>
