<?xml version="1.0" standalone="no"?>
<!DOCTYPE svg PUBLIC "-//W3C//DTD SVG 1.1//EN" "http://www.w3.org/Graphics/SVG/1.1/DTD/svg11.dtd" >
<svg xmlns="http://www.w3.org/2000/svg" xmlns:xlink="http://www.w3.org/1999/xlink" version="1.1" viewBox="0 0 512 512">
  <g transform="matrix(1 0 0 -1 0 512)">
   <path fill="currentColor"
d="M256 139q-37 0 -66.5 20.5t-42.5 53.5h218q-13 -33 -42.5 -53.5t-66.5 -20.5zM189 300l-22 -23l-23 23l45 45l46 -45l-23 -23zM277 300l46 45l45 -45l-23 -23l-22 23l-23 -23zM256 85q70 0 120.5 50.5t50.5 120.5t-50.5 120.5t-120.5 50.5t-120.5 -50.5t-50.5 -120.5
t50.5 -120.5t120.5 -50.5zM256 469q88 0 150.5 -62.5t62.5 -150.5t-62.5 -150.5t-150.5 -62.5t-150.5 62.5t-62.5 150.5t62.5 150.5t150.5 62.5z" />
  </g>

</svg>
