<?xml version="1.0" standalone="no"?>
<!DOCTYPE svg PUBLIC "-//W3C//DTD SVG 1.1//EN" "http://www.w3.org/Graphics/SVG/1.1/DTD/svg11.dtd" >
<svg xmlns="http://www.w3.org/2000/svg" xmlns:xlink="http://www.w3.org/1999/xlink" version="1.1" viewBox="0 0 512 512">
  <g transform="matrix(1 0 0 -1 0 512)">
   <path fill="currentColor"
d="M235 21v128h42v-128h-42zM120 150l46 46l30 -30l-46 -46zM316 166l30 30l46 -46l-30 -30zM256 320q26 0 45 -19t19 -45t-19 -45t-45 -19t-45 19t-19 45t19 45t45 19zM363 277h128v-42h-128v42zM392 362l-46 -46l-30 30l46 46zM277 491v-128h-42v128h42zM196 346l-30 -30
l-46 46l30 30zM149 277v-42h-128v42h128z" />
  </g>

</svg>
