<?xml version="1.0" standalone="no"?>
<!DOCTYPE svg PUBLIC "-//W3C//DTD SVG 1.1//EN" "http://www.w3.org/Graphics/SVG/1.1/DTD/svg11.dtd" >
<svg xmlns="http://www.w3.org/2000/svg" xmlns:xlink="http://www.w3.org/1999/xlink" version="1.1" viewBox="0 0 512 512">
  <g transform="matrix(1 0 0 -1 0 512)">
   <path fill="currentColor"
d="M85 384v-299h299v-42h-299q-17 0 -29.5 12.5t-12.5 29.5v299h42zM384 363v42h-85v-117q-14 11 -32 11q-22 0 -38 -16t-16 -38t16 -37.5t38 -15.5t37.5 15.5t15.5 37.5v118h64zM427 469q17 0 29.5 -12.5t12.5 -29.5v-256q0 -17 -12.5 -30t-29.5 -13h-256q-17 0 -30 13
t-13 30v256q0 17 13 29.5t30 12.5h256z" />
  </g>

</svg>
