<?xml version="1.0" standalone="no"?>
<!DOCTYPE svg PUBLIC "-//W3C//DTD SVG 1.1//EN" "http://www.w3.org/Graphics/SVG/1.1/DTD/svg11.dtd" >
<svg xmlns="http://www.w3.org/2000/svg" xmlns:xlink="http://www.w3.org/1999/xlink" version="1.1" viewBox="0 0 512 512">
  <g transform="matrix(1 0 0 -1 0 512)">
   <path fill="currentColor"
d="M256 85q53 0 90.5 37.5t37.5 90.5t-37.5 90.5t-90.5 37.5t-90.5 -37.5t-37.5 -90.5t37.5 -90.5t90.5 -37.5zM149 427q-9 0 -15 -6.5t-6 -15.5t6 -15t15 -6t15.5 6t6.5 15t-6.5 15.5t-15.5 6.5zM213 427q-9 0 -15 -6.5t-6 -15.5t6 -15t15 -6t15.5 6t6.5 15t-6.5 15.5
t-15.5 6.5zM384 469q18 0 30.5 -12t12.5 -30v-342q0 -18 -12.5 -30t-30.5 -12h-256q-18 0 -30.5 12t-12.5 30v342q0 18 12.5 30t30.5 12h256zM196 153l120 121q25 -25 25 -60.5t-25 -60.5t-60 -25t-60 25z" />
  </g>

</svg>
