<?xml version="1.0" standalone="no"?>
<!DOCTYPE svg PUBLIC "-//W3C//DTD SVG 1.1//EN" "http://www.w3.org/Graphics/SVG/1.1/DTD/svg11.dtd" >
<svg xmlns="http://www.w3.org/2000/svg" xmlns:xlink="http://www.w3.org/1999/xlink" version="1.1" viewBox="0 0 512 512">
  <g transform="matrix(1 0 0 -1 0 512)">
   <path fill="currentColor"
d="M256 512q100 0 173.5 -67.5t81.5 -166.5h-32q-5 59 -39.5 107t-87.5 73l-29 -28l-81 81zM353 260q0 57 -47 57h-20v-123h19q36 0 46 34q2 7 2 24v8zM306 341q53 0 72 -47q5 -12 5 -34v-8q0 -38 -21 -59q-22 -22 -57 -22h-49v170h50zM207 258q28 -11 28 -39q0 -10 -5 -20
q-6 -12 -11 -16q-15 -12 -40 -12q-24 0 -39 12t-15 35h27q0 -11 7.5 -18t19.5 -7q28 0 28 27t-31 27h-16v22h16q29 0 29 25t-26 25q-25 0 -25 -23h-28q0 17 15 32q16 13 38 13q35 0 49 -27q4 -8 4 -20q0 -23 -25 -36zM160 54l29 28l81 -81l-14 -1q-100 0 -173.5 68
t-81.5 167h32q6 -60 40 -108t87 -73z" />
  </g>

</svg>
