<?xml version="1.0" standalone="no"?>
<!DOCTYPE svg PUBLIC "-//W3C//DTD SVG 1.1//EN" "http://www.w3.org/Graphics/SVG/1.1/DTD/svg11.dtd" >
<svg xmlns="http://www.w3.org/2000/svg" xmlns:xlink="http://www.w3.org/1999/xlink" version="1.1" viewBox="0 0 512 512">
  <g transform="matrix(1 0 0 -1 0 512)">
   <path fill="currentColor"
d="M371.714 208.286q0 14.2852 -5.57129 26.1426t-13.8574 19.5713q-8.28516 7.71387 -20.8564 14t-23.5713 9.71387q-11 3.42871 -25 6.57227l-29.7148 6.85645q-8.57129 2 -12.5713 3t-10 3.28613q-6 2.28516 -8.57129 4.57129t-4.71484 6
q-2.14258 3.71387 -2.14258 8.57129q0 22 41.1426 22q12.2861 0 22 -3.42871q9.71484 -3.42871 15.4287 -8.14258q5.71484 -4.71387 10.8574 -9.57129t11.4287 -8.28613q6.28516 -3.42871 13.7139 -3.42871q13.4287 0 21.5713 9.14355q8.14355 9.14258 8.14355 22
q0 15.7139 -16 28.4287q-16 12.7139 -40.5713 19.2852q-24.5723 6.57129 -52 6.57129q-19.4287 0 -37.7148 -4.42871q-18.2852 -4.42773 -34.1426 -13.4277t-25.4287 -24.8574t-9.57129 -36.7148q0 -17.4277 5.42871 -30.4277t16 -21.5723
q10.5713 -8.57129 22.8564 -13.8564q12.2861 -5.28613 29.4287 -9.28613l41.7148 -10.2852q25.7139 -6.28613 32 -10.2861q9.14258 -5.71387 9.14258 -17.1426q0 -11.1436 -11.4287 -18.4287q-11.4287 -7.28613 -30 -7.28613q-14.5713 0 -26.1426 4.57129
q-11.5713 4.57227 -18.5713 11q-7 6.42871 -13 12.8574t-13.1436 11q-7.14258 4.57129 -15.4277 4.57129q-14.2861 0 -21.5723 -8.57129q-7.28516 -8.57129 -7.28516 -21.4287q0 -26.2852 34.8574 -45q34.8564 -18.7139 83.1426 -18.7139q20.8574 0 40 5.28516
q19.1426 5.28613 35 15.2861t25.2852 26.7139q9.42871 16.7148 9.42871 37.5723zM475.429 146.286q0 -45.4287 -32.1436 -77.5723q-32.1426 -32.1426 -77.5713 -32.1426q-37.1426 0 -66.8564 22.8574q-22 -4.57129 -42.8574 -4.57129q-40.8574 0 -78.1426 15.8564
q-37.2861 15.8574 -64.2861 42.8574t-42.8574 64.2861q-15.8564 37.2852 -15.8564 78.1426q0 20.8574 4.57129 42.8574q-22.8574 29.7139 -22.8574 66.8564q0 45.4287 32.1426 77.5723q32.1436 32.1426 77.5713 32.1426q37.1436 0 66.8574 -22.8574
q22 4.57129 42.8574 4.57129q40.8574 0 78.1426 -15.8564q37.2861 -15.8574 64.2861 -42.8574t42.8564 -64.2861q15.8574 -37.2852 15.8574 -78.1426q0 -20.8574 -4.57129 -42.8574q22.8574 -29.7139 22.8574 -66.8564z" />
  </g>

</svg>
