<?xml version="1.0" standalone="no"?>
<!DOCTYPE svg PUBLIC "-//W3C//DTD SVG 1.1//EN" "http://www.w3.org/Graphics/SVG/1.1/DTD/svg11.dtd" >
<svg xmlns="http://www.w3.org/2000/svg" xmlns:xlink="http://www.w3.org/1999/xlink" version="1.1" viewBox="0 0 512 512">
  <g transform="matrix(1 0 0 -1 0 512)">
   <path fill="currentColor"
d="M341 107v298h-170v-298h170zM352 448q14 0 23 -9t9 -23v-320q0 -14 -9 -23t-23 -9h-192q-14 0 -23 9t-9 23v320q0 14 9 23t23 9h192zM405 149v214h43v-214h-43zM469 320h43v-128h-43v128zM64 149v214h43v-214h-43zM0 192v128h43v-128h-43z" />
  </g>

</svg>
