<?xml version="1.0" standalone="no"?>
<!DOCTYPE svg PUBLIC "-//W3C//DTD SVG 1.1//EN" "http://www.w3.org/Graphics/SVG/1.1/DTD/svg11.dtd" >
<svg xmlns="http://www.w3.org/2000/svg" xmlns:xlink="http://www.w3.org/1999/xlink" version="1.1" viewBox="0 0 512 512">
  <g transform="matrix(1 0 0 -1 0 512)">
   <path fill="currentColor"
d="M320 256q0 26 -19 45t-45 19v43q44 0 75.5 -31.5t31.5 -75.5h-43zM405 256q0 62 -43.5 105.5t-105.5 43.5v43q80 0 136 -56t56 -136h-43zM427 181q9 0 15 -6t6 -15v-75q0 -9 -6 -15t-15 -6q-150 0 -256.5 106.5t-106.5 256.5q0 9 6 15t15 6h75q9 0 15 -6t6 -15
q0 -40 12 -76q4 -13 -5 -22l-47 -47q47 -92 141 -141l47 47q9 9 22 5q36 -12 76 -12z" />
  </g>

</svg>
