<?xml version="1.0" standalone="no"?>
<!DOCTYPE svg PUBLIC "-//W3C//DTD SVG 1.1//EN" "http://www.w3.org/Graphics/SVG/1.1/DTD/svg11.dtd" >
<svg xmlns="http://www.w3.org/2000/svg" xmlns:xlink="http://www.w3.org/1999/xlink" version="1.1" viewBox="0 0 512 512">
  <g transform="matrix(1 0 0 -1 0 512)">
   <path fill="currentColor"
d="M149 192h299l-75 96l-53 -64l-75 96zM469 427q17 0 30 -13t13 -30v-213q0 -17 -13 -30t-30 -13h-341q-17 0 -30 13t-13 30l1 256q0 17 12.5 29.5t29.5 12.5h128l43 -42h170zM43 384v-299h384v-42h-384q-17 0 -30 12.5t-13 29.5v299h43z" />
  </g>

</svg>
