<?xml version="1.0" standalone="no"?>
<!DOCTYPE svg PUBLIC "-//W3C//DTD SVG 1.1//EN" "http://www.w3.org/Graphics/SVG/1.1/DTD/svg11.dtd" >
<svg xmlns="http://www.w3.org/2000/svg" xmlns:xlink="http://www.w3.org/1999/xlink" version="1.1" viewBox="0 0 512 512">
  <g transform="matrix(1 0 0 -1 0 512)">
   <path fill="currentColor"
d="M256 85q70 0 120.5 50.5t50.5 120.5q0 60 -36 105l-240 -240q45 -36 105 -36zM85 256q0 -60 36 -105l240 240q-45 36 -105 36q-70 0 -120.5 -50.5t-50.5 -120.5zM256 469q88 0 150.5 -62.5t62.5 -150.5t-62.5 -150.5t-150.5 -62.5t-150.5 62.5t-62.5 150.5t62.5 150.5
t150.5 62.5z" />
  </g>

</svg>
