<?xml version="1.0" standalone="no"?>
<!DOCTYPE svg PUBLIC "-//W3C//DTD SVG 1.1//EN" "http://www.w3.org/Graphics/SVG/1.1/DTD/svg11.dtd" >
<svg xmlns="http://www.w3.org/2000/svg" xmlns:xlink="http://www.w3.org/1999/xlink" version="1.1" viewBox="0 0 512 512">
  <g transform="matrix(1 0 0 -1 0 512)">
   <path fill="currentColor"
d="M352 320q14 0 23 9t9 23t-9 23t-23 9t-23 -9t-9 -23t9 -23t23 -9zM352 128q14 0 23 9t9 23t-9 23t-23 9t-23 -9t-9 -23t9 -23t23 -9zM256 224q14 0 23 9t9 23t-9 23t-23 9t-23 -9t-9 -23t9 -23t23 -9zM160 320q14 0 23 9t9 23t-9 23t-23 9t-23 -9t-9 -23t9 -23t23 -9z
M160 128q14 0 23 9t9 23t-9 23t-23 9t-23 -9t-9 -23t9 -23t23 -9zM405 448q17 0 30 -13t13 -30v-298q0 -17 -13 -30t-30 -13h-298q-17 0 -30 13t-13 30v298q0 17 13 30t30 13h298z" />
  </g>

</svg>
