<?xml version="1.0" standalone="no"?>
<!DOCTYPE svg PUBLIC "-//W3C//DTD SVG 1.1//EN" "http://www.w3.org/Graphics/SVG/1.1/DTD/svg11.dtd" >
<svg xmlns="http://www.w3.org/2000/svg" xmlns:xlink="http://www.w3.org/1999/xlink" version="1.1" viewBox="0 0 512 512">
  <g transform="matrix(1 0 0 -1 0 512)">
   <path fill="currentColor"
d="M70 459l21 -22l357 -357l-27 -27l-160 161h-1l-4 -1q-17 0 -30 13t-13 30l1 4l-34 34q-9 -18 -9 -38q0 -49 42 -74l-21 -37q-29 17 -46.5 46.5t-17.5 64.5q0 38 20 69l-30 31q-33 -46 -33 -100q0 -46 23 -85.5t62 -62.5l-21 -37q-49 28 -77.5 77.5t-28.5 107.5
q0 74 44 131l-44 45zM256 427q-43 0 -80 -20l-31 31q50 31 111 31q88 0 150.5 -62.5t62.5 -150.5q0 -61 -31 -111l-32 31q21 39 21 80q0 70 -50.5 120.5t-120.5 50.5zM375 208l-35 35q1 4 1 13q0 35 -25 60t-60 25q-9 0 -13 -1l-35 35q22 9 48 9q53 0 90.5 -37.5t37.5 -90.5
q0 -26 -9 -48z" />
  </g>

</svg>
