<?xml version="1.0" standalone="no"?>
<!DOCTYPE svg PUBLIC "-//W3C//DTD SVG 1.1//EN" "http://www.w3.org/Graphics/SVG/1.1/DTD/svg11.dtd" >
<svg xmlns="http://www.w3.org/2000/svg" xmlns:xlink="http://www.w3.org/1999/xlink" version="1.1" viewBox="0 0 512 512">
  <g transform="matrix(1 0 0 -1 0 512)">
   <path fill="currentColor"
d="M512 128l-96 -96l-32 32l64 64l-64 64l32 32zM277 299h64v-43h-64v-64h-42v64h-64v43h64v64h42v-64zM448 448q17 0 30 -12.5t13 -30.5v-170h-43v170h-384v-256h320v-42h-43v-43h-170v43h-107q-18 0 -30.5 12.5t-12.5 29.5v256q0 18 12.5 30.5t30.5 12.5h384z" />
  </g>

</svg>
