<?xml version="1.0" standalone="no"?>
<!DOCTYPE svg PUBLIC "-//W3C//DTD SVG 1.1//EN" "http://www.w3.org/Graphics/SVG/1.1/DTD/svg11.dtd" >
<svg xmlns="http://www.w3.org/2000/svg" xmlns:xlink="http://www.w3.org/1999/xlink" version="1.1" viewBox="0 0 512 512">
  <g transform="matrix(1 0 0 -1 0 512)">
   <path fill="currentColor"
d="M341 85h31l-31 31v-31zM299 85v74l-12 12h-74v-86h86zM171 213v74l-12 12h-74v-86h86zM171 85v86h-86v-86h86zM85 372v-31h31zM213 244v-31h31zM27 485l458 -458l-27 -27l-43 43h-330q-17 0 -29.5 12.5t-12.5 29.5v330l-43 43zM341 427v-86h86v86h-86zM171 427h-31
l-43 42h330q17 0 29.5 -12.5t12.5 -29.5v-330l-42 43v31h-31l-43 42h74v86h-86v-74l-42 43v31h-31l-43 42h74v86h-86v-74l-42 43v31z" />
  </g>

</svg>
