<?xml version="1.0" standalone="no"?>
<!DOCTYPE svg PUBLIC "-//W3C//DTD SVG 1.1//EN" "http://www.w3.org/Graphics/SVG/1.1/DTD/svg11.dtd" >
<svg xmlns="http://www.w3.org/2000/svg" xmlns:xlink="http://www.w3.org/1999/xlink" version="1.1" viewBox="0 0 512 512">
  <g transform="matrix(1 0 0 -1 0 512)">
   <path fill="currentColor"
d="M256 192l117 85l-117 64v-149zM256 448v-43h85v43h-85zM384 405h107v-234q0 -18 -12.5 -30.5t-30.5 -12.5h-299q-18 0 -30 12.5t-12 30.5v234h106v43q0 18 12.5 30.5t30.5 12.5h85q18 0 30.5 -12.5t12.5 -30.5v-43zM64 320v-235h341q0 -18 -12 -30t-30 -12h-299
q-18 0 -30.5 12t-12.5 30v235h43z" />
  </g>

</svg>
