<?xml version="1.0" standalone="no"?>
<!DOCTYPE svg PUBLIC "-//W3C//DTD SVG 1.1//EN" "http://www.w3.org/Graphics/SVG/1.1/DTD/svg11.dtd" >
<svg xmlns="http://www.w3.org/2000/svg" xmlns:xlink="http://www.w3.org/1999/xlink" version="1.1" viewBox="0 0 512 512">
  <g transform="matrix(1 0 0 -1 0 512)">
   <path fill="currentColor"
d="M358 459v-11h73v11q0 15 -10.5 25.5t-25.5 10.5t-26 -10.5t-11 -25.5zM341 320q-9 0 -15 6t-6 15v86q0 9 6 15t15 6v11q0 22 16 37.5t38 15.5t37.5 -15.5t15.5 -37.5v-11q9 0 15 -6t6 -15v-86q0 -9 -6 -15t-15 -6h-107zM181 75l28 28l81 -81l-14 -1q-100 0 -173.5 68
t-81.5 167h32q6 -59 40.5 -107.5t87.5 -73.5zM496 240q10 -9 10 -22.5t-10 -23.5l-136 -135q-9 -10 -22 -10t-23 10l-256 256q-10 9 -10 22t10 23l135 136q9 10 22.5 10t23.5 -10l52 -52l-30 -30l-45 44l-121 -120l242 -242l120 121l-47 47l30 30z" />
  </g>

</svg>
