<?xml version="1.0" standalone="no"?>
<!DOCTYPE svg PUBLIC "-//W3C//DTD SVG 1.1//EN" "http://www.w3.org/Graphics/SVG/1.1/DTD/svg11.dtd" >
<svg xmlns="http://www.w3.org/2000/svg" xmlns:xlink="http://www.w3.org/1999/xlink" version="1.1" viewBox="0 0 512 512">
  <g transform="matrix(1 0 0 -1 0 512)">
   <path fill="currentColor"
d="M256 128q44 0 75.5 31.5t31.5 75.5t-31.5 75t-75.5 31q-58 0 -90 -49l-27 28v-85h85l-34 34q20 40 66 40q31 0 53 -21.5t22 -52.5t-22 -53t-53 -22q-39 0 -61 32h-37q12 -29 38.5 -46.5t59.5 -17.5zM299 469l128 -128v-256q0 -17 -13 -29.5t-30 -12.5h-256
q-17 0 -30 12.5t-13 29.5l1 342q0 17 12.5 29.5t29.5 12.5h171z" />
  </g>

</svg>
