<?xml version="1.0" standalone="no"?>
<!DOCTYPE svg PUBLIC "-//W3C//DTD SVG 1.1//EN" "http://www.w3.org/Graphics/SVG/1.1/DTD/svg11.dtd" >
<svg xmlns="http://www.w3.org/2000/svg" xmlns:xlink="http://www.w3.org/1999/xlink" version="1.1" viewBox="0 0 512 512">
  <g transform="matrix(1 0 0 -1 0 512)">
   <path fill="currentColor"
d="M491 341q9 0 15 -6t6 -15v-213q0 -9 -6 -15.5t-15 -6.5h-4l-64 64h46v150h-85v-111l-43 43v89q0 9 6.5 15t15.5 6h128zM85 378v-229h229zM41 477q81 -81 230.5 -231t183.5 -184l-27 -27l-50 50h-378v64h43v235q0 15 10 27l-39 39zM469 384h-281l-43 43h324v-43z" />
  </g>

</svg>
