<?xml version="1.0" standalone="no"?>
<!DOCTYPE svg PUBLIC "-//W3C//DTD SVG 1.1//EN" "http://www.w3.org/Graphics/SVG/1.1/DTD/svg11.dtd" >
<svg xmlns="http://www.w3.org/2000/svg" xmlns:xlink="http://www.w3.org/1999/xlink" version="1.1" viewBox="0 0 512 512">
  <g transform="matrix(1 0 0 -1 0 512)">
   <path fill="currentColor"
d="M405 107v298h-298v-298h298zM405 448q17 0 30 -13t13 -30v-298q0 -17 -13 -30t-30 -13h-298q-17 0 -30 13t-13 30v298q0 17 13 30t30 13h298zM352 165v-16h-192v16q0 22 33 35t63 13t63 -13t33 -35zM256 251q-20 0 -34 14.5t-14 33.5t14 33.5t34 14.5t34 -14.5t14 -33.5
t-14 -33.5t-34 -14.5z" />
  </g>

</svg>
