<?xml version="1.0" standalone="no"?>
<!DOCTYPE svg PUBLIC "-//W3C//DTD SVG 1.1//EN" "http://www.w3.org/Graphics/SVG/1.1/DTD/svg11.dtd" >
<svg xmlns="http://www.w3.org/2000/svg" xmlns:xlink="http://www.w3.org/1999/xlink" version="1.1" viewBox="0 0 512 512">
  <g transform="matrix(1 0 0 -1 0 512)">
   <path fill="currentColor"
d="M427 256v85h-342v-85h256v43h43v-43h43zM149 85q26 0 45 19t19 45t-19 45t-45 19t-45 -19t-19 -45t19 -45t45 -19zM69 381l270 110l14 -36l-176 -71h250q18 0 30 -12.5t12 -30.5v-256q0 -17 -12 -29.5t-30 -12.5h-342q-18 0 -30 12.5t-12 29.5v256q0 30 26 40z" />
  </g>

</svg>
