<?xml version="1.0" standalone="no"?>
<!DOCTYPE svg PUBLIC "-//W3C//DTD SVG 1.1//EN" "http://www.w3.org/Graphics/SVG/1.1/DTD/svg11.dtd" >
<svg xmlns="http://www.w3.org/2000/svg" xmlns:xlink="http://www.w3.org/1999/xlink" version="1.1" viewBox="0 0 512 512">
  <g transform="matrix(1 0 0 -1 0 512)">
   <path fill="currentColor"
d="M461.551 233.594l-81.6631 -45.0176l-74.4219 68.9912l69.4785 65.9795l86.6064 -48.0234q16.7793 -7.40332 16.7793 -19.5693q0 -6.1748 -4.19531 -11.7646q-4.19434 -5.58984 -8.38965 -8.09375zM48.5723 495.716q2.46289 0.646484 4.67676 0.646484
q5.78613 0 12.0781 -2.09668t9.69141 -4.19434l3.40039 -2.09668l268.649 -148.97l-59.5059 -64.8389zM269.539 254.525l-220.431 -240.188q-15.7637 3.15918 -15.4307 34.7607v419.312q-0.311523 22.8477 14.4639 27.1807zM346.835 170.358l-265.619 -146.417
q-16.957 -10.0215 -27.8643 -10.0215q-2.12793 0 -4.08398 0.371094l235.511 223.642z" />
  </g>

</svg>
