<?xml version="1.0" standalone="no"?>
<!DOCTYPE svg PUBLIC "-//W3C//DTD SVG 1.1//EN" "http://www.w3.org/Graphics/SVG/1.1/DTD/svg11.dtd" >
<svg xmlns="http://www.w3.org/2000/svg" xmlns:xlink="http://www.w3.org/1999/xlink" version="1.1" viewBox="0 0 512 512">
  <g transform="matrix(1 0 0 -1 0 512)">
   <path fill="currentColor"
d="M256 213q37 0 66.5 -20.5t42.5 -53.5h-218q13 33 42.5 53.5t66.5 20.5zM167 256l-23 23l23 22l-23 23l23 22l22 -22l23 22l23 -22l-23 -23l23 -22l-23 -23l-23 23zM345 346l23 -22l-23 -23l23 -22l-23 -23l-22 23l-23 -23l-23 23l23 22l-23 23l23 22l23 -22zM256 85
q70 0 120.5 50.5t50.5 120.5t-50.5 120.5t-120.5 50.5t-120.5 -50.5t-50.5 -120.5t50.5 -120.5t120.5 -50.5zM256 469q88 0 150.5 -62.5t62.5 -150.5t-62.5 -150.5t-150.5 -62.5t-150.5 62.5t-62.5 150.5t62.5 150.5t150.5 62.5z" />
  </g>

</svg>
