<?xml version="1.0" standalone="no"?>
<!DOCTYPE svg PUBLIC "-//W3C//DTD SVG 1.1//EN" "http://www.w3.org/Graphics/SVG/1.1/DTD/svg11.dtd" >
<svg xmlns="http://www.w3.org/2000/svg" xmlns:xlink="http://www.w3.org/1999/xlink" version="1.1" viewBox="0 0 512 512">
  <g transform="matrix(1 0 0 -1 0 512)">
   <path fill="currentColor"
d="M448 106v300h-384v-300h384zM448 448q17 0 30 -13t13 -30v-298q0 -17 -13 -30t-30 -13h-384q-17 0 -30 13t-13 30v298q0 17 13 30t30 13h384zM299 171l-43 -54l-43 54h86zM128 299v-86l-53 43zM384 299l53 -43l-53 -43v86zM256 395l43 -54h-86z" />
  </g>

</svg>
