<?xml version="1.0" standalone="no"?>
<!DOCTYPE svg PUBLIC "-//W3C//DTD SVG 1.1//EN" "http://www.w3.org/Graphics/SVG/1.1/DTD/svg11.dtd" >
<svg xmlns="http://www.w3.org/2000/svg" xmlns:xlink="http://www.w3.org/1999/xlink" version="1.1" viewBox="0 0 512 512">
  <g transform="matrix(1 0 0 -1 0 512)">
   <path fill="currentColor"
d="M370 195l8.5 -8.5l8.5 -8.5l8.5 -9l8 -9.5l7.5 -9.5l6.5 -10l5 -11l3 -11.5l1 -12l-0.5 -12.5q-11 -42 -50 -50q-7 -1 -48.5 4t-69.5 5h-4q-28 0 -69.5 -5t-48.5 -4q-39 8 -50 50q-3 20 7 41t18.5 30t30.5 31q10 11 26.5 31t26.5 31q18 22 37 28q4 2 7 2q6 1 17 1
q12 0 17 -1q3 0 7 -2q19 -6 37 -28q9 -11 26 -31t27 -31zM363 309q0 22 15.5 38t37.5 16t37.5 -16t15.5 -38t-15.5 -37.5t-37.5 -15.5t-37.5 15.5t-15.5 37.5zM267 395q0 22 15.5 37.5t37.5 15.5t37.5 -15.5t15.5 -37.5t-15.5 -38t-37.5 -16t-37.5 16t-15.5 38zM139 395
q0 22 15.5 37.5t37.5 15.5t37.5 -15.5t15.5 -37.5t-15.5 -38t-37.5 -16t-37.5 16t-15.5 38zM43 309q0 22 15.5 38t37.5 16t37.5 -16t15.5 -38t-15.5 -37.5t-37.5 -15.5t-37.5 15.5t-15.5 37.5z" />
  </g>

</svg>
