<?xml version="1.0" standalone="no"?>
<!DOCTYPE svg PUBLIC "-//W3C//DTD SVG 1.1//EN" "http://www.w3.org/Graphics/SVG/1.1/DTD/svg11.dtd" >
<svg xmlns="http://www.w3.org/2000/svg" xmlns:xlink="http://www.w3.org/1999/xlink" version="1.1" viewBox="0 0 512 512">
  <g transform="matrix(1 0 0 -1 0 512)">
   <path fill="currentColor"
d="M91 448l357 -357l-27 -27l-89 89q-22 -14 -55 -19v-70h-42v70q-53 8 -90.5 48.5t-37.5 94.5h36q0 -47 33.5 -77.5t79.5 -30.5q25 0 49 11l-35 35q-8 -2 -14 -2q-26 0 -45 19t-19 45v16l-128 128zM320 274l-128 127v4q0 26 19 45t45 19t45 -19t19 -45v-131zM405 277
q0 -37 -19 -70l-26 27q9 20 9 43h36z" />
  </g>

</svg>
