<?xml version="1.0" standalone="no"?>
<!DOCTYPE svg PUBLIC "-//W3C//DTD SVG 1.1//EN" "http://www.w3.org/Graphics/SVG/1.1/DTD/svg11.dtd" >
<svg xmlns="http://www.w3.org/2000/svg" xmlns:xlink="http://www.w3.org/1999/xlink" version="1.1" viewBox="0 0 512 512">
  <g transform="matrix(1 0 0 -1 0 512)">
   <path fill="currentColor"
d="M299 235q9 0 15 -6.5t6 -15.5t-6 -15t-15 -6t-15.5 6t-6.5 15t6.5 15.5t15.5 6.5zM299 160q10 0 10 -11q0 -10 -10 -10q-11 0 -11 10q0 11 11 11zM256 85q70 0 120.5 50.5t50.5 120.5t-50.5 120.5t-120.5 50.5t-120.5 -50.5t-50.5 -120.5t50.5 -120.5t120.5 -50.5z
M256 469q88 0 150.5 -62.5t62.5 -150.5t-62.5 -150.5t-150.5 -62.5t-150.5 62.5t-62.5 150.5t62.5 150.5t150.5 62.5zM363 309q10 0 10 -10q0 -11 -10 -11q-11 0 -11 11q0 10 11 10zM363 224q10 0 10 -11q0 -10 -10 -10q-11 0 -11 10q0 11 11 11zM299 352q-11 0 -11 11
q0 10 11 10q10 0 10 -10q0 -11 -10 -11zM299 320q9 0 15 -6t6 -15t-6 -15.5t-15 -6.5t-15.5 6.5t-6.5 15.5t6.5 15t15.5 6zM213 352q-10 0 -10 11q0 10 10 10q11 0 11 -10q0 -11 -11 -11zM149 224q11 0 11 -11q0 -10 -11 -10q-10 0 -10 10q0 11 10 11zM213 160q11 0 11 -11
q0 -10 -11 -10q-10 0 -10 10q0 11 10 11zM149 309q11 0 11 -10q0 -11 -11 -11q-10 0 -10 11q0 10 10 10zM213 235q9 0 15.5 -6.5t6.5 -15.5t-6.5 -15t-15.5 -6t-15 6t-6 15t6 15.5t15 6.5zM213 320q9 0 15.5 -6t6.5 -15t-6.5 -15.5t-15.5 -6.5t-15 6.5t-6 15.5t6 15t15 6z
" />
  </g>

</svg>
