<?xml version="1.0" standalone="no"?>
<!DOCTYPE svg PUBLIC "-//W3C//DTD SVG 1.1//EN" "http://www.w3.org/Graphics/SVG/1.1/DTD/svg11.dtd" >
<svg xmlns="http://www.w3.org/2000/svg" xmlns:xlink="http://www.w3.org/1999/xlink" version="1.1" viewBox="0 0 512 512">
  <g transform="matrix(1 0 0 -1 0 512)">
   <path fill="currentColor"
d="M250 267q109 -108 177 -176l-27 -27l-72 71q-16 -24 -34 -47t-28 -34l-10 -11q-6 7 -16 18.5t-36 46t-45.5 67t-35.5 73.5t-16 72q0 11 4 33l-68 68l27 27l178 -178zM256 373q-23 0 -39 -18l-69 68q44 46 108 46q62 0 105.5 -43.5t43.5 -105.5q0 -48 -36 -117l-77 78
q17 15 17 39q0 22 -15.5 37.5t-37.5 15.5z" />
  </g>

</svg>
