<?xml version="1.0" standalone="no"?>
<!DOCTYPE svg PUBLIC "-//W3C//DTD SVG 1.1//EN" "http://www.w3.org/Graphics/SVG/1.1/DTD/svg11.dtd" >
<svg xmlns="http://www.w3.org/2000/svg" xmlns:xlink="http://www.w3.org/1999/xlink" version="1.1" viewBox="0 0 512 512">
  <g transform="matrix(1 0 0 -1 0 512)">
   <path fill="currentColor"
d="M203 277v32q0 12 -9.5 20t-22.5 8t-22.5 -8t-9.5 -20v-32h64zM230 277q10 0 18 -8t8 -19v-75q0 -10 -8.5 -18t-19.5 -8h-117q-10 0 -18 8.5t-8 19.5v75q0 10 8 17.5t18 7.5v32q0 22 18.5 38t41.5 16t41 -16t18 -38v-32zM405 491q17 0 30 -13t13 -30v-384q0 -17 -13 -30
t-30 -13h-213q-17 0 -30 13t-13 30v64h43v-43h213v342h-213v-43h-43v64q0 17 13 30t30 13h213z" />
  </g>

</svg>
