<?xml version="1.0" standalone="no"?>
<!DOCTYPE svg PUBLIC "-//W3C//DTD SVG 1.1//EN" "http://www.w3.org/Graphics/SVG/1.1/DTD/svg11.dtd" >
<svg xmlns="http://www.w3.org/2000/svg" xmlns:xlink="http://www.w3.org/1999/xlink" version="1.1" viewBox="0 0 512 512">
  <g transform="matrix(1 0 0 -1 0 512)">
   <path fill="currentColor"
d="M405 448q17 0 30 -13t13 -30v-128h-107l22 86l-86 -22v107h128zM363 149l-22 86h107v-128q0 -17 -13 -30t-30 -13h-128v107zM171 235l-22 -86l86 22v-107h-128q-17 0 -30 13t-13 30v128h107zM64 405q0 17 13 30t30 13h128v-107l-86 22l22 -86h-107v128z" />
  </g>

</svg>
