<?xml version="1.0" standalone="no"?>
<!DOCTYPE svg PUBLIC "-//W3C//DTD SVG 1.1//EN" "http://www.w3.org/Graphics/SVG/1.1/DTD/svg11.dtd" >
<svg xmlns="http://www.w3.org/2000/svg" xmlns:xlink="http://www.w3.org/1999/xlink" version="1.1" viewBox="0 0 512 512">
  <g transform="matrix(1 0 0 -1 0 512)">
   <path fill="currentColor"
d="M384 277v22q0 9 -6 15t-15 6h-64q-9 0 -15.5 -6t-6.5 -15v-86q0 -9 6.5 -15t15.5 -6h64q9 0 15 6t6 15v22h-32v-11h-43v64h43v-11h32zM235 277v22q0 9 -6.5 15t-15.5 6h-64q-9 0 -15 -6t-6 -15v-86q0 -9 6 -15t15 -6h64q9 0 15.5 6t6.5 15v22h-32v-11h-43v64h43v-11h32z
M405 427q17 0 30 -13t13 -30v-256q0 -17 -13 -30t-30 -13h-298q-18 0 -30.5 13t-12.5 30v256q0 17 12.5 30t30.5 13h298z" />
  </g>

</svg>
