<?xml version="1.0" standalone="no"?>
<!DOCTYPE svg PUBLIC "-//W3C//DTD SVG 1.1//EN" "http://www.w3.org/Graphics/SVG/1.1/DTD/svg11.dtd" >
<svg xmlns="http://www.w3.org/2000/svg" xmlns:xlink="http://www.w3.org/1999/xlink" version="1.1" viewBox="0 0 512 512">
  <g transform="matrix(1 0 0 -1 0 512)">
   <path fill="currentColor"
d="M416 256q14 0 23 9t9 23t-9 23t-23 9t-23 -9t-9 -23t9 -23t23 -9zM331 192q13 0 22.5 9t9.5 23t-9.5 23t-22.5 9t-22.5 -9t-9.5 -23t9.5 -23t22.5 -9zM235 235v42h-64v64h-43v-64h-64v-42h64v-64h43v64h64zM448 384q17 0 30 -13t13 -30v-170q0 -17 -13 -30t-30 -13h-384
q-17 0 -30 13t-13 30v170q0 17 13 30t30 13h384z" />
  </g>

</svg>
