<?xml version="1.0" standalone="no"?>
<!DOCTYPE svg PUBLIC "-//W3C//DTD SVG 1.1//EN" "http://www.w3.org/Graphics/SVG/1.1/DTD/svg11.dtd" >
<svg xmlns="http://www.w3.org/2000/svg" xmlns:xlink="http://www.w3.org/1999/xlink" version="1.1" viewBox="0 0 512 512">
  <g transform="matrix(1 0 0 -1 0 512)">
   <path fill="currentColor"
d="M6.83301 436.434q44.7777 -0.733883 57.7062 -21.3755q12.9285 -20.6416 12.9285 -67.3882q18.3943 10.1084 47.7979 10.1572q49.0627 -0.00073242 83.7551 -34.6936q34.6924 -34.6928 34.6932 -83.7557q0.000732421 -49.0634 -34.692 -83.7569
q-34.6927 -34.6935 -83.7563 -34.6942q-48.8049 0.0161133 -83.4327 34.4086q-34.6278 34.3925 -34.9764 83.1959q-0.0234375 11.994 -0.0234375 197.902zM389.1 364.497q11.9464 -0.0998014 23.7314 -2.60059q47.9912 -10.2012 74.7124 -51.3491
q26.7212 -41.1479 16.52 -89.1392q-10.2012 -47.9906 -51.3492 -74.7127q-41.148 -26.7221 -89.1391 -16.5217q-28.745 6.15839 -44.6396 19.874q-9.79151 -46.0656 -26.8532 -63.8916q-17.0617 -17.826 -60.6927 -8.24707q28.3738 133.956 41.168 193.573
q9.10016 41.36 42.0819 67.3587q32.9818 25.9987 74.4601 25.6559zM388.575 302.623q-20.1038 0.152212 -36.0438 -12.5132q-15.94 -12.6655 -20.2091 -32.7485q-4.92041 -23.146 7.96728 -42.9922q12.8877 -19.8462 36.0337 -24.7666q23.1464 -4.91961 42.9918 7.9696
q19.8453 12.8892 24.7651 36.0363q4.91893 23.1459 -7.96836 42.9901q-12.8873 19.8441 -36.0326 24.7638q-5.71852 1.21609 -11.5039 1.26074zM125.378 297.046q-23.6631 0 -40.3954 -16.7331q-16.7323 -16.7331 -16.7315 -40.3968q0 -23.6622 16.7322 -40.3942
q16.7322 -16.732 40.3947 -16.7328q23.6631 0.000732422 40.395 16.7327t16.7319 40.3943q0.000732425 23.6639 -16.7313 40.3969t-40.3957 16.733z" />
  </g>

</svg>
