<?xml version="1.0" standalone="no"?>
<!DOCTYPE svg PUBLIC "-//W3C//DTD SVG 1.1//EN" "http://www.w3.org/Graphics/SVG/1.1/DTD/svg11.dtd" >
<svg xmlns="http://www.w3.org/2000/svg" xmlns:xlink="http://www.w3.org/1999/xlink" version="1.1" viewBox="0 0 512 512">
  <g transform="matrix(1 0 0 -1 0 512)">
   <path fill="currentColor"
d="M405 299v42h-42v-42h42zM405 235v42h-42v-42h42zM341 299v42h-42v-42h42zM341 235v42h-42v-42h42zM341 149v43h-170v-43h170zM149 299v42h-42v-42h42zM149 235v42h-42v-42h42zM171 277v-42h42v42h-42zM171 341v-42h42v42h-42zM235 277v-42h42v42h-42zM235 341v-42h42v42
h-42zM427 405q17 0 29.5 -12.5t12.5 -29.5v-214q0 -17 -12.5 -29.5t-29.5 -12.5h-342q-17 0 -29.5 12.5t-12.5 29.5v214q0 17 12.5 29.5t29.5 12.5h342z" />
  </g>

</svg>
