<?xml version="1.0" standalone="no"?>
<!DOCTYPE svg PUBLIC "-//W3C//DTD SVG 1.1//EN" "http://www.w3.org/Graphics/SVG/1.1/DTD/svg11.dtd" >
<svg xmlns="http://www.w3.org/2000/svg" xmlns:xlink="http://www.w3.org/1999/xlink" version="1.1" viewBox="0 0 512 512">
  <g transform="matrix(1 0 0 -1 0 512)">
   <path fill="currentColor"
d="M256 512q99 0 166 -69l-30 -30q-56 56 -136 56t-136 -56l-30 30q69 69 166 69zM150 383q44 44 106 44t106 -44l-30 -30q-31 31 -76 31t-76 -31zM256 192q17 0 30 13t13 30t-13 29.5t-30 12.5t-30 -12.5t-13 -29.5t13 -30t30 -13zM320 320q9 0 15 -6t6 -15v-256
q0 -9 -6 -15.5t-15 -6.5h-128q-9 0 -15 6.5t-6 15.5v256q0 9 6 15t15 6h128z" />
  </g>

</svg>
