<?xml version="1.0" standalone="no"?>
<!DOCTYPE svg PUBLIC "-//W3C//DTD SVG 1.1//EN" "http://www.w3.org/Graphics/SVG/1.1/DTD/svg11.dtd" >
<svg xmlns="http://www.w3.org/2000/svg" xmlns:xlink="http://www.w3.org/1999/xlink" version="1.1" viewBox="0 0 512 512">
  <g transform="matrix(1 0 0 -1 0 512)">
   <path fill="currentColor"
d="M363 85q13 0 22.5 9.5t9.5 22.5t-9.5 22.5t-22.5 9.5t-22.5 -9.5t-9.5 -22.5t9.5 -22.5t22.5 -9.5zM171 85q13 0 22.5 9.5t9.5 22.5t-9.5 22.5t-22.5 9.5t-22.5 -9.5t-9.5 -22.5t9.5 -22.5t22.5 -9.5zM412 173q25 -23 25 -56q0 -31 -21.5 -52.5t-52.5 -21.5
q-28 0 -49 18.5t-25 45.5h-45q-4 -27 -24.5 -45.5t-48.5 -18.5q-31 0 -53 21.5t-22 52.5q0 44 39 66l-45 94h-47v43h74l20 -43h311q0 -57 -36 -104zM277 469q71 0 121 -50t50 -120h-171v170z" />
  </g>

</svg>
