<?xml version="1.0" standalone="no"?>
<!DOCTYPE svg PUBLIC "-//W3C//DTD SVG 1.1//EN" "http://www.w3.org/Graphics/SVG/1.1/DTD/svg11.dtd" >
<svg xmlns="http://www.w3.org/2000/svg" xmlns:xlink="http://www.w3.org/1999/xlink" version="1.1" viewBox="0 0 512 512">
  <g transform="matrix(1 0 0 -1 0 512)">
   <path fill="currentColor"
d="M149 320h107v-21h-107v21zM203 213q40 0 68 28t28 68t-28 68t-68 28t-68 -28t-28 -68t28 -68t68 -28zM331 213l106 -106l-32 -32l-106 106v17l-6 6q-38 -33 -90 -33q-58 0 -98.5 40t-40.5 98t40.5 98.5t98.5 40.5t98 -40.5t40 -98.5q0 -52 -33 -90l6 -6h17z" />
  </g>

</svg>
