<?xml version="1.0" standalone="no"?>
<!DOCTYPE svg PUBLIC "-//W3C//DTD SVG 1.1//EN" "http://www.w3.org/Graphics/SVG/1.1/DTD/svg11.dtd" >
<svg xmlns="http://www.w3.org/2000/svg" xmlns:xlink="http://www.w3.org/1999/xlink" version="1.1" viewBox="0 0 512 512">
  <g transform="matrix(1 0 0 -1 0 512)">
   <path fill="currentColor"
d="M448 117v246q-33 10 -75 10q-65 0 -117 -32v-245q52 32 117 32q39 0 75 -11zM373 416q76 0 118 -32v-311q0 -4 -3.5 -7.5t-7.5 -3.5q-3 0 -5 1q-41 22 -102 22q-65 0 -117 -32q-43 32 -117 32q-54 0 -102 -23q-1 0 -2.5 -0.5t-2.5 -0.5q-4 0 -7.5 3t-3.5 7v313
q43 32 118 32q74 0 117 -32q43 32 117 32z" />
  </g>

</svg>
