<?xml version="1.0" standalone="no"?>
<!DOCTYPE svg PUBLIC "-//W3C//DTD SVG 1.1//EN" "http://www.w3.org/Graphics/SVG/1.1/DTD/svg11.dtd" >
<svg xmlns="http://www.w3.org/2000/svg" xmlns:xlink="http://www.w3.org/1999/xlink" version="1.1" viewBox="0 0 512 512">
  <g transform="matrix(1 0 0 -1 0 512)">
   <path fill="currentColor"
d="M341 224q13 0 22.5 9t9.5 23t-9.5 23t-22.5 9t-22.5 -9t-9.5 -23t9.5 -23t22.5 -9zM256 171v170h213v-170h-213zM448 128v-21q0 -17 -13 -30t-30 -13h-298q-18 0 -30.5 13t-12.5 30v298q0 17 12.5 30t30.5 13h298q17 0 30 -13t13 -30v-21h-192q-18 0 -30.5 -13t-12.5 -30
v-170q0 -17 12.5 -30t30.5 -13h192z" />
  </g>

</svg>
