<?xml version="1.0" standalone="no"?>
<!DOCTYPE svg PUBLIC "-//W3C//DTD SVG 1.1//EN" "http://www.w3.org/Graphics/SVG/1.1/DTD/svg11.dtd" >
<svg xmlns="http://www.w3.org/2000/svg" xmlns:xlink="http://www.w3.org/1999/xlink" version="1.1" viewBox="0 0 512 512">
  <g transform="matrix(1 0 0 -1 0 512)">
   <path fill="currentColor"
d="M64 224q11 0 11 -11q0 -10 -11 -10t-11 10q0 11 11 11zM128 149q9 0 15 -6t6 -15t-6 -15t-15 -6t-15 6t-6 15t6 15t15 6zM213 75q11 0 11 -11t-11 -11q-10 0 -10 11t10 11zM64 309q11 0 11 -10q0 -11 -11 -11t-11 11q0 10 11 10zM128 235q9 0 15 -6.5t6 -15.5t-6 -15
t-15 -6t-15 6t-6 15t6 15.5t15 6.5zM448 224q11 0 11 -11q0 -10 -11 -10t-11 10q0 11 11 11zM213 149q9 0 15.5 -6t6.5 -15t-6.5 -15t-15.5 -6t-15 6t-6 15t6 15t15 6zM53 400l27 27l347 -347l-28 -27l-80 81q1 -2 1 -6q0 -9 -6 -15t-15 -6t-15.5 6t-6.5 15t6.5 15t15.5 6
q4 0 6 -1l-60 60q-2 -11 -11 -19t-21 -8q-13 0 -22.5 9.5t-9.5 22.5q0 12 8 21t19 11l-60 60q1 -2 1 -6q0 -9 -6 -15.5t-15 -6.5t-15 6.5t-6 15.5t6 15t15 6l6 -1zM299 75q10 0 10 -11t-10 -11q-11 0 -11 11t11 11zM384 363q-9 0 -15 6t-6 15t6 15t15 6t15 -6t6 -15t-6 -15
t-15 -6zM384 277q-9 0 -15 6.5t-6 15.5t6 15t15 6t15 -6t6 -15t-6 -15.5t-15 -6.5zM384 192q-9 0 -15 6t-6 15t6 15.5t15 6.5t15 -6.5t6 -15.5t-6 -15t-15 -6zM213 363q-9 0 -15 6t-6 15t6 15t15 6t15.5 -6t6.5 -15t-6.5 -15t-15.5 -6zM448 288q-11 0 -11 11q0 10 11 10
t11 -10q0 -11 -11 -11zM213 437q-10 0 -10 11t10 11q11 0 11 -11t-11 -11zM299 437q-11 0 -11 11t11 11q10 0 10 -11t-10 -11zM294 267q-10 1 -18 9t-9 18v5q0 13 9.5 22.5t22.5 9.5t22.5 -9.5t9.5 -22.5t-9.5 -22.5t-22.5 -9.5h-5zM299 363q-9 0 -15.5 6t-6.5 15t6.5 15
t15.5 6t15 -6t6 -15t-6 -15t-15 -6z" />
  </g>

</svg>
