<?xml version="1.0" standalone="no"?>
<!DOCTYPE svg PUBLIC "-//W3C//DTD SVG 1.1//EN" "http://www.w3.org/Graphics/SVG/1.1/DTD/svg11.dtd" >
<svg xmlns="http://www.w3.org/2000/svg" xmlns:xlink="http://www.w3.org/1999/xlink" version="1.1" viewBox="0 0 512 512">
  <g transform="matrix(1 0 0 -1 0 512)">
   <path fill="currentColor"
d="M277 87q58 7 99.5 48.5t48.5 99.5h-148v-148zM85 256q0 -65 43 -113t107 -56v338q-63 -8 -106.5 -56t-43.5 -113zM277 425v-148h148q-7 58 -48.5 99.5t-99.5 48.5zM256 469q88 0 150.5 -62.5t62.5 -150.5t-62.5 -150.5t-150.5 -62.5t-150.5 62.5t-62.5 150.5t62.5 150.5
t150.5 62.5z" />
  </g>

</svg>
