<?xml version="1.0" standalone="no"?>
<!DOCTYPE svg PUBLIC "-//W3C//DTD SVG 1.1//EN" "http://www.w3.org/Graphics/SVG/1.1/DTD/svg11.dtd" >
<svg xmlns="http://www.w3.org/2000/svg" xmlns:xlink="http://www.w3.org/1999/xlink" version="1.1" viewBox="0 0 512 512">
  <g transform="matrix(1 0 0 -1 0 512)">
   <path fill="currentColor"
d="M154.102 440.812q20.3691 0 38.5938 -4.94824q18.2246 -4.94824 29.6855 -12.0107t20.0127 -14.125q8.55078 -7.0625 12.2266 -12.0107l3.6748 -4.94824q1.29688 1.94629 3.84473 5.17578q2.54785 3.23047 11.7188 11.4873q9.1709 8.25586 19.7793 14.5664
q10.6094 6.31055 28.123 11.4873q17.5137 5.17578 36.6514 5.17578q51.1875 0 89.0225 -35.5117q37.835 -35.5107 37.835 -83.2734v-167.195q0.129883 -3.16504 -0.626953 -7.85742q-0.755859 -4.69141 -9.10059 -12.5488q-8.34473 -7.85742 -23.7803 -7.85742
q-15.4346 0 -23.6494 7.05664q-8.21484 7.05762 -8.71289 14.1152l-0.49707 7.05664v156.725q0.12793 2.25781 -0.0351562 6.00586t-3.0918 13.3281t-8.56836 16.9023q-5.64062 7.32227 -18.5967 13.3281q-12.9551 6.00586 -31.0439 6.00586q-18.0879 0 -31.3027 -5.72266
q-13.2139 -5.72168 -19.1523 -13.8887t-9.29395 -16.334q-3.35449 -8.16699 -3.64844 -13.8887l-0.293945 -5.72266l-0.0332031 -125.871q0.0205078 -1.47559 -0.154297 -3.92578q-0.175781 -2.44922 -2.02734 -8.71094t-5.16699 -11.0469
q-3.31543 -4.78613 -10.6885 -8.71094q-7.37305 -3.92578 -17.4785 -3.92578q-16.04 0 -24.7227 9.07812t-9.34473 18.1562l-0.663086 9.07812v126.094q-0.0927734 2.24707 -0.594727 5.97559q-0.501953 3.72949 -4.11133 13.2617q-3.6084 9.53223 -9.51562 16.8184
q-5.90723 7.28516 -18.4629 13.2617q-12.5557 5.97559 -29.2998 5.97559q-18.3994 0 -31.9883 -5.71484q-13.5889 -5.71582 -19.8389 -13.8721q-6.25098 -8.15723 -9.87207 -16.3145q-3.62207 -8.15625 -4.06738 -13.8721l-0.446289 -5.71484l0.0585938 -156.857
q-0.0390625 -3.15039 -1.04199 -7.81934q-1.00293 -4.66895 -9.74219 -12.4883q-8.74023 -7.81934 -24.1357 -7.81934q-15.2041 0 -23.6514 7.07617t-9.29199 14.1523l-0.845703 7.07617q-0.0371094 109.294 -0.0371094 167.014q0 45.1533 37.3135 82.1133
q37.3135 36.9609 90.0771 36.9609zM368.957 130.572q9.88184 -0.0439453 -6.8291 -20.9932q-34.1279 -42.7842 -88.4619 -50.125q-8.24902 -1.11426 -16.541 -1.11426q-57.3418 0 -94.4922 45.0869q-18.1436 22.0205 -10.9395 26.4629q1.79199 1.10547 5.58203 -0.506836
q6.48242 -2.75684 19.8164 -13.0771q13.335 -10.3193 31.5439 -16.3281q18.209 -6.00879 48.7725 -6.01074q30.3994 -0.00195312 51.4785 6.94922q21.0801 6.95215 36.1895 17.0176q15.1094 10.0664 21.1484 12.1094q1.58008 0.53418 2.73242 0.529297z" />
  </g>

</svg>
