<?xml version="1.0" standalone="no"?>
<!DOCTYPE svg PUBLIC "-//W3C//DTD SVG 1.1//EN" "http://www.w3.org/Graphics/SVG/1.1/DTD/svg11.dtd" >
<svg xmlns="http://www.w3.org/2000/svg" xmlns:xlink="http://www.w3.org/1999/xlink" version="1.1" viewBox="0 0 512 512">
  <g transform="matrix(1 0 0 -1 0 512)">
   <path fill="currentColor"
d="M405 64v43h43q0 -17 -13 -30t-30 -13zM405 235v42h43v-42h-43zM320 405v43h43v-43h-43zM405 149v43h43v-43h-43zM235 21v470h42v-470h-42zM405 448q17 0 30 -13t13 -30h-43v43zM64 405q0 17 13 30t30 13h85v-43h-85v-298h85v-43h-85q-17 0 -30 13t-13 30v298zM405 320v43
h43v-43h-43zM320 64v43h43v-43h-43z" />
  </g>

</svg>
