<?xml version="1.0" standalone="no"?>
<!DOCTYPE svg PUBLIC "-//W3C//DTD SVG 1.1//EN" "http://www.w3.org/Graphics/SVG/1.1/DTD/svg11.dtd" >
<svg xmlns="http://www.w3.org/2000/svg" xmlns:xlink="http://www.w3.org/1999/xlink" version="1.1" viewBox="0 0 512 512">
  <g transform="matrix(1 0 0 -1 0 512)">
   <path fill="currentColor"
d="M439 195l30 -31l-45 -45l30 -31l-30 -30l-31 30l-45 -45l-31 30l-30 -30l-31 30l76 76l-183 183l-76 -76l-30 31l30 30l-30 31l45 45l-30 31l30 30l31 -30l45 45l31 -30l30 30l31 -30l-76 -76l183 -183l76 76l30 -31z" />
  </g>

</svg>
