<?xml version="1.0" standalone="no"?>
<!DOCTYPE svg PUBLIC "-//W3C//DTD SVG 1.1//EN" "http://www.w3.org/Graphics/SVG/1.1/DTD/svg11.dtd" >
<svg xmlns="http://www.w3.org/2000/svg" xmlns:xlink="http://www.w3.org/1999/xlink" version="1.1" viewBox="0 0 512 512">
  <g transform="matrix(1 0 0 -1 0 512)">
   <path fill="currentColor"
d="M342 294q31 0 52.5 -19t21.5 -48v-35h-32v28q0 20 -12.5 31.5t-29.5 11.5h-33q-29 0 -50 21.5t-21 50.5t21 50t50 21v-32q-17 0 -28 -10.5t-11 -26.5q0 -17 11.5 -30t27.5 -13h33zM402 347q30 -14 48.5 -43t18.5 -64v-48h-32v48q0 36 -24.5 61t-60.5 25v32
q16 0 27.5 11.5t11.5 28.5q0 16 -11.5 27.5t-27.5 11.5v32q29 0 50 -21t21 -50q0 -30 -21 -51zM384 171h32v-64h-32v64zM437 171h32v-64h-32v64zM43 171h320v-64h-320v64z" />
  </g>

</svg>
