<?xml version="1.0" standalone="no"?>
<!DOCTYPE svg PUBLIC "-//W3C//DTD SVG 1.1//EN" "http://www.w3.org/Graphics/SVG/1.1/DTD/svg11.dtd" >
<svg xmlns="http://www.w3.org/2000/svg" xmlns:xlink="http://www.w3.org/1999/xlink" version="1.1" viewBox="0 0 512 512">
  <g transform="matrix(1 0 0 -1 0 512)">
   <path fill="currentColor"
d="M427 192v128h-27v-75l-53 75h-27v-128h27v75l54 -75h26zM267 192v128h-32v-128h32zM192 267v21q0 14 -9 23t-23 9h-75v-128h32v43h43q14 0 23 9.5t9 22.5zM427 427q18 0 30 -12.5t12 -30.5v-256q0 -18 -12 -30.5t-30 -12.5h-342q-18 0 -30 12.5t-12 30.5v256
q0 18 12 30.5t30 12.5h342zM117 288h43v-21h-43v21z" />
  </g>

</svg>
