<?xml version="1.0" standalone="no"?>
<!DOCTYPE svg PUBLIC "-//W3C//DTD SVG 1.1//EN" "http://www.w3.org/Graphics/SVG/1.1/DTD/svg11.dtd" >
<svg xmlns="http://www.w3.org/2000/svg" xmlns:xlink="http://www.w3.org/1999/xlink" version="1.1" viewBox="0 0 512 512">
  <g transform="matrix(1 0 0 -1 0 512)">
   <path fill="currentColor"
d="M53 459q98 -99 408 -406l-24 -23l-162 162h-72v73l-32 32v-105h-32v53h-43v-53h-32v128h32v-43h43v43h8l-117 117zM277 288h-8l-32 32h40q13 0 22.5 -9.5t9.5 -22.5v-41l-32 32v9zM373 288v-21h43v21h-43zM373 192h-8l-24 23v105h75q13 0 22.5 -9.5t9.5 -22.5v-21
q0 -23 -19 -30l19 -45h-32l-19 43h-24v-43z" />
  </g>

</svg>
