<?xml version="1.0" standalone="no"?>
<!DOCTYPE svg PUBLIC "-//W3C//DTD SVG 1.1//EN" "http://www.w3.org/Graphics/SVG/1.1/DTD/svg11.dtd" >
<svg viewBox="0 0 512 512">
  <g transform="matrix(1 0 0 -1 0 512)">
   <path fill="currentColor"
d="M208.429 196.343l124.457 64.285l-124.457 65.058v-129.343zM256 418q43.2 0 83.442 -1.15701q40.244 -1.15698 59.015 -2.44299l18.772 -1.02798q0.256989 0 4.371 -0.386017q4.11398 -0.385986 5.914 -0.772003q1.79999 -0.385986 6.04401 -1.15598
q4.24197 -0.772003 7.32797 -2.05801t7.20001 -3.34299q4.11401 -2.05701 7.97202 -5.01401q3.85599 -2.957 7.45599 -6.815q1.54401 -1.54199 3.98599 -4.75699q2.44199 -3.21402 7.457 -15.043q5.01498 -11.828 6.814 -25.97q2.05701 -16.458 3.215 -35.101
q1.15701 -18.643 1.414 -29.186v-10.285v-34.972q0.257019 -37.285 -4.629 -74.572q-1.79901 -14.142 -6.42801 -25.585q-4.629 -11.443 -8.22897 -15.814l-3.60001 -4.371q-3.60001 -3.85799 -7.45599 -6.81499q-3.858 -2.957 -7.97202 -4.885
q-4.11401 -1.929 -7.20001 -3.214q-3.086 -1.286 -7.32797 -2.05801q-4.24402 -0.770996 -6.17203 -1.157q-1.92899 -0.385796 -5.914 -0.7715q-3.98599 -0.385803 -4.24298 -0.385803q-64.543 -4.8857 -161.229 -4.8857q-53.229 0.514603 -92.442 1.6719
q-39.215 1.1562 -51.558 1.9277l-12.5996 1.0283l-9.2578 1.0293q-9.2569 1.2848 -14.0147 2.57179q-4.7558 1.286 -13.1133 5.399q-8.3574 4.114 -14.5283 10.544q-1.5439 1.542 -3.9863 4.757q-2.4424 3.214 -7.457 15.043q-5.0147 11.828 -6.8145 25.97
q-2.0566 16.458 -3.2139 35.101q-1.1572 18.643 -1.415 29.186v10.285v34.972q-0.2568 37.285 4.6289 74.572q1.7998 14.142 6.4287 25.585t8.2285 15.814l3.6006 4.371q3.5996 3.858 7.4561 6.815q3.8574 2.957 7.9717 5.01401q4.1142 2.05698 7.2002 3.34299
q3.0859 1.28601 7.32809 2.05801q4.2431 0.769989 6.0439 1.15598q1.7998 0.386017 5.9141 0.772003q4.1142 0.386017 4.3711 0.386017q64.5425 4.62799 161.229 4.62799z" />
  </g>

</svg>
