<?xml version="1.0" standalone="no"?>
<!DOCTYPE svg PUBLIC "-//W3C//DTD SVG 1.1//EN" "http://www.w3.org/Graphics/SVG/1.1/DTD/svg11.dtd" >
<svg xmlns="http://www.w3.org/2000/svg" xmlns:xlink="http://www.w3.org/1999/xlink" version="1.1" viewBox="0 0 512 512">
  <g transform="matrix(1 0 0 -1 0 512)">
   <path fill="currentColor"
d="M448 107v277h-192v-277h192zM448 427q17 0 30 -13t13 -30v-277q0 -17 -13 -30t-30 -13h-384q-17 0 -30 13t-13 30v277q0 17 13 30t30 13h384zM277 203h150v-32h-150v32zM277 309h150v-32h-150v32zM277 256h150v-32h-150v32z" />
  </g>

</svg>
