<?xml version="1.0" standalone="no"?>
<!DOCTYPE svg PUBLIC "-//W3C//DTD SVG 1.1//EN" "http://www.w3.org/Graphics/SVG/1.1/DTD/svg11.dtd" >
<svg xmlns="http://www.w3.org/2000/svg" xmlns:xlink="http://www.w3.org/1999/xlink" version="1.1" viewBox="0 0 512 512">
  <g transform="matrix(1 0 0 -1 0 512)">
   <path fill="currentColor"
d="M217.021 498.42q15.1016 -0.210938 21.8252 -5.71387q6.72363 -5.50195 4.85742 -13.3291q-8.70508 -36.5059 -13.1191 -51.6475q-30.4346 32.834 -38.0039 56.8604q-1.56348 4.96289 4.8457 9.28809q6.40918 4.32617 19.5947 4.54199zM294.98 498.42
q13.1855 -0.21582 19.5938 -4.54199q6.40918 -4.3252 4.8457 -9.28809q-7.56934 -24.0264 -38.0039 -56.8604q-4.41406 15.1416 -13.1191 51.6475q-1.86621 7.82715 4.85742 13.3291q6.72461 5.50293 21.8262 5.71387zM142.941 486.458q8.16016 0.21875 15.8008 -4.4834
t6.98047 -10.8398q-2.42871 -22.5957 -8.17188 -47.8477q-22.5801 19.4287 -47.7852 30.5254q-2.17383 0.958008 -2.17383 7.20117q0 9.80273 9.71484 17.4111q9.71484 7.60742 25.6348 8.0332zM369.059 486.458q15.9199 -0.425781 25.6348 -8.0332
q9.71484 -7.6084 9.71484 -17.4111q0 -6.24316 -2.17383 -7.20117q-25.2051 -11.0967 -47.7852 -30.5254q-5.74316 25.252 -8.17188 47.8477q-0.660156 6.1377 6.98047 10.8398t15.8008 4.4834zM179.537 484.012q8.99219 -30.1582 46.752 -70.166
q-9.03613 -27.4922 -20.1045 -47.04q-12.2422 18.7666 -26.3047 34.499q-5.66309 6.33496 -11.668 12.1982q9.1748 37.7725 11.3252 70.5088zM332.463 484.012q2.15039 -32.7363 11.3252 -70.5088q-6.00488 -5.86328 -11.668 -12.1982q-14.0625 -15.7324 -26.3047 -34.499
q-11.0684 19.5479 -20.1045 47.04q37.7598 40.0078 46.752 70.166zM256 476.554q20.9238 -87.0508 42.3057 -121.839q-14.377 -24.6045 -25.5723 -55.251q-16.207 7.05664 -33.4668 0q-10.9971 29.8916 -25.5723 55.251q9.52148 15.4922 20.0977 45.9512
q10.5771 30.46 16.3926 53.1738zM63.4932 453.719q31.4258 -3.94824 59.6338 -20.7812q28.207 -16.832 47.833 -40.4961q19.626 -23.665 32.668 -45.8682q13.043 -22.2041 20.8369 -43.3867q-30.1572 8.31738 -42.5615 -11.9102q-5.68164 4.47754 -11.0615 6.8877
l-15.2744 6.83984l-2.35645 -16.5703q-2.0293 -14.2578 -1.90332 -27.665q-8.62012 18.7588 -9.80078 34.9443q-7.74805 106.265 -78.0137 158.006zM448.507 453.719q-70.2627 -51.7402 -78.0137 -158.006q-1.18066 -16.1855 -9.80078 -34.9443
q0.125977 13.4072 -1.90332 27.665l-2.35645 16.5703l-15.2744 -6.83984q-5.37988 -2.41016 -11.0615 -6.8877q-12.4043 20.2275 -42.5615 11.9102q7.79395 21.1826 20.8369 43.3867q13.042 22.2031 32.668 45.8682q19.626 23.6641 47.833 40.4961
q28.208 16.833 59.6338 20.7812zM79.9688 422.215q7.51562 -8.10742 13.8262 -17.0762q-9.06836 -4.5127 -14.2705 -8.61914q-5.20312 -4.10742 -9.73828 -14.1016q-4.53418 -9.99414 -4.53418 -24.7334v-325.238h166.136v134.929q-4.13477 -1.63477 -12.8916 1.08887
q-8.75586 2.72461 -19.4736 11.333q-10.7178 8.60938 -19.6797 21.7295q-8.96191 13.1201 -13.2363 35.5693q-4.27539 22.4502 -0.416992 49.5635q8.61719 -3.86035 21.0264 -17.5205q12.4082 -13.6592 15.3506 -27.6797l4.12012 -0.166016q3.68848 30.8135 21.6758 52.7256
q24.1826 -41.9033 24.1826 -126.644v-155.586h-207.45v341.94q0 24.5352 8.34277 39.9688t27.0312 28.5166zM432.031 422.215q18.6885 -13.083 27.0312 -28.5166t8.34277 -39.9688v-341.94h-207.45v155.586q0 84.7402 24.1826 126.644q17.9873 -21.9121 21.6758 -52.7256
l4.11816 0.166016q2.94141 14.0205 15.3506 27.6797q12.4102 13.6602 21.0283 17.5205q3.8584 -27.1133 -0.416992 -49.5635q-4.27441 -22.4492 -13.2363 -35.5693q-8.96191 -13.1201 -19.6797 -21.7295q-10.7178 -8.6084 -19.4736 -11.333
q-8.75684 -2.72363 -12.8916 -1.08887v-134.929h166.136v325.238q0 21.1562 -7.32715 30.8496q-7.32617 9.69336 -21.2158 16.6045q6.31055 8.96875 13.8262 17.0762z" />
  </g>

</svg>
