<?xml version="1.0" standalone="no"?>
<!DOCTYPE svg PUBLIC "-//W3C//DTD SVG 1.1//EN" "http://www.w3.org/Graphics/SVG/1.1/DTD/svg11.dtd" >
<svg xmlns="http://www.w3.org/2000/svg" xmlns:xlink="http://www.w3.org/1999/xlink" version="1.1" viewBox="0 0 512 512">
  <g transform="matrix(1 0 0 -1 0 512)">
   <path fill="currentColor"
d="M256 235q44 0 75.5 31t31.5 75h-43q0 -26 -19 -45t-45 -19t-45 19t-19 45h-43q0 -44 31.5 -75t75.5 -31zM256 448q-26 0 -45 -19t-19 -45h128q0 26 -19 45t-45 19zM405 384q17 0 30 -13t13 -30v-256q0 -17 -13 -29.5t-30 -12.5h-298q-17 0 -30 12.5t-13 29.5v256
q0 17 13 30t30 13h42q0 44 31.5 75.5t75.5 31.5t75.5 -31.5t31.5 -75.5h42z" />
  </g>

</svg>
