<?xml version="1.0" standalone="no"?>
<!DOCTYPE svg PUBLIC "-//W3C//DTD SVG 1.1//EN" "http://www.w3.org/Graphics/SVG/1.1/DTD/svg11.dtd" >
<svg xmlns="http://www.w3.org/2000/svg" xmlns:xlink="http://www.w3.org/1999/xlink" version="1.1" viewBox="0 0 512 512">
  <g transform="matrix(1 0 0 -1 0 512)">
   <path fill="currentColor"
d="M149 256v-43h-42v43h42zM149 341v-42h-42v42h42zM405 256v-43h-234v43h234zM405 341v-42h-234v42h234zM448 149v256h-384v-256h384zM448 448q17 0 30 -13t13 -30l-1 -256q0 -17 -12.5 -29.5t-29.5 -12.5h-107v-43h-170v43h-107q-17 0 -30 12.5t-13 29.5v256q0 17 13 30
t30 13h384z" />
  </g>

</svg>
