<?xml version="1.0" standalone="no"?>
<!DOCTYPE svg PUBLIC "-//W3C//DTD SVG 1.1//EN" "http://www.w3.org/Graphics/SVG/1.1/DTD/svg11.dtd" >
<svg xmlns="http://www.w3.org/2000/svg" xmlns:xlink="http://www.w3.org/1999/xlink" version="1.1" viewBox="0 0 512 512">
  <g transform="matrix(1 0 0 -1 0 512)">
   <path fill="currentColor"
d="M256 467.544q87.999 0 150.5 -62.5q62.499 -62.501 62.5 -150.5q0 -88.001 -62.5 -150.5q-62.5 -62.501 -150.5 -62.5q-88 0 -150.5 62.5q-62.5 62.499 -62.5 150.5q0 87.999 62.5 150.5q62.499 62.499 150.5 62.5zM256 425.544q-70 0 -120.5 -50.5
q-50.5 -50.501 -50.5 -120.5q0 -70.001 50.5 -120.5q50.499 -50.501 120.5 -50.5q69.999 0 120.5 50.5q50.499 50.499 50.5 120.5q0 69.999 -50.5 120.5q-50.5 50.499 -120.5 50.5zM193.085 326.95q25.5557 0 40.2695 -14.7129q16.2627 -16.2627 16.2617 -37.9453h-29.4277
q0 5.41992 -2.32227 10.0664q-3.86914 7.73926 -5.42188 9.29297q-7.74512 7.74316 -19.3594 7.74414q-30.9756 0 -30.9766 -44.916v-4.64648q0 -44.917 30.9766 -44.9141q11.6162 0 19.3594 6.58203q7.74512 6.58105 7.74414 16.6484h29.4277q0 -19.3604 -17.0371 -34.0723
q-16.2627 -13.9395 -39.4941 -13.9395q-30.9756 0 -47.2383 18.5859q-16.2627 18.585 -16.2637 51.1094v4.64648q0 31.751 15.4883 49.5625q18.5859 20.9072 48.0137 20.9082zM325.886 326.95q25.5537 0 40.2695 -14.7129q16.2607 -16.2627 16.2617 -37.9453h-29.4277
q0 5.41992 -2.32227 10.0664q-3.87305 7.74316 -5.42188 9.29297q-7.74512 7.74316 -19.3594 7.74414q-30.9775 0 -30.9766 -44.916v-4.64648q0 -44.917 30.9766 -44.9141q11.6143 0 19.3594 6.58203q7.74316 6.58105 7.74414 16.6484h29.4277q0 -19.3604 -17.0371 -34.0723
q-16.2627 -13.9395 -39.4941 -13.9395q-30.9775 0 -47.2383 18.5859q-16.2627 18.585 -16.2637 51.1094v4.64648q0 31.751 15.4883 49.5625q18.585 20.9072 48.0137 20.9082z" />
  </g>

</svg>
