<?xml version="1.0" standalone="no"?>
<!DOCTYPE svg PUBLIC "-//W3C//DTD SVG 1.1//EN" "http://www.w3.org/Graphics/SVG/1.1/DTD/svg11.dtd" >
<svg xmlns="http://www.w3.org/2000/svg" xmlns:xlink="http://www.w3.org/1999/xlink" version="1.1" viewBox="0 0 512 512">
  <g transform="matrix(1 0 0 -1 0 512)">
   <path fill="currentColor"
d="M256 171q35 0 60 25t25 60t-25 60t-60 25t-60 -25t-25 -60t25 -60t60 -25zM49 137q0 38 22.5 72.5t59.5 46.5l-18 9q-30 18 -47 47.5t-17 62.5q64 37 128 0q9 -4 17 -11q-2 14 -2 20q0 35 17.5 64.5t46.5 46.5q29 -17 46.5 -46.5t17.5 -64.5q0 -6 -2 -20q8 7 17 11
q64 37 128 0q0 -33 -17 -62.5t-47 -47.5q-2 -1 -5.5 -3t-6.5 -3.5t-6 -2.5q3 -1 6 -2.5t6.5 -3.5t5.5 -3q30 -18 47 -47.5t17 -62.5q-64 -37 -128 0q-9 4 -17 11q2 -14 2 -20q0 -35 -17.5 -64.5t-46.5 -46.5q-29 17 -46.5 46.5t-17.5 64.5q0 6 2 20q-8 -7 -17 -11
q-64 -37 -128 0z" />
  </g>

</svg>
