<?xml version="1.0" standalone="no"?>
<!DOCTYPE svg PUBLIC "-//W3C//DTD SVG 1.1//EN" "http://www.w3.org/Graphics/SVG/1.1/DTD/svg11.dtd" >
<svg xmlns="http://www.w3.org/2000/svg" xmlns:xlink="http://www.w3.org/1999/xlink" version="1.1" viewBox="0 0 512 512">
  <g transform="matrix(1 0 0 -1 0 512)">
   <path fill="currentColor"
d="M363 469l64 -64l-64 -64v43h-171v43h171v42zM384 213v64h-85v-64h85zM235 85q9 0 15 6.5t6 15.5t-6 15t-15 6t-15.5 -6t-6.5 -15t6.5 -15.5t15.5 -6.5zM427 149h42v-42h-170q0 -26 -19 -45t-45 -19t-45 19t-19 45h-43q-17 0 -30 12.5t-13 29.5v64h150v64h-86v-42l-64 64
l64 64v-43h235q17 0 30 -13t13 -30v-128z" />
  </g>

</svg>
