<?xml version="1.0" standalone="no"?>
<!DOCTYPE svg PUBLIC "-//W3C//DTD SVG 1.1//EN" "http://www.w3.org/Graphics/SVG/1.1/DTD/svg11.dtd" >
<svg xmlns="http://www.w3.org/2000/svg" xmlns:xlink="http://www.w3.org/1999/xlink" version="1.1" viewBox="0 0 512 512">
  <g transform="matrix(1 0 0 -1 0 512)">
   <path fill="currentColor"
d="M286.828 425.167q2.21582 0.00878906 4.37207 -0.163086q34.7324 -3.54688 49.3877 -38.1787q14.6562 -34.6309 -8.17383 -85.0078q-11.1973 -21.8369 -36.4141 -43.8584t-47.3057 -35.6738q-22.0879 -13.6523 -61.2549 -35.4375q1.07715 -7.60254 5.64746 -19.8066
q4.56934 -12.2031 17.7197 -27.0566q13.1494 -14.8535 30.3955 -16.4639q27.793 -2.59375 51.7646 19.3838q23.9707 21.9785 48.5684 68.8096q11.9365 22.7256 60.2598 45.1074q19.2373 7.79199 18.1162 2.8584q-3.33594 -5.0459 -30.7979 -22.8125
q-27.4609 -17.7656 -27.6865 -23.0078q3.01562 -0.324219 10.2666 -0.28125q7.25195 0.0429688 11.7627 -0.458984t5.1416 -2.25195q1.10742 -3.07031 -5.06641 -14.2363q-6.1748 -11.165 -18.6875 -21.7295q-12.5127 -10.5635 -25.6367 -9.74023
q-1.62012 -3.2998 -4.7002 -8.78418q-3.08008 -5.4834 -13.5781 -19.5527t-22.0742 -24.8906t-29.7705 -19.8652q-18.1953 -9.04395 -37.0869 -9.40918q-18.8916 -0.364258 -34.0742 8.89453t-23.3574 22.7324q-8.17383 13.4746 -13.6494 27.001t-7.16406 23.0449
l-1.68848 9.51953q-19.9639 -7.87891 -41.8154 -19.1729q-21.8525 -11.293 -38.334 -21.3887q-16.4814 -10.0947 -30.2168 -19.0625q-13.7354 -8.96875 -20.7891 -13.6025q-7.05469 -4.63379 -6.72949 -3.60059q11.3828 36.1396 52.0977 65.4375
q40.7148 29.2969 84.0068 42.6484q1.90332 27.5176 3.89746 43.7861q1.99316 16.2695 10.2783 44.6709t22.5469 54.2441q12.8672 23.3154 41.6006 50.2764q28.7334 26.96 58.2217 27.0791zM276.229 386.392q-25.2246 0.170898 -47.8896 -26.0898
q-21.8203 -25.2812 -32.2812 -68.0352t-9.62305 -74.7217q10.5566 4.94531 25.1143 13.377q14.5576 8.43066 37.5176 23.9658t39.5771 35.6533q16.6172 20.1191 19.3652 39.3672q3.8252 26.7891 -5.50098 41.5791t-26.2793 14.9043zM467.562 288.574
q1.21484 0.118164 2.00781 -0.783203l27.585 -31.3975q1.4873 -1.69141 -0.271484 -3.10059l-32.9033 -26.3672q-1.75781 -1.40918 -3.24512 0.28418l-27.585 31.3975q-1.48535 1.68945 0.271484 3.09766l32.9023 26.3682q0.541992 0.432617 1.23828 0.500977z" />
  </g>

</svg>
