<?xml version="1.0" standalone="no"?>
<!DOCTYPE svg PUBLIC "-//W3C//DTD SVG 1.1//EN" "http://www.w3.org/Graphics/SVG/1.1/DTD/svg11.dtd" >
<svg xmlns="http://www.w3.org/2000/svg" xmlns:xlink="http://www.w3.org/1999/xlink" version="1.1" viewBox="0 0 512 512">
  <g transform="matrix(1 0 0 -1 0 512)">
   <path fill="currentColor"
d="M256 85q70 0 120.5 50.5t50.5 120.5q0 22 -7 48q-19 -5 -48 -5q-110 0 -174 90q-33 -80 -112 -115q-1 -6 -1 -18q0 -70 50.5 -120.5t120.5 -50.5zM256 469q88 0 150.5 -62.5t62.5 -150.5t-62.5 -150.5t-150.5 -62.5t-150.5 62.5t-62.5 150.5t62.5 150.5t150.5 62.5z
M320 261q11 0 19 -7.5t8 -18.5t-8 -19t-19 -8t-19 8t-8 19t8 18.5t19 7.5zM192 261q11 0 19 -7.5t8 -18.5t-8 -19t-19 -8t-19 8t-8 19t8 18.5t19 7.5z" />
  </g>

</svg>
