<?xml version="1.0" standalone="no"?>
<!DOCTYPE svg PUBLIC "-//W3C//DTD SVG 1.1//EN" "http://www.w3.org/Graphics/SVG/1.1/DTD/svg11.dtd" >
<svg xmlns="http://www.w3.org/2000/svg" xmlns:xlink="http://www.w3.org/1999/xlink" version="1.1" viewBox="0 0 512 512">
  <g transform="matrix(1 0 0 -1 0 512)">
   <path fill="currentColor"
d="M107 256q0 -26 19 -45t45 -19h85v-43h-85q-44 0 -75.5 31.5t-31.5 75.5v192h43v-192zM426 102q3 -15 -6.5 -26.5t-24.5 -11.5h-96v64l21 85h-128q-26 0 -45 19t-19 45v171h128v-128h107q17 0 29.5 -13t12.5 -30l-42 -149h30q12 0 21.5 -7.5t11.5 -18.5z" />
  </g>

</svg>
