<?xml version="1.0" standalone="no"?>
<!DOCTYPE svg PUBLIC "-//W3C//DTD SVG 1.1//EN" "http://www.w3.org/Graphics/SVG/1.1/DTD/svg11.dtd" >
<svg xmlns="http://www.w3.org/2000/svg" xmlns:xlink="http://www.w3.org/1999/xlink" version="1.1" viewBox="0 0 512 512">
  <g transform="matrix(1 0 0 -1 0 512)">
   <path fill="currentColor"
d="M318 43h-3q-46 12 -79 45q-46 46 -46 111q0 26 19 44.5t46 18.5t46.5 -18.5t19.5 -44.5q0 -17 12.5 -29t31.5 -12t32 12t13 29q0 60 -45.5 103t-109.5 43q-46 0 -84 -23.5t-57 -62.5q-12 -25 -12 -60q0 -40 14 -77q3 -10 -7 -13t-13 6q-16 45 -16 84t15 69q21 45 64.5 72
t95.5 27q73 0 124.5 -49.5t51.5 -118.5q0 -26 -19.5 -44t-46.5 -18t-46 18t-19 44q0 17 -13 29.5t-32 12.5t-31.5 -12.5t-12.5 -29.5q0 -56 40 -96q28 -28 70 -39q9 -1 7 -13q-2 -8 -10 -8zM265 199q0 -37 27.5 -64t68.5 -27q2 0 9 1t11.5 1t9 -1.5t5.5 -6.5q2 -11 -9 -13
q-12 -2 -26 -2q-40 0 -66 19q-51 35 -51 93q0 11 11 11q10 0 10 -11zM208 47q-4 0 -7 3q-27 27 -43 57q-23 40 -23 92q0 47 35.5 81t85.5 34t85.5 -34t35.5 -81q0 -10 -11 -10t-11 10q0 39 -29 66.5t-70 27.5t-70 -27.5t-29 -66.5q0 -48 19 -82q13 -23 40 -52q8 -7 0 -15
q-3 -3 -8 -3zM75 305q-7 0 -10 5t1 11q32 46 80 70q50 26 110 26t110 -26q49 -24 80 -69q6 -10 -3 -15q-10 -6 -15 3q-27 39 -72 62q-46 23 -100 23.5t-100 -23.5q-45 -23 -73 -63q-3 -4 -8 -4zM380 417q-4 0 -5 1q-59 30 -119 30q-65 0 -119 -30q-6 -3 -10.5 0.5t-4.5 9
t5 9.5q58 32 129 32q65 0 129 -32q7 -4 5 -12t-10 -8z" />
  </g>

</svg>
