<?xml version="1.0" standalone="no"?>
<!DOCTYPE svg PUBLIC "-//W3C//DTD SVG 1.1//EN" "http://www.w3.org/Graphics/SVG/1.1/DTD/svg11.dtd" >
<svg xmlns="http://www.w3.org/2000/svg" xmlns:xlink="http://www.w3.org/1999/xlink" version="1.1" viewBox="0 0 512 512">
  <g transform="matrix(1 0 0 -1 0 512)">
   <path fill="currentColor"
d="M405 491q17 0 30 -13t13 -30v-384q0 -17 -13 -30t-30 -13h-213q-17 0 -30 13t-13 30v64h43v-43h213v342h-213v-43h-43v64q0 17 13 30t30 13h213zM277 337l-85 -85l85 -86l-21 -21l-85 85l-86 -85l-21 21l85 86l-85 85l21 21l86 -85l85 85z" />
  </g>

</svg>
