<?xml version="1.0" standalone="no"?>
<!DOCTYPE svg PUBLIC "-//W3C//DTD SVG 1.1//EN" "http://www.w3.org/Graphics/SVG/1.1/DTD/svg11.dtd" >
<svg xmlns="http://www.w3.org/2000/svg" xmlns:xlink="http://www.w3.org/1999/xlink" version="1.1" viewBox="0 0 512 512">
  <g transform="matrix(1 0 0 -1 0 512)">
   <path fill="currentColor"
d="M171 363v-86h85v-42h-85v-86h-43v86h-85v42h85v86h43zM342 164h127v-36h-184v32l89 97q18 18 31 40q8 13 8 28q0 16 -11 31q-10 13 -30 13q-21 0 -35 -14q-11 -11 -11 -35h-46q0 36 24 60q14 14 29 19q18 6 40 6q18 0 36 -5q20 -8 27 -15q23 -20 23 -55q0 -24 -16 -50
q-12 -20 -17 -25q-14 -16 -23 -25z" />
  </g>

</svg>
