<?xml version="1.0" standalone="no"?>
<!DOCTYPE svg PUBLIC "-//W3C//DTD SVG 1.1//EN" "http://www.w3.org/Graphics/SVG/1.1/DTD/svg11.dtd" >
<svg xmlns="http://www.w3.org/2000/svg" xmlns:xlink="http://www.w3.org/1999/xlink" version="1.1" viewBox="0 0 512 512">
  <g transform="matrix(1 0 0 -1 0 512)">
   <path fill="currentColor"
d="M452 146.857q-11.1426 -35.7148 -35.1426 -71.4287q-36.8574 -56 -73.4287 -56q-14 0 -40 9.14258q-24.5713 9.14258 -43.1426 9.14258q-17.4287 0 -40.5723 -9.42773q-23.1426 -9.71484 -37.7139 -9.71484q-43.4287 0 -86 74q-42 74.5713 -42 143.715
q0 65.1426 32.2861 106.856q32 41.1436 81.1426 41.1436q20.5713 0 50.5713 -8.57227q29.7139 -8.57129 39.4287 -8.57129q12.8574 0 40.8574 9.71484q29.1426 9.71387 49.4277 9.71387q34 0 60.8574 -18.5713q14.8574 -10.2861 29.7148 -28.5713
q-22.5723 -19.1426 -32.5723 -33.7148q-18.5713 -26.8564 -18.5713 -59.1426q0 -35.4287 19.7148 -63.7139q19.7139 -28.2861 45.1426 -36zM344.571 482q0 -17.4287 -8.28516 -38.8574q-8.57227 -21.4287 -26.5723 -39.4287q-15.4277 -15.4277 -30.8564 -20.5713
q-10.5713 -3.14258 -29.7148 -4.85645q0.857422 42.5713 22.2861 73.4277q21.1426 30.5723 71.4287 42.2861q0.285156 -0.857422 0.713867 -3.14258q0.428711 -2.28613 0.714844 -3.14355q0 -1.14258 0.142578 -2.85645q0.142578 -1.71484 0.142578 -2.85742z" />
  </g>

</svg>
