<?xml version="1.0" standalone="no"?>
<!DOCTYPE svg PUBLIC "-//W3C//DTD SVG 1.1//EN" "http://www.w3.org/Graphics/SVG/1.1/DTD/svg11.dtd" >
<svg xmlns="http://www.w3.org/2000/svg" xmlns:xlink="http://www.w3.org/1999/xlink" version="1.1" viewBox="0 0 512 512">
  <g transform="matrix(1 0 0 -1 0 512)">
   <path fill="currentColor"
d="M242.52 299.646q0 -22.0713 -16.8867 -37.8945q-16.8867 -15.8213 -40.5547 -15.8213q-23.667 0 -40.5547 15.8213q-16.8857 15.8232 -16.8857 37.8945q0 22.3389 16.8857 38.0293q16.8877 15.6895 40.5547 15.6895q23.668 0 40.5547 -15.6895
q16.8867 -15.6904 16.8867 -38.0293zM376.015 299.646q0 -22.0713 -16.7529 -37.8945q-16.7529 -15.8213 -40.6875 -15.8213q-23.668 0 -40.5537 15.8213q-16.8857 15.8232 -16.8857 37.8945q0 22.3389 16.8857 38.0293q16.8857 15.6895 40.5537 15.6895
q23.9346 0 40.6875 -15.6895q16.7529 -15.6904 16.7529 -38.0293zM435.849 251.779v177.375c0 6.59958 -0.415116 13.2401 -2.05151 19.6335c-1.22722 4.79482 -3.16143 9.51683 -6.45728 13.2092c-3.04032 3.40613 -7.11468 5.77636 -11.4258 7.27954
c-5.77621 2.01402 -11.9755 2.42651 -18.0928 2.42651h-295.713c-6.24346 0 -12.5704 -0.261945 -18.5334 -2.11206c-4.29747 -1.33335 -8.4015 -3.56043 -11.3835 -6.92993c-3.08895 -3.49029 -4.81519 -7.98653 -5.88281 -12.5235
c-1.61299 -6.85456 -1.96094 -13.9416 -1.96094 -20.9834v-178.97c5.8566 -2.30378 11.5366 -5.02688 17.2097 -7.75146c2.08899 -1.00327 4.18843 -1.98646 6.32446 -2.88525c3.73973 -1.57359 7.59192 -2.8617 11.4441 -4.1355
c3.3626 -1.11192 6.71882 -2.24379 10.0959 -3.31079c3.35357 -1.05955 6.74074 -2.01858 10.1741 -2.78101c3.76386 -0.835819 7.5701 -1.46418 11.366 -2.13989c3.57485 -0.636365 7.1465 -1.29536 10.7393 -1.82129c2.70978 -0.396674 5.42747 -0.73686 8.1416 -1.10254
c2.57186 -0.34651 5.14434 -0.703796 7.73242 -0.894531c3.61931 -0.266734 7.25369 -0.172906 10.8828 -0.169922c3.38704 0.00278542 6.77325 -0.0985055 10.1602 -0.12915c1.79877 -0.0162754 3.59767 -0.0136003 5.39648 -0.00268555
c1.9166 0.0116295 3.83334 0.0348208 5.74878 0.102539c3.09331 0.10936 6.18205 0.327527 9.27563 0.428711c2.81405 0.0920416 5.6298 0.151237 8.43921 0.337158c1.13136 0.0748716 2.26255 0.156944 3.39575 0.195068
c2.58591 0.0869978 5.17432 -0.133476 7.73151 -0.527512c2.55719 -0.394036 5.10701 -0.837523 7.64715 -1.32967c1.88085 -0.364409 3.76757 -0.817548 5.4706 -1.6951c1.70303 -0.877552 3.10757 -2.22655 4.41343 -3.62839
c0.50906 -0.546474 1.02755 -1.08618 1.59644 -1.57007c0.341464 -0.290443 0.698736 -0.561851 1.06274 -0.823486c1.37879 -0.991019 2.80672 -1.92033 4.08399 -3.03914c1.27727 -1.11881 2.42183 -2.37864 3.57348 -3.62639
c2.50087 -2.70957 5.27711 -5.22632 8.56421 -6.89697c1.10218 5.37058 4.23155 10.2533 8.49817 13.6963c3.23373 2.60946 7.04347 4.42039 10.9542 5.82479c3.91075 1.4044 7.93367 2.46861 11.9275 3.61565c1.22763 0.352579 2.45204 0.716399 3.68213 1.0603
c1.28727 0.359892 2.58976 0.689399 3.92041 0.815674c2.32326 0.22047 4.65043 -0.311716 6.86475 -1.04858c2.18768 -0.728005 4.3829 -1.49479 6.67334 -1.75903c1.41127 -0.162817 2.83548 -0.167928 4.2561 -0.162598
c2.61519 0.0098129 5.22978 -0.0518064 7.84448 -0.103027c2.73482 -0.053574 5.47051 0.00513491 8.2041 0.103027c1.96275 0.0702879 3.92585 0.133542 5.88965 0.162598c2.08695 0.030878 4.17603 0.0430056 6.25708 0.202881
c2.75749 0.211842 5.48757 0.686296 8.23608 0.993408c2.97684 0.332625 5.97657 0.453148 8.94263 0.871094c2.44658 0.344745 4.85908 0.892327 7.27905 1.39062c2.62928 0.541396 5.27457 1.00411 7.89819 1.57227c2.87442 0.622465 5.71734 1.38301 8.58911 2.01758
c3.16911 0.700271 6.37594 1.25265 9.4873 2.17627c2.8313 0.840479 5.56413 1.97641 8.33105 3.00928c2.85621 1.0662 5.76211 1.99625 8.61084 3.08228c3.17719 1.21124 6.25382 2.66761 9.33838 4.09839c3.29695 1.5293 6.63372 2.97126 9.93555 4.48999
c3.13014 1.43976 6.21272 2.9854 9.21094 4.68286zM479.195 253.109q-32.1953 -39.1094 -98.9248 -67.0137q22.7295 -76.0957 -6.11621 -123.656q-18.1543 -30.4395 -48.666 -39.3584q-27.4883 -8.08105 -48.3984 3.98828q-23.0898 13.9307 -21.8066 43.6133
l-0.265625 86.6924v0.266602q-2.01758 0.358398 -6.51465 1.59473q-4.50293 0.763672 -6.25 1.33008l-0.265625 -89.8838q1.0127 -29.6826 -22.0723 -43.6133q-20.915 -12.0693 -48.665 -3.98828q-31.25 8.91895 -48.3984 39.8896q-27.8516 48.0293 -5.85059 123.125
q-76.001 31.9043 -98.9248 67.0137q-6.07617 9.89062 -1.06543 16.7539q5.06808 6.03905 15.957 -0.265625q1.03223 -0.597656 3.05762 -1.86133q2.79199 -1.62973 2.79199 -2.12793v184.555q0.182617 18.8369 12.499 32.709q13.1035 13.5625 30.3164 13.5625h334.271
q17.0967 -0.43457 30.3174 -13.5625q12.498 -13.5668 12.498 -32.709v-184.555l5.58398 3.98926q10.6973 7.40234 15.9561 0.265625q6.74121 -7.86328 -1.06348 -16.7539z" />
  </g>

</svg>
