<?xml version="1.0" standalone="no"?>
<!DOCTYPE svg PUBLIC "-//W3C//DTD SVG 1.1//EN" "http://www.w3.org/Graphics/SVG/1.1/DTD/svg11.dtd" >
<svg xmlns="http://www.w3.org/2000/svg" xmlns:xlink="http://www.w3.org/1999/xlink" version="1.1" viewBox="0 0 512 512">
  <g transform="matrix(1 0 0 -1 0 512)">
   <path fill="currentColor"
d="M277 331v42h-42v-42h42zM277 235v42h-42v-42h42zM277 139v42h-42v-42h42zM469 299q-17 0 -29.5 -13t-12.5 -30t12.5 -30t29.5 -13v-85q0 -17 -12.5 -30t-29.5 -13h-342q-17 0 -29.5 13t-12.5 30v85q18 0 30 12.5t12 30.5q0 17 -12.5 30t-29.5 13v85q0 18 12.5 30.5
t29.5 12.5h342q17 0 29.5 -12.5t12.5 -30.5v-85z" />
  </g>

</svg>
