<?xml version="1.0" standalone="no"?>
<!DOCTYPE svg PUBLIC "-//W3C//DTD SVG 1.1//EN" "http://www.w3.org/Graphics/SVG/1.1/DTD/svg11.dtd" >
<svg xmlns="http://www.w3.org/2000/svg" xmlns:xlink="http://www.w3.org/1999/xlink" version="1.1" viewBox="0 0 512 512">
  <g transform="matrix(1 0 0 -1 0 512)">
   <path fill="currentColor"
d="M320 0v43h43v-43h-43zM353 417q74 -52 74 -140q0 -70 -50 -120t-121 -50t-121 50t-50 120q0 88 74 140l30 -30q-61 -38 -61 -110q0 -53 37.5 -90.5t90.5 -37.5t90.5 37.5t37.5 90.5q0 72 -62 109zM277 469v-213h-42v213h42zM235 0v43h42v-43h-42zM149 0v43h43v-43h-43z
" />
  </g>

</svg>
