<?xml version="1.0" standalone="no"?>
<!DOCTYPE svg PUBLIC "-//W3C//DTD SVG 1.1//EN" "http://www.w3.org/Graphics/SVG/1.1/DTD/svg11.dtd" >
<svg xmlns="http://www.w3.org/2000/svg" xmlns:xlink="http://www.w3.org/1999/xlink" version="1.1" viewBox="0 0 512 512">
  <g transform="matrix(1 0 0 -1 0 512)">
   <path fill="currentColor"
d="M157.378 500.623q9.75488 -0.0917969 19.2832 -2.62695l44.3076 -11.791q-38.3242 -5.52539 -82.3652 -30.9512q-44.04 -25.4268 -67.9414 -55.8291l11.6797 43.8975q6.88086 25.8584 27.9316 41.7021q21.0508 15.8418 47.1045 15.5986zM255.405 469.467
q89.1445 0 152.234 -62.2949q63.0908 -62.2949 63.0908 -150.315q0 -88.0225 -63.0898 -150.317q-63.0908 -62.2939 -152.235 -62.2939q-89.1465 0 -152.237 62.2939q-63.0898 62.2949 -63.0898 150.316t63.0908 150.316q63.0898 62.2949 152.236 62.2949zM399.174 438.789
l45.8154 -12.1895q30.9541 -8.2373 46.9336 -35.7998q15.9785 -27.5645 7.74219 -58.5176l-12.9844 -48.7969q-4.82812 39.6025 -30.4668 85.1074q-25.6396 45.5039 -57.04 70.1963zM195.06 412.785q-25.4287 0 -43.4258 -17.9971q-17.9961 -17.998 -17.9961 -43.4268
t17.9971 -43.4258t43.4248 -17.9971q25.4297 0 43.4268 17.9961q17.998 17.9971 17.998 43.4258q0 25.4297 -17.998 43.4277q-17.9971 17.9971 -43.4268 17.9971zM348.459 383.285q-25.4287 0 -43.4258 -17.9971q-17.9961 -17.998 -17.9961 -43.4268t17.9971 -43.4258
q17.998 -17.9971 43.4248 -17.9971q25.4307 0 43.4277 17.9961q17.9971 17.9971 17.9971 43.4258q0 25.4297 -17.9971 43.4277q-17.9971 17.9971 -43.4277 17.9971zM255.332 282.354q-11.3418 0 -19.3682 -8.02637q-8.02539 -8.02539 -8.02539 -19.3662v-0.00195312
q0 -11.3408 8.02539 -19.3662q8.02637 -8.02637 19.3662 -8.02637h0.00292969q11.3398 0 19.3662 8.02637q8.02637 8.02539 8.02637 19.3662v0.00195312q0 11.3408 -8.02637 19.3662q-8.02637 8.02637 -19.3672 8.02637zM163.875 251.798q-25.4307 0 -43.4277 -17.9961
q-17.9971 -17.9971 -17.9971 -43.4258q0 -25.4287 17.9971 -43.4268q17.9971 -17.9961 43.4268 -17.9961q25.4287 0 43.4258 17.998q17.9971 17.9971 17.9971 43.4248q0 25.4277 -17.9971 43.4248q-17.9971 17.9971 -43.4248 17.9971zM318.116 223.142
q-25.4277 0 -43.4248 -17.9971q-17.998 -17.998 -17.998 -43.4248q0 -25.4307 17.9961 -43.4277q17.998 -17.9971 43.4268 -17.9971q25.4297 0 43.4268 17.9971q17.9971 17.9971 17.9971 43.4258q0 25.4307 -17.9971 43.4277q-17.9971 17.9961 -43.4268 17.9961z
M23.6133 222.609q5.34668 -37.1367 29.6836 -80.2842q24.3369 -43.1455 53.3779 -66.9736l-39.6641 10.5527q-30.9541 8.2373 -46.9336 35.7998q-15.9785 27.5645 -7.74219 58.5176zM442.163 116.181l-12.5049 -46.999q-8.2373 -30.9531 -35.8008 -46.9316
q-27.5654 -15.9785 -58.5186 -7.74219l-41.7656 11.1123q38.3066 6.41211 81.8428 32.9463q43.5371 26.5342 66.7471 57.6143z" />
  </g>

</svg>
