<?xml version="1.0" standalone="no"?>
<!DOCTYPE svg PUBLIC "-//W3C//DTD SVG 1.1//EN" "http://www.w3.org/Graphics/SVG/1.1/DTD/svg11.dtd" >
<svg xmlns="http://www.w3.org/2000/svg" xmlns:xlink="http://www.w3.org/1999/xlink" version="1.1" viewBox="0 0 512 512">
  <g transform="matrix(1 0 0 -1 0 512)">
   <path fill="currentColor"
d="M209 213q0 29 20 49t48 20q29 0 49 -20t20 -49q0 -28 -20 -48t-49 -20t-48.5 19.5t-19.5 48.5zM277 107q44 0 75.5 31t31.5 75t-31.5 75.5t-75.5 31.5t-75 -31.5t-31 -75.5t31 -75t75 -31zM128 299v64h64v64h149l39 -43h68q17 0 30 -13t13 -30v-256q0 -17 -13 -29.5
t-30 -12.5h-341q-17 0 -30 12.5t-13 29.5v214h64zM64 427v64h43v-64h64v-43h-64v-64h-43v64h-64v43h64z" />
  </g>

</svg>
