<?xml version="1.0" standalone="no"?>
<!DOCTYPE svg PUBLIC "-//W3C//DTD SVG 1.1//EN" "http://www.w3.org/Graphics/SVG/1.1/DTD/svg11.dtd" >
<svg xmlns="http://www.w3.org/2000/svg" xmlns:xlink="http://www.w3.org/1999/xlink" version="1.1" viewBox="0 0 512 512">
  <g transform="matrix(1 0 0 -1 0 512)">
   <path fill="currentColor"
d="M107 235q64 64 156 61l-28 -61q-49 -6 -86 -43zM363 192q-11 11 -26 21l12 62q32 -16 56 -40zM448 277q-39 39 -88 59l11 60q69 -25 120 -76zM21 320q59 59 136.5 82.5t156.5 9.5l-25 -57q-61 8 -120.5 -12.5t-104.5 -65.5zM339 405q11 0 11 -10l-52 -275v-1
q-3 -14 -15 -24t-27 -10q-18 0 -30.5 12.5t-12.5 30.5q0 11 5 21l111 248q3 8 10 8z" />
  </g>

</svg>
