<?xml version="1.0" standalone="no"?>
<!DOCTYPE svg PUBLIC "-//W3C//DTD SVG 1.1//EN" "http://www.w3.org/Graphics/SVG/1.1/DTD/svg11.dtd" >
<svg xmlns="http://www.w3.org/2000/svg" xmlns:xlink="http://www.w3.org/1999/xlink" version="1.1" viewBox="0 0 512 512">
  <g transform="matrix(1 0 0 -1 0 512)">
   <path fill="currentColor"
d="M427 181q9 0 15 -6t6 -15v-75q0 -9 -6 -15t-15 -6q-150 0 -256.5 106.5t-106.5 256.5q0 9 6 15t15 6h75q9 0 15 -6t6 -15q0 -40 12 -76q4 -13 -5 -22l-47 -47q47 -92 141 -141l47 47q9 9 22 5q36 -12 76 -12zM384 358v-40l20 20zM384 450v-40l20 20zM314 309l-15 15
l59 60l-59 60l15 15l49 -49v81h10l61 -61l-46 -46l46 -46l-61 -61h-10v81z" />
  </g>

</svg>
