<?xml version="1.0" standalone="no"?>
<!DOCTYPE svg PUBLIC "-//W3C//DTD SVG 1.1//EN" "http://www.w3.org/Graphics/SVG/1.1/DTD/svg11.dtd" >
<svg xmlns="http://www.w3.org/2000/svg" xmlns:xlink="http://www.w3.org/1999/xlink" version="1.1" viewBox="0 0 512 512">
  <g transform="matrix(1 0 0 -1 0 512)">
   <path fill="currentColor"
d="M256 491q97 0 166 -69t69 -166h-43q0 80 -56 136t-136 56t-136 -56t-56 -136h-43q0 97 69 166t166 69zM277 207v-70l73 -73l-30 -30l-64 64l-64 -64l-30 30l73 73v70q-32 13 -32 49q0 22 15.5 37.5t37.5 15.5t37.5 -15.5t15.5 -37.5q0 -36 -32 -49zM256 405
q62 0 105.5 -43.5t43.5 -105.5h-42q0 44 -31.5 75.5t-75.5 31.5t-75.5 -31.5t-31.5 -75.5h-42q0 62 43.5 105.5t105.5 43.5z" />
  </g>

</svg>
