<?xml version="1.0" standalone="no"?>
<!DOCTYPE svg PUBLIC "-//W3C//DTD SVG 1.1//EN" "http://www.w3.org/Graphics/SVG/1.1/DTD/svg11.dtd" >
<svg xmlns="http://www.w3.org/2000/svg" xmlns:xlink="http://www.w3.org/1999/xlink" version="1.1" viewBox="0 0 512 512">
  <g transform="matrix(1 0 0 -1 0 512)">
   <path fill="currentColor"
d="M309 224v64h43v-64h-43zM384 213v86q0 9 -6 15t-15 6h-64q-9 0 -15.5 -6t-6.5 -15v-86q0 -9 6.5 -15t15.5 -6h16v-32h32v32h16q9 0 15 6t6 15zM235 192v128h-32v-53h-43v53h-32v-128h32v43h43v-43h32zM405 427q17 0 30 -13t13 -30v-256q0 -17 -13 -30t-30 -13h-298
q-18 0 -30.5 13t-12.5 30v256q0 17 12.5 30t30.5 13h298z" />
  </g>

</svg>
