<?xml version="1.0" standalone="no"?>
<!DOCTYPE svg PUBLIC "-//W3C//DTD SVG 1.1//EN" "http://www.w3.org/Graphics/SVG/1.1/DTD/svg11.dtd" >
<svg xmlns="http://www.w3.org/2000/svg" xmlns:xlink="http://www.w3.org/1999/xlink" version="1.1" viewBox="0 0 512 512">
  <g transform="matrix(1 0 0 -1 0 512)">
   <path fill="currentColor"
d="M96 277q-14 0 -23 9.5t-9 22.5t9 22.5t23 9.5t23 -9.5t9 -22.5t-9 -22.5t-23 -9.5zM473 316q0 -57 -38 -99t-94 -49v-83h64v-42h-341v106h-21v86q0 9 6 15t15 6h64q9 0 15 -6t6 -15v-86h-21v-64h171v84q-54 9 -89.5 50.5t-35.5 96.5q0 62 44 106t106 44t105.5 -44
t43.5 -106z" />
  </g>

</svg>
