<?xml version="1.0" standalone="no"?>
<!DOCTYPE svg PUBLIC "-//W3C//DTD SVG 1.1//EN" "http://www.w3.org/Graphics/SVG/1.1/DTD/svg11.dtd" >
<svg xmlns="http://www.w3.org/2000/svg" xmlns:xlink="http://www.w3.org/1999/xlink" version="1.1" viewBox="0 0 512 512">
  <g transform="matrix(1 0 0 -1 0 512)">
   <path fill="currentColor"
d="M230 299v-22h52v22q0 10 -7.5 17.5t-18.5 7.5t-18.5 -7.5t-7.5 -17.5zM213 171q-9 0 -15 6t-6 15v64q0 9 6 15t15 6v22q0 17 12.5 29.5t30.5 12.5t30.5 -12t12.5 -30v-22q9 0 15 -6t6 -15v-64q0 -9 -6 -15t-15 -6h-86zM405 149v214h-298v-214h298zM448 405q17 0 30 -12.5
t13 -29.5v-214q0 -17 -13 -29.5t-30 -12.5h-384q-17 0 -30 12.5t-13 29.5v214q0 17 13 29.5t30 12.5h384z" />
  </g>

</svg>
