<?xml version="1.0" standalone="no"?>
<!DOCTYPE svg PUBLIC "-//W3C//DTD SVG 1.1//EN" "http://www.w3.org/Graphics/SVG/1.1/DTD/svg11.dtd" >
<svg xmlns="http://www.w3.org/2000/svg" xmlns:xlink="http://www.w3.org/1999/xlink" version="1.1" viewBox="0 0 512 512">
  <g transform="matrix(1 0 0 -1 0 512)">
   <path fill="currentColor"
d="M341 299l-85 -86l-85 86h42v64h86v-64h42zM405 192v213h-299v-213h86q0 -26 19 -45t45 -19t45 19t19 45h85zM405 448q17 0 30 -13t13 -30v-298q0 -17 -13 -30t-30 -13h-299q-18 0 -30 12.5t-12 30.5v298q0 18 12 30.5t30 12.5h299z" />
  </g>

</svg>
