<?xml version="1.0" standalone="no"?>
<!DOCTYPE svg PUBLIC "-//W3C//DTD SVG 1.1//EN" "http://www.w3.org/Graphics/SVG/1.1/DTD/svg11.dtd" >
<svg xmlns="http://www.w3.org/2000/svg" xmlns:xlink="http://www.w3.org/1999/xlink" version="1.1" viewBox="0 0 512 512">
  <g transform="matrix(1 0 0 -1 0 512)">
   <path fill="currentColor"
d="M256 192q17 0 30 13t13 30t-13 29.5t-30 12.5t-30 -12.5t-13 -29.5t13 -30t30 -13zM149 363q0 -17 13 -30t30 -13t30 13t13 30t-13 29.5t-30 12.5t-30 -12.5t-13 -29.5zM256 469q115 0 192 -85l-192 -341l-192 341q77 85 192 85z" />
  </g>

</svg>
