<?xml version="1.0" standalone="no"?>
<!DOCTYPE svg PUBLIC "-//W3C//DTD SVG 1.1//EN" "http://www.w3.org/Graphics/SVG/1.1/DTD/svg11.dtd" >
<svg xmlns="http://www.w3.org/2000/svg" xmlns:xlink="http://www.w3.org/1999/xlink" version="1.1" viewBox="0 0 512 512">
  <g transform="matrix(1 0 0 -1 0 512)">
   <path fill="currentColor"
d="M128 256h64l-85 -85l-86 85h64q0 70 50.5 120.5t120.5 50.5q50 0 91 -27l-31 -31q-27 15 -60 15q-53 0 -90.5 -37.5t-37.5 -90.5zM405 341l86 -85h-64q0 -70 -50.5 -120.5t-120.5 -50.5q-50 0 -91 27l31 31q27 -15 60 -15q53 0 90.5 37.5t37.5 90.5h-64z" />
  </g>

</svg>
