<?xml version="1.0" standalone="no"?>
<!DOCTYPE svg PUBLIC "-//W3C//DTD SVG 1.1//EN" "http://www.w3.org/Graphics/SVG/1.1/DTD/svg11.dtd" >
<svg xmlns="http://www.w3.org/2000/svg" xmlns:xlink="http://www.w3.org/1999/xlink" version="1.1" viewBox="0 0 512 512">
  <g transform="matrix(1 0 0 -1 0 512)">
   <path fill="currentColor"
d="M416 309q22 0 37.5 -15.5t15.5 -37.5t-15.5 -37.5t-37.5 -15.5q-36 0 -49 32h-62q-13 -32 -49 -32t-49 32h-62q-13 -32 -49 -32q-22 0 -37.5 15.5t-15.5 37.5t15.5 37.5t37.5 15.5q36 0 49 -32h62q13 32 49 32t49 -32h62q13 32 49 32z" />
  </g>

</svg>
