<?xml version="1.0" standalone="no"?>
<!DOCTYPE svg PUBLIC "-//W3C//DTD SVG 1.1//EN" "http://www.w3.org/Graphics/SVG/1.1/DTD/svg11.dtd" >
<svg xmlns="http://www.w3.org/2000/svg" xmlns:xlink="http://www.w3.org/1999/xlink" version="1.1" viewBox="0 0 512 512">
  <g transform="matrix(1 0 0 -1 0 512)">
   <path fill="currentColor"
d="M405 85v235h-298v-235h298zM405 427q17 0 30 -13t13 -30v-299q0 -17 -13 -29.5t-30 -12.5h-298q-18 0 -30.5 12.5t-12.5 29.5v299q0 17 12.5 30t30.5 13h21v42h43v-42h170v42h43v-42h21zM363 277v-42h-43v42h43zM277 277v-42h-42v42h42zM192 277v-42h-43v42h43z" />
  </g>

</svg>
