<?xml version="1.0" standalone="no"?>
<!DOCTYPE svg PUBLIC "-//W3C//DTD SVG 1.1//EN" "http://www.w3.org/Graphics/SVG/1.1/DTD/svg11.dtd" >
<svg xmlns="http://www.w3.org/2000/svg" xmlns:xlink="http://www.w3.org/1999/xlink" version="1.1" viewBox="0 0 512 512">
  <g transform="matrix(1 0 0 -1 0 512)">
   <path fill="currentColor"
d="M107 192v-43h-43v43h43zM64 64v43h384v-43h-384zM107 277v-42h-43v42h43zM405 320v43h43v-43h-43zM405 448h43v-43h-43v43zM107 363v-43h-43v43h43zM405 149v43h43v-43h-43zM405 235v42h43v-42h-43zM363 448v-43h-43v43h43zM277 448v-43h-42v43h42zM363 277v-42h-43v42
h43zM277 363v-43h-42v43h42zM107 448v-43h-43v43h43zM277 277v-42h-42v42h42zM192 448v-43h-43v43h43zM277 192v-43h-42v43h42zM192 277v-42h-43v42h43z" />
  </g>

</svg>
