<?xml version="1.0" standalone="no"?>
<!DOCTYPE svg PUBLIC "-//W3C//DTD SVG 1.1//EN" "http://www.w3.org/Graphics/SVG/1.1/DTD/svg11.dtd" >
<svg xmlns="http://www.w3.org/2000/svg" xmlns:xlink="http://www.w3.org/1999/xlink" version="1.1" viewBox="0 0 512 512">
  <g transform="matrix(1 0 0 -1 0 512)">
   <path fill="currentColor"
d="M149 64v43h43v-43h-43zM235 64v43h42v-43h-42zM405 192v213h-213v-213h213zM405 448q17 0 30 -13t13 -30v-213q0 -17 -13 -30t-30 -13h-213q-18 0 -30.5 13t-12.5 30v213q0 17 12.5 30t30.5 13h213zM320 64v43h43v-43h-43zM64 320v43h43v-43h-43zM107 64q-18 0 -30.5 13
t-12.5 30h43v-43zM64 149v43h43v-43h-43zM64 235v42h43v-42h-43z" />
  </g>

</svg>
