<?xml version="1.0" standalone="no"?>
<!DOCTYPE svg PUBLIC "-//W3C//DTD SVG 1.1//EN" "http://www.w3.org/Graphics/SVG/1.1/DTD/svg11.dtd" >
<svg xmlns="http://www.w3.org/2000/svg" xmlns:xlink="http://www.w3.org/1999/xlink" version="1.1" viewBox="0 0 512 512">
  <g transform="matrix(1 0 0 -1 0 512)">
   <path fill="currentColor"
d="M410 427v10q0 15 -11 26t-26 11t-25.5 -11t-10.5 -26v-10h73zM427 427q9 0 15 -6.5t6 -15.5v-85q0 -9 -6 -15t-15 -6h-107q-9 0 -15 6t-6 15v85q0 9 6 15.5t15 6.5v10q0 22 15.5 38t37.5 16t38 -16t16 -38v-10zM427 181q9 0 15 -6t6 -15v-75q0 -9 -6 -15t-15 -6
q-150 0 -256.5 106.5t-106.5 256.5q0 9 6 15t15 6h75q9 0 15 -6t6 -15q0 -40 12 -76q4 -13 -5 -22l-47 -47q47 -92 141 -141l47 47q9 9 22 5q36 -12 76 -12z" />
  </g>

</svg>
