<?xml version="1.0" standalone="no"?>
<!DOCTYPE svg PUBLIC "-//W3C//DTD SVG 1.1//EN" "http://www.w3.org/Graphics/SVG/1.1/DTD/svg11.dtd" >
<svg xmlns="http://www.w3.org/2000/svg" xmlns:xlink="http://www.w3.org/1999/xlink" version="1.1" viewBox="0 0 512 512">
  <g transform="matrix(1 0 0 -1 0 512)">
   <path fill="currentColor"
d="M491.275 401.702q-20.0068 -29.2568 -48.3662 -49.8613q0.295898 -4.17871 0.295898 -12.5371q0 -38.8154 -11.3486 -77.4814q-11.3428 -38.6621 -34.4824 -74.1963q-23.1396 -35.5283 -55.0869 -62.8486q-31.9482 -27.3174 -77.0283 -43.5898
q-45.0859 -16.2725 -96.4434 -16.2725q-80.9111 0 -148.091 43.2949q10.4502 -1.19434 23.2881 -1.19434q67.1797 0 119.731 41.1982q-31.3496 0.602539 -56.1338 19.2617q-24.7832 18.6602 -34.0381 47.6221q9.85254 -1.49512 18.2148 -1.49512q12.8379 0 25.376 3.28613
q-33.4375 6.86914 -55.3838 33.2891q-21.9453 26.4268 -21.9453 61.3584v1.19434q20.3027 -11.3486 43.5908 -12.2422q-19.7061 13.1348 -31.3496 34.3359q-11.6445 21.1953 -11.6445 45.9785q0 26.2734 13.1396 48.6689q36.126 -44.4893 87.9268 -71.2109
q51.8057 -26.7227 110.918 -29.708q-2.3877 11.3477 -2.3877 22.0947q0 40.0088 28.2178 68.2256q28.2119 28.2129 68.2197 28.2129q41.8008 0 70.4678 -30.4521q32.543 6.27051 61.2041 23.2881q-11.0479 -34.3359 -42.3975 -53.1484q27.7686 2.98438 55.5361 14.9287z" />
  </g>

</svg>
