<?xml version="1.0" standalone="no"?>
<!DOCTYPE svg PUBLIC "-//W3C//DTD SVG 1.1//EN" "http://www.w3.org/Graphics/SVG/1.1/DTD/svg11.dtd" >
<svg xmlns="http://www.w3.org/2000/svg" xmlns:xlink="http://www.w3.org/1999/xlink" version="1.1" viewBox="0 0 512 512">
  <g transform="matrix(1 0 0 -1 0 512)">
   <path fill="currentColor"
d="M265.143 492.843q-1.61328 -0.0966797 -8.93262 -7.41113l-111.547 -111.549q-13.2314 -13.2314 -1.22949 -25.2568l83.876 -84.0898q-3.92773 -0.0458984 -11.7373 -0.138672q-7.81152 -0.0898438 -11.6934 -0.135742q-10.6504 10.5186 -29.9639 29.9912
q-19.3145 19.4746 -25.7109 25.8652q-27.9668 26.1113 -28.3975 43.4385q0.792969 14.4717 16.2539 30.1855l-20.4863 20.4854q-15.0645 15.0654 -17.5771 15.0654q-2.50977 0 -2.50977 -15.0654v-155.397q0 -17.7051 20.3594 -17.5107h117.028l-16.5 -16.8887
q-1.25098 -0.15625 -36.5742 -0.0117188q-35.3203 0.141602 -36.5713 0.143555q-41.5469 -1.29102 -55.2061 11.2617q-10.6523 10.8018 -11.251 31.6543h-36.375q-19.0449 0 -20.6387 -1.59375q-1.59375 -1.59277 7.8916 -11.1523l109.261 -110.153
q13.1846 -13.293 29.0088 2.53027l82.4023 82.4023q0.0478516 -4.17188 0.145508 -12.4922q0.0986328 -8.32031 0.146484 -12.4658q-46.5312 -46.4912 -58.1787 -58.0029q-24.3301 -26.7363 -42.7354 -25.877q-13.4297 1.22266 -28.9902 16.6738l-21.6357 -21.6348
q-15.0664 -15.0645 -15.0664 -17.5771q0 -2.51074 15.0664 -2.51074h155.397q17.7061 0 17.5117 20.3584v119.384l18.918 -18.2578q-0.171875 -78.9229 -0.185547 -80.2959q1.5791 -37.2861 -11.2197 -49.7646q-10.3594 -9.18066 -32.9297 -9.33691v-36.6816
q0 -19.0449 1.59375 -20.6387t11.1543 7.8916l110.153 109.261q13.293 13.1846 -2.53223 29.0107l-82.3281 82.3281q3.62109 0.0419922 7.70801 0.0898438q4.08398 0.0478516 9.05273 0.106445q4.96875 0.0595703 7.70898 0.0917969q35.1523 -34.2832 58.8955 -58.1924
q26.6377 -24.2939 25.8232 -42.7217q-1.2373 -13.4756 -16.8525 -29.1592l21.3906 -21.3906q15.0654 -15.0645 17.5771 -15.0645q2.51074 0 2.51074 15.0645v155.397q0 17.7051 -20.3594 17.5117h-118.638q2.99219 3.06445 8.97852 9.19043q5.9873 6.12988 8.98047 9.19336
q12.5381 0.116211 44.7256 -0.00976562q32.1895 -0.126953 44.7256 0.175781q26.8027 0.339844 38.9678 -11.5957q10.9434 -11.2031 11.1416 -33.1484h36.6572q19.0449 0 20.6387 1.5957q1.59375 1.59375 -7.88965 11.1553l-109.261 110.153
q-6.43652 6.48828 -12.9424 6.32031q-7.40137 -0.188477 -16.0664 -8.85254l-82.3018 -82.3027q-0.0498047 4.24219 -0.150391 12.7783q-0.102539 8.53516 -0.152344 12.8291q5.14355 5.11719 23.8096 23.8154q18.666 18.6982 28.8896 28.7578
q31.2227 30.4619 45.1523 31.585q14.4463 0.333984 32.3115 -17.3516l21.2871 21.2852q15.0645 15.0664 15.0645 17.5791q0 2.51074 -15.0645 2.51074h-155.399q-17.7041 0 -17.5098 -20.3623v-118.067q-8.9541 8.63867 -17.9092 17.2832
q-0.594727 2.05176 -1.13672 26.0293q0.467773 10.4844 -0.126953 42.2373q-0.595703 31.7549 1.22949 42.2314q0.422852 12.7842 11.2188 21.4482q10.7949 8.66309 23.9141 8.75293q3.19629 0.0302734 8.2998 -0.0878906v38.2988q0 11.4697 -0.362305 15.1836
q-0.360352 3.71289 -2.00195 3.61523z" />
  </g>

</svg>
