<?xml version="1.0" standalone="no"?>
<!DOCTYPE svg PUBLIC "-//W3C//DTD SVG 1.1//EN" "http://www.w3.org/Graphics/SVG/1.1/DTD/svg11.dtd" >
<svg xmlns="http://www.w3.org/2000/svg" xmlns:xlink="http://www.w3.org/1999/xlink" version="1.1" viewBox="0 0 512 512">
  <g transform="matrix(1 0 0 -1 0 512)">
   <path fill="currentColor"
d="M299 331q13 0 22.5 -9.5t9.5 -22.5t-9.5 -22.5t-22.5 -9.5t-22.5 9.5t-9.5 22.5t9.5 22.5t22.5 9.5zM299 245q13 0 22.5 -9.5t9.5 -22.5t-9.5 -22.5t-22.5 -9.5t-22.5 9.5t-9.5 22.5t9.5 22.5t22.5 9.5zM213 149q9 0 15.5 -6t6.5 -15t-6.5 -15t-15.5 -6t-15 6t-6 15t6 15
t15 6zM213 331q13 0 22.5 -9.5t9.5 -22.5t-9.5 -22.5t-22.5 -9.5t-22.5 9.5t-9.5 22.5t9.5 22.5t22.5 9.5zM299 75q10 0 10 -11t-10 -11q-11 0 -11 11t11 11zM299 149q9 0 15 -6t6 -15t-6 -15t-15 -6t-15.5 6t-6.5 15t6.5 15t15.5 6zM448 224q11 0 11 -11q0 -10 -11 -10
t-11 10q0 11 11 11zM384 405q9 0 15 -6t6 -15t-6 -15t-15 -6t-15 6t-6 15t6 15t15 6zM384 320q9 0 15 -6t6 -15t-6 -15.5t-15 -6.5t-15 6.5t-6 15.5t6 15t15 6zM384 149q9 0 15 -6t6 -15t-6 -15t-15 -6t-15 6t-6 15t6 15t15 6zM384 235q9 0 15 -6.5t6 -15.5t-6 -15t-15 -6
t-15 6t-6 15t6 15.5t15 6.5zM213 245q13 0 22.5 -9.5t9.5 -22.5t-9.5 -22.5t-22.5 -9.5t-22.5 9.5t-9.5 22.5t9.5 22.5t22.5 9.5zM213 363q-9 0 -15 6t-6 15t6 15t15 6t15.5 -6t6.5 -15t-6.5 -15t-15.5 -6zM213 437q-10 0 -10 11t10 11q11 0 11 -11t-11 -11zM213 75
q11 0 11 -11t-11 -11q-10 0 -10 11t10 11zM64 224q11 0 11 -11q0 -10 -11 -10t-11 10q0 11 11 11zM299 437q-11 0 -11 11t11 11q10 0 10 -11t-10 -11zM299 363q-9 0 -15.5 6t-6.5 15t6.5 15t15.5 6t15 -6t6 -15t-6 -15t-15 -6zM448 288q-11 0 -11 11q0 10 11 10t11 -10
q0 -11 -11 -11zM128 405q9 0 15 -6t6 -15t-6 -15t-15 -6t-15 6t-6 15t6 15t15 6zM64 309q11 0 11 -10q0 -11 -11 -11t-11 11q0 10 11 10zM128 320q9 0 15 -6t6 -15t-6 -15.5t-15 -6.5t-15 6.5t-6 15.5t6 15t15 6zM128 149q9 0 15 -6t6 -15t-6 -15t-15 -6t-15 6t-6 15t6 15
t15 6zM128 235q9 0 15 -6.5t6 -15.5t-6 -15t-15 -6t-15 6t-6 15t6 15.5t15 6.5z" />
  </g>

</svg>
