<?xml version="1.0" standalone="no"?>
<!DOCTYPE svg PUBLIC "-//W3C//DTD SVG 1.1//EN" "http://www.w3.org/Graphics/SVG/1.1/DTD/svg11.dtd" >
<svg xmlns="http://www.w3.org/2000/svg" xmlns:xlink="http://www.w3.org/1999/xlink" version="1.1" viewBox="0 0 512 512">
  <g transform="matrix(1 0 0 -1 0 512)">
   <path fill="currentColor"
d="M341 171v256h-170v-256h170zM341 512q17 0 30 -13t13 -30v-341q0 -17 -13 -30t-30 -13h-170q-17 0 -30 13t-13 30v341q0 17 13 30t30 13h170zM320 0v43h43v-43h-43zM235 0v43h42v-43h-42zM149 0v43h43v-43h-43z" />
  </g>

</svg>
