<?xml version="1.0" standalone="no"?>
<!DOCTYPE svg PUBLIC "-//W3C//DTD SVG 1.1//EN" "http://www.w3.org/Graphics/SVG/1.1/DTD/svg11.dtd" >
<svg xmlns="http://www.w3.org/2000/svg" xmlns:xlink="http://www.w3.org/1999/xlink" version="1.1" viewBox="0 0 512 512">
  <g transform="matrix(1 0 0 -1 0 512)">
   <path fill="currentColor"
d="M352 171q22 0 37.5 15.5t15.5 37.5t-15.5 37.5t-37.5 15.5h-11q0 35 -25 60.5t-60 25.5q-30 0 -52.5 -18.5t-29.5 -46.5l-3 1q-26 0 -45 -19t-19 -45t19 -45t45 -19h181zM256 469q88 0 150.5 -62.5t62.5 -150.5t-62.5 -150.5t-150.5 -62.5t-150.5 62.5t-62.5 150.5
t62.5 150.5t150.5 62.5z" />
  </g>

</svg>
