<?xml version="1.0" standalone="no"?>
<!DOCTYPE svg PUBLIC "-//W3C//DTD SVG 1.1//EN" "http://www.w3.org/Graphics/SVG/1.1/DTD/svg11.dtd" >
<svg xmlns="http://www.w3.org/2000/svg" xmlns:xlink="http://www.w3.org/1999/xlink" version="1.1" viewBox="0 0 512 512">
  <g transform="matrix(1 0 0 -1 0 512)">
   <path fill="currentColor"
d="M405 299q0 -54 -37.5 -95t-90.5 -49v-70h-42v70q-53 8 -90.5 49t-37.5 95h36q0 -47 33.5 -78t79.5 -31t79.5 31t33.5 78h36zM320 0v43h43v-43h-43zM235 0v43h42v-43h-42zM256 235q-26 0 -45 19t-19 45v128q0 26 19 45t45 19t45 -19t19 -45v-128q0 -26 -19 -45t-45 -19z
M149 0v43h43v-43h-43z" />
  </g>

</svg>
