<?xml version="1.0" standalone="no"?>
<!DOCTYPE svg PUBLIC "-//W3C//DTD SVG 1.1//EN" "http://www.w3.org/Graphics/SVG/1.1/DTD/svg11.dtd" >
<svg xmlns="http://www.w3.org/2000/svg" xmlns:xlink="http://www.w3.org/1999/xlink" version="1.1" viewBox="0 0 512 512">
  <g transform="matrix(1 0 0 -1 0 512)">
   <path fill="currentColor"
d="M250 222q-7 -3 -7 -4l-2 -3h-13l5 47h51v-15h-37l-2 -19q2 0 2 2q0 1 1.5 1.5t1.5 1.5h4h4q8 0 11 -3q1 -1 4 -3t4 -3q9 -9 9 -23q0 -9 -2 -11q-1 -1 -3 -5t-4 -6q-8 -8 -23 -8q-9 0 -11 2q-1 1 -4.5 2t-5.5 2q-9 5 -9 19h17q0 -10 13 -10q4 0 6 2l5 4q2 4 2 6v13l-2 4
l-5 5q-4 2 -6 2h-4zM85 235q0 70 50 120t121 50v86l107 -107l-107 -107v86q-52 0 -90 -37.5t-38 -90.5t38 -90.5t90 -37.5t90 37.5t38 90.5h43q0 -71 -50.5 -121t-120.5 -50t-120.5 50t-50.5 121z" />
  </g>

</svg>
