<?xml version="1.0" standalone="no"?>
<!DOCTYPE svg PUBLIC "-//W3C//DTD SVG 1.1//EN" "http://www.w3.org/Graphics/SVG/1.1/DTD/svg11.dtd" >
<svg xmlns="http://www.w3.org/2000/svg" xmlns:xlink="http://www.w3.org/1999/xlink" version="1.1" viewBox="0 0 512 512">
  <g transform="matrix(1 0 0 -1 0 512)">
   <path fill="currentColor"
d="M211 99l-149 29l8 43l105 -21l34 173l-39 -15v-73h-42v100l111 47q3 0 8.5 1t8.5 1q21 0 36 -21l21 -34q29 -51 92 -51v-43q-71 0 -117 53l-13 -64l45 -42v-160h-43v128l-45 42zM288 395q-17 0 -30 13t-13 30t13 29.5t30 12.5t29.5 -12.5t12.5 -29.5t-12.5 -30t-29.5 -13
z" />
  </g>

</svg>
