<?xml version="1.0" standalone="no"?>
<!DOCTYPE svg PUBLIC "-//W3C//DTD SVG 1.1//EN" "http://www.w3.org/Graphics/SVG/1.1/DTD/svg11.dtd" >
<svg xmlns="http://www.w3.org/2000/svg" xmlns:xlink="http://www.w3.org/1999/xlink" version="1.1" viewBox="0 0 512 512">
  <g transform="matrix(1 0 0 -1 0 512)">
   <path fill="currentColor"
d="M171 256h42v-107h-42v107zM171 405h42v-64h-42v64zM384 320v107h-256v-107h256zM384 85v193h-256v-193h256zM384 469q18 0 30.5 -12t12.5 -30v-342q0 -17 -13 -29.5t-30 -12.5h-256q-17 0 -30 12.5t-13 29.5v342q0 18 12.5 30t30.5 12h256z" />
  </g>

</svg>
