<?xml version="1.0" standalone="no"?>
<!DOCTYPE svg PUBLIC "-//W3C//DTD SVG 1.1//EN" "http://www.w3.org/Graphics/SVG/1.1/DTD/svg11.dtd" >
<svg xmlns="http://www.w3.org/2000/svg" xmlns:xlink="http://www.w3.org/1999/xlink" version="1.1" viewBox="0 0 512 512">
  <g transform="matrix(1 0 0 -1 0 512)">
   <path fill="currentColor"
d="M448 106v300h-384v-300h384zM448 448q17 0 30 -13t13 -30v-298q0 -17 -13 -30t-30 -13h-384q-17 0 -30 13t-13 30v298q0 17 13 30t30 13h384zM192 171q-26 0 -45 19t-19 45q0 25 16.5 43t40.5 20h4q21 43 67 43q28 0 49 -18.5t25 -45.5h1q22 0 37.5 -15.5t15.5 -37.5
t-15.5 -37.5t-37.5 -15.5h-139z" />
  </g>

</svg>
