<?xml version="1.0" standalone="no"?>
<!DOCTYPE svg PUBLIC "-//W3C//DTD SVG 1.1//EN" "http://www.w3.org/Graphics/SVG/1.1/DTD/svg11.dtd" >
<svg xmlns="http://www.w3.org/2000/svg" xmlns:xlink="http://www.w3.org/1999/xlink" version="1.1" viewBox="0 0 512 512">
  <g transform="matrix(1 0 0 -1 0 512)">
   <path fill="currentColor"
d="M320 288v32q0 18 -12.5 30.5t-29.5 12.5h-86v-43h86v-43h-43v-42h43v-43h-86v-43h86q17 0 29.5 12.5t12.5 30.5v32q0 14 -9 23t-23 9q14 0 23 9t9 23zM406 448q17 0 29.5 -13t12.5 -30v-298q0 -17 -12.5 -30t-29.5 -13h-299q-17 0 -30 13t-13 30v298q0 17 13 30t30 13
h299z" />
  </g>

</svg>
