<?xml version="1.0" standalone="no"?>
<!DOCTYPE svg PUBLIC "-//W3C//DTD SVG 1.1//EN" "http://www.w3.org/Graphics/SVG/1.1/DTD/svg11.dtd" >
<svg xmlns="http://www.w3.org/2000/svg" xmlns:xlink="http://www.w3.org/1999/xlink" version="1.1" viewBox="0 0 512 512">
  <g transform="matrix(1 0 0 -1 0 512)">
   <path fill="currentColor"
d="M200 232q0 -54 62 -54q49 0 49 36q0 16 -6.5 23t-23.5 15q-1 0 -3.5 1t-4.5 2t-4 1h-205v43h384v-43h-83q0 -1 1.5 -3.5t2.5 -3.5q7 -17 7 -35q0 -61 -67 -80q-21 -6 -46 -6q-16 0 -31 3q-36 7 -56 22q-39 29 -39 79h63zM311 352q0 45 -51 45q-36 0 -47 -22q-3 -6 -3 -14
q0 -15 16 -26q16 -10 30 -15h-98q0 1 -2 2.5t-2 2.5q-8 13 -8 36q0 37 32 63q34 24 83 24q53 0 83 -27q31 -28 31 -69h-64z" />
  </g>

</svg>
