<?xml version="1.0" standalone="no"?>
<!DOCTYPE svg PUBLIC "-//W3C//DTD SVG 1.1//EN" "http://www.w3.org/Graphics/SVG/1.1/DTD/svg11.dtd" >
<svg xmlns="http://www.w3.org/2000/svg" xmlns:xlink="http://www.w3.org/1999/xlink" version="1.1" viewBox="0 0 512 512">
  <g transform="matrix(1 0 0 -1 0 512)">
   <path fill="currentColor"
d="M363 64v43h42v-43h-42zM277 64v43h43v-43h-43zM448 235v42h43v-42h-43zM448 64v43h43q0 -17 -13 -30t-30 -13zM107 405v43h42v-43h-42zM107 64v43h42v-43h-42zM192 405v43h43v-43h-43zM448 149v43h43v-43h-43zM448 448q17 0 30 -13t13 -30v-85h-214v128h171zM64 64
q-17 0 -30 13t-13 30h43v-43zM21 149v43h43v-43h-43zM192 64v43h43v-43h-43zM21 405q0 17 13 30t30 13v-43h-43zM21 235v42h43v-42h-43zM21 320v43h43v-43h-43z" />
  </g>

</svg>
