<?xml version="1.0" standalone="no"?>
<!DOCTYPE svg PUBLIC "-//W3C//DTD SVG 1.1//EN" "http://www.w3.org/Graphics/SVG/1.1/DTD/svg11.dtd" >
<svg xmlns="http://www.w3.org/2000/svg" xmlns:xlink="http://www.w3.org/1999/xlink" version="1.1" viewBox="0 0 512 512">
  <g transform="matrix(1 0 0 -1 0 512)">
   <path fill="currentColor"
d="M317 233q46 32 46 87q0 44 -31.5 75.5t-75.5 31.5t-75.5 -31.5t-31.5 -75.5q0 -55 46 -87l18 -13v-49h86v49zM256 469q62 0 105.5 -43.5t43.5 -105.5q0 -78 -64 -122v-49q0 -9 -6 -15t-15 -6h-128q-9 0 -15 6t-6 15v49q-64 44 -64 122q0 62 43.5 105.5t105.5 43.5z
M192 64v21h128v-21q0 -9 -6 -15t-15 -6h-86q-9 0 -15 6t-6 15z" />
  </g>

</svg>
