<?xml version="1.0" standalone="no"?>
<!DOCTYPE svg PUBLIC "-//W3C//DTD SVG 1.1//EN" "http://www.w3.org/Graphics/SVG/1.1/DTD/svg11.dtd" >
<svg xmlns="http://www.w3.org/2000/svg" xmlns:xlink="http://www.w3.org/1999/xlink" version="1.1" viewBox="0 0 512 512">
  <g transform="matrix(1 0 0 -1 0 512)">
   <path fill="currentColor"
d="M322.65 232.992q3.99219 0 29.9463 -13.5137q25.9531 -13.5146 27.4893 -16.2783q0.614258 -1.53613 0.614258 -4.60742q0 -10.1348 -5.22168 -23.3428q-4.91406 -11.9785 -21.8066 -20.1172q-16.8936 -8.14062 -31.3291 -8.14062q-17.5068 0 -58.3574 19.0439
q-30.0996 13.8213 -52.2139 36.2422q-22.1152 22.4219 -45.457 56.8213q-22.1143 32.8643 -21.8076 59.5859v2.45703q0.920898 27.9502 22.7285 48.5293q7.37109 6.75684 15.9707 6.75684q1.84375 0 5.5293 -0.460938q3.68652 -0.459961 5.83594 -0.459961
q5.83496 0 8.13965 -1.99707q2.30273 -1.99707 4.76074 -8.44629q2.45605 -6.14258 10.1348 -27.0283q7.67969 -20.8857 7.67969 -23.0361q0 -6.4502 -10.5967 -17.6611t-10.5967 -14.2812q0 -2.15039 1.53516 -4.60742q10.4434 -22.4219 31.3281 -42.0781
q17.2002 -16.2793 46.3799 -31.0225q3.68555 -2.14941 6.75684 -2.14941q4.60742 0 16.585 14.8965q11.9785 14.8955 15.9727 14.8955zM260.3 70.208q39.0068 0 74.7891 15.3564q35.7832 15.3574 61.583 41.1572t41.1562 61.582q15.3574 35.7822 15.3574 74.7891
t-15.3574 74.79q-15.3564 35.7812 -41.1562 61.5811t-61.583 41.1582q-35.7822 15.3564 -74.7891 15.3564q-39.0078 0 -74.7891 -15.3564q-35.7822 -15.3584 -61.583 -41.1582q-25.7998 -25.7998 -41.1562 -61.5811q-15.3574 -35.7832 -15.3574 -74.79
q0 -62.3506 36.8574 -113.028l-24.2646 -71.5645l74.3291 23.6504q48.5283 -31.9424 105.964 -31.9424zM260.3 494.679q46.9922 0 89.8389 -18.4287t73.8682 -49.4502t49.4492 -73.8672q18.4297 -42.8467 18.4297 -89.8398t-18.4297 -89.8398
q-18.4277 -42.8457 -49.4492 -73.8672t-73.8682 -49.4502q-42.8467 -18.4277 -89.8389 -18.4277q-59.8936 0 -112.107 28.8701l-128.078 -41.1562l41.7715 124.393q-33.1719 54.6719 -33.1719 119.479q0 46.9932 18.4287 89.8398q18.4287 42.8457 49.4502 73.8672
t73.8682 49.4502q42.8457 18.4287 89.8389 18.4287z" />
  </g>

</svg>
